<?xml version="1.0" encoding="UTF-8"?>
<svg width="394px" height="120px" viewBox="0 0 394 120" version="1.1" xmlns="http://www.w3.org/2000/svg" xmlns:xlink="http://www.w3.org/1999/xlink">
    <!-- Generator: Sketch 60 (88103) - https://sketch.com -->
    <title>Logo</title>
    <desc>Created with Sketch.</desc>
    <defs>
        <polygon id="path-1" points="47.8065915 20.3616738 0.218222412 20.3616738 0.218222412 0.441373623 47.8065915 0.441373623 47.8065915 20.3616738"></polygon>
    </defs>
    <g id="Logo" stroke="none" stroke-width="1" fill="none" fill-rule="evenodd">
        <g id="ambi-logo">
            <g transform="translate(0.706087, 0.456884)">
                <g id="ambi_color">
                    <path d="M246.839243,74.5676593 L246.839243,114.253881 L223.088219,114.253881 L223.088219,74.5676593 C223.088219,62.0439378 217.419961,53.5932311 205.160834,53.5932311 C195.048711,53.5932311 188.00068,61.5910028 188.00068,72.4553227 L188.00068,114.253881 L163.944421,114.253881 L163.944421,74.5676593 C163.944421,62.0439378 158.274091,53.5932311 146.017035,53.5932311 C135.903532,53.5932311 128.85481,61.741301 128.85481,72.4553227 L128.85481,114.253881 L105.71909,114.253881 L105.71909,34.7318196 L128.85481,34.7318196 L128.85481,44.5392911 C135.903532,37.2970913 142.951563,34.2788846 152.452525,34.2788846 C166.547897,34.2788846 178.194483,41.0695096 183.557505,50.8776612 C189.991614,35.7879879 207.153149,34.2788846 211.596323,34.2788846 C236.725048,34.2788846 246.839243,50.4247262 246.839243,74.5676593" id="Fill-1" fill="#000000"></path>
                    <path d="M309.95386,95.5420875 C321.13983,95.5420875 328.34117,86.9410826 328.34117,74.5676593 C328.34117,62.3452144 321.292448,53.8958679 309.95386,53.5932311 C298.614582,53.8958679 291.720549,62.3452144 291.720549,74.5676593 C291.720549,86.7907843 298.921888,95.5420875 309.95386,95.5420875 Z M291.108007,0.628396345 L291.108007,41.5210844 C297.23688,36.9944545 304.897453,34.4291828 312.711335,34.4291828 C334.776659,34.4291828 352.090122,51.0279594 352.090122,74.5676593 C352.090122,97.504806 335.082585,114.857114 313.478566,114.857114 C305.357378,114.857114 297.389498,112.291162 291.108007,107.765213 L291.108007,114.253881 L267.970216,114.253881 L267.970216,0.628396345 L291.108007,0.628396345 L291.108007,0.628396345 Z" id="Fill-2" fill="#000000"></path>
                    <path d="M369.395988,114.253881 L392.531707,114.253881 L392.531707,34.7318196 L369.395988,34.7318196 L369.395988,114.253881 Z M380.887193,26.2811129 C374.604321,26.2811129 369.395988,21.302228 369.395988,14.963858 C369.395988,8.77714635 374.604321,3.64728311 380.887193,3.64728311 C387.323373,3.64728311 392.531707,8.77714635 392.531707,14.963858 C392.531707,21.302228 387.323373,26.2811129 380.887193,26.2811129 L380.887193,26.2811129 Z" id="Fill-3" fill="#000000"></path>
                    <polyline id="Fill-4" fill="#3A96C6" points="32.6818267 114.381056 32.6663758 114.394099 32.6818267 114.409315 32.6950703 114.38323 32.692863 114.38323 32.6950703 114.381056 32.6818267 114.381056"></polyline>
                    <g id="Group-8" transform="translate(32.457131, 94.531485)">
                        <mask id="mask-2" fill="white">
                            <use xlink:href="#path-1"></use>
                        </mask>
                        <g id="Clip-6"></g>
                        <path d="M14.3365647,0.441373623 L14.3365647,0.452242261 L14.3100774,0.489195632 L14.3012483,0.497890543 L14.2548956,0.563102374 C14.5153537,0.515280365 14.656619,0.497890543 14.656619,0.497890543 L14.4226483,0.460937172 L14.3365647,0.441373623" id="Fill-5" fill="#3A96C6" mask="url(#mask-2)"></path>
                        <path d="M0.3066163,19.7495994 L0.301091682,19.7577604 L0.289351869,19.7564002 L0.255513583,19.804006 L0.218222412,19.8495715 L0.218222412,19.8502516 C0.723034384,19.9305014 1.23406155,20.0025901 1.74232641,20.0712785 C1.99922115,20.1059627 2.2616405,20.1379266 2.51853524,20.16581 C2.67874916,20.1834921 2.84310655,20.2004942 3.00332047,20.2113755 L3.08964263,20.2134158 C2.90802081,20.199134 2.7291613,20.182812 2.55030179,20.1637697 L2.51853524,20.1603693 C2.39008787,20.1467677 2.2616405,20.1318058 2.13043082,20.1148038 C1.51167361,20.0318337 0.904656201,19.9175798 0.3066163,19.7495994 L0.3066163,19.7495994 Z M22.6467904,16.8884918 L22.6467904,16.8884918 L22.5798044,16.9170553 L22.4451419,16.9769025 C22.2849279,17.046271 22.1302386,17.1183597 21.9700247,17.1850078 L21.9313524,17.1986095 L21.8940612,17.2156115 L21.7704479,17.2645775 L21.7414436,17.2761389 C21.6067811,17.3366663 21.4728091,17.3890326 21.3353842,17.4461596 L21.2193672,17.4924052 C16.5938808,19.334749 11.6555629,20.3099875 6.54252889,20.3099875 C6.09848772,20.3099875 5.65306539,20.3099875 5.20764306,20.3038667 C5.31330138,20.3195086 5.41826912,20.338551 5.52323687,20.347392 C5.83606836,20.3793559 6.14199409,20.4024787 6.45758789,20.4024787 C11.31718,20.4024787 16.0966652,19.4932083 20.5149784,17.770559 C20.6524033,17.7188727 20.7898282,17.6671864 20.9272531,17.6127798 C21.020481,17.5808159 21.1137089,17.540691 21.2069369,17.5032865 L21.3353842,17.4461596 C21.4728091,17.3890326 21.6067811,17.3366663 21.7414436,17.2761389 L21.7704479,17.2645775 L21.8940612,17.2156115 L21.9313524,17.1986095 L21.9700247,17.1850078 C22.1302386,17.1183597 22.2849279,17.046271 22.4451419,16.9769025 L22.5798044,16.9170553 L22.6467904,16.8884918 Z M24.2137102,16.1390408 C24.2047327,16.1431212 24.1950646,16.1478818 24.1860871,16.1519623 C24.1253163,16.1839262 24.0679984,16.2124897 24.0037747,16.2437735 L23.9222866,16.2845784 C23.872565,16.3104216 23.8207718,16.338985 23.7710502,16.3621079 C23.5845943,16.4566393 23.3946856,16.5457302 23.201324,16.6321007 L23.152293,16.6552235 L23.1143112,16.6722255 C23.0963562,16.6810666 23.0777106,16.6899077 23.059065,16.6987488 C23.0777106,16.6899077 23.0963562,16.6810666 23.1143112,16.6722255 L23.152293,16.6552235 L23.201324,16.6321007 C23.3946856,16.5457302 23.5845943,16.4566393 23.7710502,16.3621079 C23.8207718,16.338985 23.8732556,16.3104216 23.9222866,16.2845784 L24.0044653,16.2437735 C24.068689,16.2124897 24.1273881,16.1839262 24.1881589,16.1519623 C24.1971364,16.1478818 24.2054233,16.1431212 24.2137102,16.1390408 L24.2137102,16.1390408 Z M25.7723431,15.3045794 C25.4774666,15.4671191 25.1798278,15.6262585 24.8780455,15.7806372 C24.7730778,15.8384442 24.6839933,15.8928508 24.5790256,15.9479375 L24.5797162,15.9506579 L24.4001661,16.0451893 C24.3994755,16.0458694 24.3980943,16.0465495 24.3974038,16.0472296 L24.4043095,16.0451893 L24.5886937,15.9506579 L24.5976712,15.9479375 C24.7026389,15.8928508 24.810369,15.8384442 24.9160273,15.7806372 C25.0237573,15.7228302 25.1314874,15.6629829 25.2392174,15.6024556 C25.4180769,15.5038436 25.5955553,15.4045515 25.7723431,15.3045794 L25.7723431,15.3045794 Z M29.0235808,13.2534502 C29.0235808,13.3622634 28.7770447,13.4683563 28.6140685,13.5751293 C28.7915468,13.4683563 29.0235808,13.3622634 29.0235808,13.2534502 L29.0235808,19.7489193 L47.8065915,19.7489193 L29.0235808,19.7489193 L29.0235808,13.2534502 L29.0235808,13.2534502 Z" id="Fill-7" fill="#3A96C6" mask="url(#mask-2)"></path>
                    </g>
                    <polyline id="Fill-9" fill="#3C629E" points="32.67687 114.381056 32.6746627 114.38323 32.67687 114.38323 32.67687 114.381056"></polyline>
                    <path d="M35.6828172,114.74218 L35.609616,114.747621 L35.5716343,114.745581 L35.5467735,114.7449 C35.5550604,114.745581 35.5633474,114.746261 35.5716343,114.746941 L35.609616,114.749661 C35.702844,114.757822 35.7995248,114.766663 35.895515,114.769383 C36.2428754,114.792506 36.5909263,114.809508 36.9382867,114.818349 L36.9969857,114.82175 C37.2193516,114.827871 37.4424081,114.832631 37.6647739,114.835351 C37.5998597,114.82583 37.5349454,114.817669 37.4700312,114.813589 L37.4251436,114.764623 L37.3961394,114.764623 C37.2739072,114.764623 37.1502939,114.787746 37.0294429,114.787746 C37.0190842,114.787746 37.008035,114.787746 36.9969857,114.787066 L36.9382867,114.801347 C36.5874734,114.784345 36.2401131,114.760542 35.895515,114.760542 C35.8230044,114.755782 35.7498032,114.748301 35.6828172,114.74218 M55.5161959,111.230233 C55.4029412,111.28396 55.2876148,111.335646 55.1743602,111.385292 L55.1039213,111.419977 C55.2427273,111.358089 55.3794616,111.295521 55.5161959,111.230233 M56.8545346,110.578714 L56.8476289,110.580075 L56.8303644,110.588916 C56.77719,110.615439 56.7240155,110.642642 56.6708411,110.670525 C56.7336836,110.640602 56.7937638,110.610678 56.8545346,110.578714 M61.0711993,108.106614 C60.8633356,108.230389 60.6844761,108.354164 60.5007825,108.474539 L60.3937431,108.500382 L60.3799315,108.515344 C60.2514841,108.595593 60.1278708,108.681964 59.9994234,108.764934 C59.8709761,108.848584 59.7446004,108.932234 59.6161531,109.012484 C59.405527,109.1451 59.1969727,109.271596 58.9870372,109.398091 C58.7370482,109.547029 58.484297,109.692567 58.2294739,109.836064 C59.1962821,109.303559 60.134086,108.72821 61.0711993,108.106614" id="Fill-10" fill="#9DC04B"></path>
                    <path d="M42.375892,101.024234 L34.5226474,111.840948 L32.7637472,114.281084 C33.3617871,114.448384 33.9688045,114.563318 34.5875617,114.646289 C34.7187714,114.663291 34.8472187,114.678252 34.9756661,114.691854 L35.0074327,114.695254 C35.1869828,114.714297 35.3651517,114.730619 35.5467735,114.7449 L35.5716343,114.745581 L35.609616,114.747621 L35.6821266,114.74218 C35.7498032,114.748301 35.8230044,114.755782 35.895515,114.760542 C36.2401131,114.760542 36.5874734,114.784345 36.9382867,114.801347 L36.9969857,114.787746 L37.0301334,114.787746 C37.1502939,114.787746 37.2739072,114.764623 37.3961394,114.764623 L37.4251436,114.764623 L37.4700312,114.813589 C37.5349454,114.817669 37.6005503,114.82583 37.6647739,114.835351 C38.1101963,114.841472 38.5556186,114.841472 38.9996598,114.841472 C44.1126937,114.841472 49.0510117,113.866234 53.6758075,112.02389 L53.7925151,111.977644 C53.92994,111.919837 54.0646025,111.868151 54.1985745,111.807624 L54.2275788,111.796062 L54.3511921,111.747096 L54.3884833,111.730094 L54.4271556,111.715812 C54.5873695,111.649844 54.7420588,111.577756 54.9029633,111.508387 L55.0369353,111.44854 L55.1039213,111.419977 L55.1743602,111.385292 C55.2876148,111.335646 55.4029412,111.28396 55.5161959,111.230233 C55.5348415,111.221392 55.5534871,111.212551 55.5714421,111.20371 L55.6087333,111.186708 L55.6584548,111.164265 C55.8518165,111.077215 56.0417252,110.988124 56.2281811,110.893593 C56.2779026,110.87047 56.3296959,110.841906 56.3801081,110.816063 L56.4609056,110.775258 C56.5251293,110.743974 56.5824472,110.715411 56.643218,110.683447 C56.6521955,110.679367 56.6618636,110.674606 56.6708411,110.670525 C56.7240155,110.642642 56.77719,110.615439 56.8303644,110.588916 L56.8476289,110.580075 L56.8545346,110.578714 C56.8552252,110.578034 56.8566064,110.577354 56.8572969,110.576674 L57.0361565,110.482143 L57.0361565,110.479422 C57.1411242,110.425016 57.2302087,110.369929 57.3351764,110.312122 C57.6369587,110.157743 57.9345975,109.999284 58.2294739,109.836064 C58.484297,109.692567 58.7370482,109.547029 58.9863466,109.398091 C59.1969727,109.271596 59.405527,109.1451 59.6161531,109.012484 C59.7446004,108.932234 59.8709761,108.848584 59.9994234,108.764934 C60.1278708,108.681964 60.2514841,108.595593 60.3799315,108.515344 L60.3937431,108.500382 L60.5007825,108.474539 C60.6844761,108.354164 60.8633356,108.230389 61.0711993,108.106614 C61.2341756,107.999841 61.4800211,107.893748 61.4800211,107.784935 L61.4800211,114.280404 L80.2637223,114.280404 L71.1439591,111.152024 L42.6320961,101.207856 L42.6293338,101.207856 L42.375892,101.024234" id="Fill-11" fill="#127844"></path>
                    <path d="M1.46471435,85.6169617 L1.46195204,85.6217223 L1.48543167,85.7108131 C4.85821097,98.3297462 13.7383439,108.256912 25.4160052,112.501988 C25.6197255,112.573397 25.8213741,112.646166 26.0257849,112.720975 C26.2301958,112.786943 26.4346067,112.857671 26.6424704,112.922959 C27.0153821,113.044694 27.3924373,113.165069 27.7715642,113.274562 L27.8102365,113.291564 C29.3840621,113.722056 31.0020846,114.280404 32.6573983,114.280404 L32.6719004,114.280404 L32.7464827,114.287885 L32.7533885,114.278364 L34.5226474,111.840948 L42.3848695,100.935143 L42.5402493,100.731118 L42.6638627,100.58354 L42.7066785,100.693033 L42.7992158,100.733838 L42.7992158,100.551576 L42.715656,100.554977 L42.6493605,100.531174 L42.6493605,100.540695 L42.6320961,100.534574 L42.6383113,100.527093 L1.46471435,85.6169617" id="Fill-12" fill="#9DC04B"></path>
                    <polyline id="Fill-13" fill="#127844" points="42.6320961 100.551004 42.6872779 100.570568 42.6872779 100.540136 42.6519616 100.527093 42.6320961 100.551004"></polyline>
                    <path d="M32.7685555,114.278364 L32.7685555,114.278364 L32.7464827,114.308796 L32.7840064,114.313143 L32.8016645,114.287059 C32.7906282,114.282711 32.7795918,114.280538 32.7685555,114.278364" id="Fill-14" fill="#127844"></path>
                    <path d="M34.9606599,111.840948 L32.7533885,114.278364 C32.7576962,114.279044 32.7620039,114.280404 32.7671732,114.281084 L34.9606599,111.840948" id="Fill-15" fill="#1B5C31"></path>
                    <path d="M6.77663458,50.9239068 C6.75798899,50.9531504 6.73934341,50.9823939 6.7213884,51.0116375 L6.69169358,51.0585632 L6.73589052,51.0871266 L6.68547838,51.1619357 C5.36026064,53.2008234 4.21183066,55.3804882 3.2574529,57.6778073 C3.01782259,58.2531572 2.79062268,58.8339478 2.57723431,59.4242595 C2.36453651,60.0104907 2.16219738,60.6082834 1.97366979,61.2087963 C1.89701571,61.4509057 1.82381452,61.6923351 1.75406622,61.9371648 C1.69882004,62.1241875 1.64633617,62.3105302 1.5938523,62.4975529 C1.54413074,62.6784549 1.4937186,62.8573166 1.44744992,63.0388987 C1.39772836,63.2259214 1.35145968,63.4102238 1.30450043,63.5958863 C1.25754118,63.7801887 1.21058192,63.9672115 1.16707556,64.1542342 C1.10837649,64.4045046 1.05313031,64.654775 0.99788413,64.9043653 C0.886701192,65.4076264 0.787258068,65.914288 0.697483025,66.4257101 C0.603564519,66.935092 0.521385826,67.4492345 0.448875214,67.9647371 C0.337692277,68.7407114 0.247917234,69.5262068 0.177478354,70.3171429 C0.119469865,70.9754629 0.0759634978,71.6399036 0.0462686759,72.309785 C0.0145021223,72.9796664 0,73.6529482 0,74.3316706 C0,74.6934746 0.00345288626,75.0559586 0.0124303905,75.4184427 C0.0214078948,75.7809267 0.0317665536,76.1406904 0.0497215622,76.499774 C0.116707556,77.9374687 0.25137012,79.3465999 0.450256369,80.7332884 C0.514480053,81.1957446 0.586300088,81.6507198 0.665025894,82.1070553 C0.700245334,82.3083597 0.767921905,82.5069439 0.814190581,82.705528 C0.846647712,82.8463051 0.905346778,82.9877623 0.925373519,83.1278593 C0.944019104,83.2400729 1.01169568,83.355687 1.01169568,83.4672205 L1.01169568,83.4760616 C1.01169568,83.6970885 1.06901359,83.9371576 1.11804457,84.1581845 C1.1505017,84.3057624 1.14704882,84.4444993 1.17812479,84.5771154 C1.202295,84.6743672 1.22784636,84.787941 1.25477887,84.8919936 C1.28033023,84.9953662 1.30726274,85.1293425 1.33695756,85.2497171 L1.33695756,85.3088843 C1.35629372,85.4013755 1.37770162,85.2313549 1.40049067,85.7155737 L1.40394355,85.7155737 L1.46126147,85.6217223 L1.45642743,85.6013198 L1.4267326,85.5088286 L42.6383113,100.526413 L42.6493605,100.512131 L42.6493605,100.530494 L42.715656,100.554977 L42.7992158,100.551576 L42.7992158,100.512131 L46.7866089,95.010943 C46.6201798,95.0367861 46.2617702,95.0823517 45.8550202,95.1401587 L45.7921776,95.142879 C45.1672052,95.2292495 44.3523241,95.3333022 43.596142,95.3985901 C43.1348364,95.439395 42.6970104,95.4652382 42.3372196,95.4652382 C37.2304008,95.4652382 32.9785167,93.6568985 29.8543452,90.5305587 C29.7921933,90.4700313 29.7348753,90.409504 29.6789386,90.3462563 C29.6209301,90.2857289 29.562231,90.2279219 29.5062943,90.1680746 C29.276332,89.9266453 29.0539662,89.6756948 28.8378155,89.4172634 C28.4987421,89.0119342 28.1748613,88.5923232 27.8716979,88.1523097 C27.7867569,88.031255 27.7018159,87.9108804 27.6230901,87.7864253 C27.5505795,87.6810125 27.47945,87.5715192 27.4131546,87.4620259 C27.3634331,87.3906172 27.3192361,87.315128 27.2757297,87.2430393 C27.1120629,86.9846079 26.9573736,86.7166553 26.8109713,86.4473426 C26.7260303,86.2970443 26.647995,86.1474262 26.5685786,85.9957677 C26.4898528,85.8400288 26.4118176,85.6822496 26.3324012,85.5237904 C26.1777119,85.2041516 26.0320001,84.8790721 25.8918129,84.5519523 C25.8213741,84.384652 25.7543881,84.2180317 25.6874021,84.0514115 C24.5596894,81.1930242 23.9609589,77.9082252 23.9609589,74.3316706 C23.9609589,72.0969191 24.18954,69.980502 24.6294377,68.0103027 C24.7378583,67.519283 24.8635434,67.0357443 25.0037306,66.5610466 C25.105936,66.210804 25.217119,65.8653221 25.3338265,65.5259608 C25.6874021,64.4908751 26.1107259,63.5047553 26.6010358,62.5784827 C26.6272777,62.5261164 26.647995,62.4717098 26.6797616,62.4227438 L26.6825239,62.4139027 L26.7060035,62.3744579 C26.7702272,62.2534032 26.8379038,62.1350689 26.9048898,62.0180947 C26.9718758,61.8997603 27.0395523,61.7841462 27.1093006,61.6698923 C27.1410672,61.6120853 27.1762866,61.5542783 27.2108155,61.4998717 C27.2467255,61.4427448 27.2840167,61.3849377 27.3192361,61.3271307 C27.5471266,60.9619263 27.7895192,60.604883 28.0401988,60.2607612 C28.1023507,60.177111 28.1631215,60.0934608 28.2273452,60.0104907 C28.306071,59.9037178 28.3882497,59.8003452 28.4697378,59.6969727 C28.5512259,59.5936001 28.6334046,59.4929479 28.7183456,59.3922956 C28.8025961,59.2916434 28.8868465,59.1903111 28.9752404,59.0930593 C29.0684683,58.983566 29.1651491,58.8774731 29.2611393,58.7707001 C29.3398652,58.6822894 29.4213533,58.5986392 29.503532,58.5115886 C29.5946882,58.4170572 29.6844632,58.3245659 29.7783817,58.2334348 C29.8688473,58.1416237 29.9620753,58.0491325 30.0580655,57.9600416 C30.151984,57.8682305 30.2479742,57.7784596 30.3474174,57.6927692 C30.4440982,57.6036783 30.5400884,57.5166278 30.6395315,57.4336577 C30.7272349,57.3588486 30.8149382,57.2840395 30.9026415,57.2126308 C31.2147824,56.9473986 31.542116,56.6998485 31.8749743,56.4645399 C31.979942,56.3863304 32.087672,56.3122014 32.1960927,56.2401127 C32.3038227,56.1653036 32.4150057,56.0932148 32.5261886,56.0245265 C32.636681,55.9524377 32.7478639,55.8830693 32.8618091,55.814381 C32.9757544,55.7456926 33.0869373,55.6790445 33.2029543,55.6123964 C33.5537676,55.4083716 33.91563,55.2186286 34.28647,55.0404469 C34.389366,54.991481 34.4915715,54.9411549 34.5930863,54.8955893 C34.6987446,54.8500238 34.8002595,54.8044583 34.9059178,54.7588927 C34.9963834,54.7187678 35.0896114,54.6813633 35.1835299,54.6432787 C35.2007943,54.6357978 35.2187493,54.6262766 35.2367043,54.6174355 C35.1959603,54.6351177 35.153835,54.6521198 35.113091,54.6698019 L34.9991457,54.7160475 L34.9466619,54.7391703 C34.8914157,54.7616131 34.8354789,54.7854159 34.7836856,54.8112591 L34.6635252,54.8629454 L34.6400456,54.8745068 C31.1995897,56.4121736 28.5194594,58.8359881 26.7060035,62.1887954 L26.6797616,61.9922515 L26.6735464,61.9922515 L26.6597348,62.0146942 L26.5865337,61.9922515 L26.5837713,61.9922515 L6.77663458,50.9239068 Z M18.991565,39.1210729 C15.0207458,41.4829998 11.5257343,44.5719351 8.65983875,48.2729447 C11.5340213,44.595738 15.0235081,41.4972816 18.991565,39.1210729 L18.991565,39.1210729 Z M24.3007229,36.5020747 C23.9388605,36.6435319 23.581832,36.7897496 23.2317094,36.940728 C23.5265858,36.8142326 23.8276775,36.6911376 24.1301504,36.570763 C24.1867777,36.5476402 24.243405,36.5245174 24.3007229,36.5020747 L24.3007229,36.5020747 Z" id="Fill-16" fill="#B7B8B3"></path>
                    <polyline id="Fill-17" fill="#1C73A2" points="42.6383113 100.55778 42.6736277 100.572996 42.6736277 100.512131 42.6383113 100.55778"></polyline>
                    <path d="M42.6493605,100.530494 L42.6493605,100.531174 L42.715656,100.554977 L42.6493605,100.530494 Z M1.4267326,85.5088286 L1.45642743,85.6013198 L1.46195204,85.6217223 L1.46471435,85.6169617 L42.6383113,100.527093 L1.4267326,85.5088286 L1.4267326,85.5088286 Z" id="Fill-18" fill="#738E3C"></path>
                    <polyline id="Fill-19" fill="#145734" points="42.6383113 100.528587 42.6736277 100.539455 42.6383113 100.526413 42.6383113 100.528587"></polyline>
                    <path d="M37.4551776,54.1515789 C37.060076,54.2798289 36.6627672,54.4124263 36.2720802,54.5493711 C36.2102766,54.5711084 36.148473,54.5928457 36.0888766,54.6145829 C36.1506802,54.6124092 36.2146911,54.6015406 36.2809093,54.5776296 C36.6671817,54.4493796 37.060076,54.2906975 37.4551776,54.1515789" id="Fill-20" fill="#B7B8B3"></path>
                    <polyline id="Fill-21" fill="#DA206E" points="6.70534383 51.0204785 6.68547838 51.0683005 6.72520927 51.0204785 6.70534383 51.0204785"></polyline>
                    <path d="M60.9897112,75.3980402 C60.9897112,77.5491415 60.4034111,79.6254338 59.8247074,81.5929128 L59.7963937,81.6126352 L59.7908691,81.6153555 L59.7818916,81.618756 L59.7839633,81.6473194 L59.8150393,81.6527601 L59.8039901,81.618756 L59.7957032,81.6153555 L59.7998466,81.6126352 L59.8260886,81.5929128 C60.4047923,79.6254338 60.9897112,77.5491415 60.9897112,75.3980402 M38.2959615,33.8558732 C34.044768,33.8558732 29.9765774,34.5141932 26.2011915,35.7941087 C25.5582641,36.0096949 24.9263859,36.249764 24.3000324,36.5020747 C24.8904759,36.2708466 25.4919687,36.0539002 26.089318,35.8498754 L26.084484,35.8423945 L26.084484,35.8396742 L26.1507794,35.8287929 C26.1790931,35.8192717 26.2080973,35.8097506 26.236411,35.7995493 L26.1701156,35.8260726 L26.1507794,35.8287929 C26.1300621,35.8355937 26.1093448,35.8430746 26.089318,35.8498754 L37.066734,53.7618916 L37.0694963,53.7618916 L36.994914,53.9244313 L36.9003049,53.9944799 L36.9003049,53.9999205 L36.9389772,54.0060413 C36.7960278,54.0461661 36.686226,54.0924118 36.5405142,54.135257 L36.5474199,54.1406976 C36.5377519,54.1447781 36.5273932,54.1481785 36.5170345,54.1515789 C36.6744862,54.1012528 36.8333189,54.0522869 36.9935328,54.0060413 L37.008035,53.9999205 L37.0957383,53.9767977 C38.6992587,53.5109411 40.4422756,53.246389 42.3082154,53.1947027 C44.4717939,53.25523 46.4717056,53.5979917 48.2913767,54.2046254 L48.3728648,54.2331889 L48.4578058,54.2624324 C48.85765,54.3970888 49.246445,54.5439866 49.6290248,54.7051662 C49.86244,54.8051383 50.0937833,54.909191 50.3209832,55.0180042 C51.6089098,55.6273582 52.7884158,56.3863304 53.8567388,57.2779188 C53.9534196,57.3534079 54.0438852,57.4329776 54.1378037,57.5166278 C54.2020274,57.5744348 54.2690134,57.6322418 54.3332371,57.6927692 C54.4506352,57.7961417 54.5673428,57.9049549 54.6805974,58.0144482 C54.7710631,58.1008187 54.8587664,58.1871892 54.9464697,58.2728796 C55.123948,58.4463007 55.29383,58.6244824 55.4574969,58.8053843 C55.7109387,59.0787776 55.950569,59.3603318 56.1846747,59.6514071 C56.2634005,59.7486589 56.3421263,59.8459108 56.4180898,59.9445227 L56.4705737,60.0132111 L56.5030308,60.0594567 C56.6287159,60.2199562 56.7481857,60.3811358 56.8648933,60.5484361 C56.9726233,60.7007746 57.0775911,60.8585538 57.1832494,61.017013 C57.2384956,61.1006632 57.2971947,61.1829532 57.3496785,61.2700038 C57.4049247,61.3536539 57.4574086,61.4400244 57.510583,61.5257148 C57.6183131,61.6984558 57.7232808,61.8705167 57.8227239,62.0486984 C57.9242388,62.2248398 58.0271348,62.4057417 58.1203627,62.5873238 C58.2287834,62.7913486 58.3337511,62.9980937 58.4387189,63.2082392 C58.5236599,63.3748595 58.6023857,63.5442001 58.6783492,63.7176211 L58.7184026,63.8060319 C58.7681242,63.9073642 58.8150835,64.0080164 58.8530652,64.111389 C58.8965716,64.2120412 58.9435308,64.3126934 58.9835843,64.416066 C59.0630007,64.596968 59.1348207,64.7778699 59.2018067,64.9621723 C60.2708203,67.7233078 60.8619544,70.8782111 60.9462049,74.3316706 C60.9441331,74.5234539 60.9662316,74.7104767 60.9862583,74.9036201 L60.9828055,74.9206222 C60.9883301,74.98455 60.9828055,75.0471176 60.9883301,75.1103652 C60.991783,75.2001362 60.9897112,75.2885469 60.9897112,75.3783178 C60.9897112,75.2885469 61.0808674,75.2001362 61.0781051,75.1103652 L84.5860454,42.5718121 L84.5860454,95.8188811 L84.5860454,35.3642965 L61.4800211,35.3642965 L61.4800211,41.0307449 C60.0063292,40.1187541 58.8661862,39.2978943 57.5230134,38.5640852 L57.510583,38.52124 L57.4194268,38.479755 C57.2322804,38.3940645 57.0223449,38.3144949 56.8559158,38.224724 C56.7392082,38.1641966 56.6197384,38.1111502 56.5002685,38.0533431 C56.2896424,37.94521 56.0734918,37.8636001 55.860794,37.7602275 C55.489954,37.5793256 55.119114,37.4521501 54.7420588,37.2875701 C54.7275567,37.2807693 54.712364,37.2773689 54.6971713,37.2773689 C54.6536649,37.2773689 54.6101586,37.3011718 54.5673428,37.3011718 L54.5611276,37.3011718 L54.5259081,37.2358838 L54.511406,37.1739963 C54.4644468,37.1461129 54.4147252,37.0883059 54.3650036,37.0679034 C54.2634888,37.0216578 54.1612833,36.9441284 54.0576968,36.9012832 L53.7876811,36.7890695 L53.66683,36.7401036 L53.5625529,36.6999787 C53.3381153,36.6074875 53.1095342,36.5183967 52.8850966,36.4293058 C48.3556004,34.6923748 43.5056763,33.8558732 38.2959615,33.8558732" id="Fill-22" fill="#DA206E"></path>
                    <path d="M84.5860454,42.5718121 L61.0781051,75.1103652 C61.0808674,75.2001362 60.9897112,75.2885469 60.9897112,75.3783178 L60.9897112,75.3980402 C60.9897112,77.5491415 60.4047923,79.6261139 59.8260886,81.5929128 L59.7998466,81.6126352 L59.7957032,81.6153555 L59.8039901,81.618756 L59.8150393,81.6527601 L59.9213882,81.6874443 L84.5860454,95.8188811 L84.5860454,42.5718121" id="Fill-23" fill="#262753"></path>
                    <path d="M35.7353011,54.2461104 L35.7318482,54.2461104 L35.6620999,54.3528834 L35.537796,54.4521755 L35.457689,54.5133829 C35.4107298,54.530385 35.3672234,54.5630289 35.3209547,54.580031 C35.2926411,54.5902322 35.2643274,54.6038339 35.2373949,54.6174355 C35.3768915,54.5589484 35.5177693,54.5025016 35.6620999,54.4514954 L35.7318482,54.4229319 C35.8506275,54.3807668 35.9687162,54.3386017 36.0888766,54.2964365 L36.0743745,54.2964365 C36.0578007,54.2964365 36.0412268,54.2957565 36.0239624,54.2943963 C36.006698,54.2937162 35.9894335,54.292356 35.9721691,54.292356 C35.9438554,54.292356 35.9155418,54.2957565 35.8872281,54.3073179 C35.8810129,54.3093581 35.8754883,54.3100382 35.8699637,54.3100382 C35.823695,54.3100382 35.7815698,54.2461104 35.7353011,54.2461104 M8.65983875,48.2729447 C8.64050259,48.2981078 8.62047585,48.3232709 8.60113968,48.3484339 C8.36772457,48.6476703 8.13776235,48.9516672 7.91263416,49.2590645 C7.8021418,49.411403 7.69095886,49.5651017 7.57977593,49.7208406 C7.43061124,49.9391472 7.27868424,50.1513329 7.12675725,50.3730399 C6.98380776,50.5852257 6.83809596,50.78585 6.69790877,51.007557 L6.72069782,50.9851142 L6.73589052,50.9558707 L6.77387227,50.9218666 L6.77663458,50.9239068 C6.89057983,50.744365 7.00866854,50.5689037 7.12675725,50.390722 C7.27868424,50.1703753 7.43061124,49.9479882 7.57977593,49.7296817 C7.69095886,49.5712225 7.8021418,49.4161636 7.91263416,49.2611048 C8.13776235,48.9530274 8.36772457,48.6490304 8.60113968,48.349114 C8.62116642,48.3239509 8.64050259,48.2981078 8.65983875,48.2729447 M23.2317094,36.9414081 L23.2317094,36.9414081 C23.0500875,37.0216578 22.8684657,37.0991872 22.6909874,37.1828374 C22.4223528,37.303212 22.1564806,37.4303875 21.887846,37.5602832 C21.6219738,37.6860985 21.3561015,37.8153142 21.0936822,37.9506507 C20.8423121,38.0805465 20.5916325,38.2124825 20.3430247,38.3505393 C20.0951075,38.4851956 19.8464997,38.6232524 19.6013447,38.7619892 L19.5550761,38.7905527 C19.4556329,38.8476797 19.3568804,38.9048066 19.2539844,38.9653339 C19.1669716,39.01498 19.0785778,39.0659862 18.991565,39.1210729 C19.0785778,39.0659862 19.1669716,39.01498 19.2539844,38.9653339 C19.3568804,38.9048066 19.4556329,38.8483597 19.5550761,38.7905527 L19.6013447,38.7619892 C19.8464997,38.6232524 20.0951075,38.4851956 20.3430247,38.3505393 C20.5916325,38.2158829 20.8423121,38.0832668 21.0936822,37.9540511 C21.3561015,37.821435 21.6219738,37.6894989 21.887846,37.5602832 C22.1564806,37.4303875 22.4223528,37.303212 22.6909874,37.1828374 C22.8684657,37.0991872 23.0500875,37.0216578 23.2317094,36.9414081" id="Fill-24" fill="#DA206E"></path>
                    <path d="M26.089318,35.8498754 C25.4919687,36.0539002 24.8904759,36.2708466 24.3007229,36.5020747 C24.243405,36.5245174 24.1867777,36.5476402 24.1301504,36.570763 C23.8276775,36.6911376 23.5265858,36.8142326 23.2317094,36.940728 C23.0500875,37.0216578 22.8684657,37.0991872 22.6909874,37.1828374 C22.4223528,37.303212 22.1564806,37.4303875 21.887846,37.5596032 C21.6219738,37.6888189 21.3561015,37.821435 21.0936822,37.9540511 C20.8423121,38.0832668 20.5916325,38.2152028 20.3430247,38.3505393 C20.0951075,38.4851956 19.8464997,38.6232524 19.6013447,38.7619892 L19.5550761,38.7905527 C19.4556329,38.8483597 19.3568804,38.9054867 19.2539844,38.966014 C19.1669716,39.0142999 19.0785778,39.0666663 18.991565,39.1210729 C15.0235081,41.4972816 11.5340213,44.595738 8.65983875,48.2729447 C8.64050259,48.2987879 8.62116642,48.3239509 8.60113968,48.349114 C8.36772457,48.6483503 8.13776235,48.9530274 7.91263416,49.2604247 C7.8021418,49.4161636 7.69095886,49.5712225 7.57977593,49.7296817 C7.43061124,49.9479882 7.27868424,50.1696952 7.12675725,50.390722 C7.00866854,50.5689037 6.89057983,50.744365 6.77663458,50.9239068 L26.5837713,61.9922515 L26.5865337,61.9922515 L26.6597348,62.0146942 L26.6735464,61.9922515 L26.6797616,61.9922515 L26.7060035,62.1887954 C28.5194594,58.8359881 31.1995897,56.4128537 34.6400456,54.8745068 L34.6635252,54.8629454 L34.7836856,54.8112591 C34.8354789,54.7854159 34.8914157,54.7616131 34.9466619,54.7391703 L34.9991457,54.7160475 L35.113091,54.6698019 C35.153835,54.6521198 35.1959603,54.6351177 35.2373949,54.6174355 C35.2643274,54.604514 35.2926411,54.5909123 35.3209547,54.580031 C35.3672234,54.5630289 35.4107298,54.530385 35.457689,54.5133829 L35.537796,54.4521755 L35.6620999,54.3528834 L35.7318482,54.2454303 L35.7353011,54.2454303 C35.7815698,54.2454303 35.823695,54.3107183 35.8699637,54.3107183 C35.8754883,54.3107183 35.8810129,54.3093581 35.8872281,54.3073179 C35.9155418,54.2950764 35.9438554,54.291676 35.9721691,54.291676 C35.9894335,54.291676 36.006698,54.2930361 36.0239624,54.2943963 C36.0412268,54.2957565 36.0578007,54.2971166 36.0743745,54.2971166 C36.0792086,54.2971166 36.0840426,54.2964365 36.0888766,54.2964365 C36.1075222,54.2896357 36.1268584,54.2828349 36.1461946,54.2760341 C36.2684267,54.2331889 36.3920401,54.1917038 36.5170345,54.1515789 C36.5273932,54.1481785 36.5377519,54.1447781 36.5481105,54.1406976 L36.5405142,54.1345769 C36.686226,54.0917317 36.7960278,54.0461661 36.9389772,54.0053612 L36.9003049,53.9999205 L36.9003049,53.9944799 L36.994914,53.9244313 L37.0701869,53.7618916 L37.066734,53.7618916 L26.089318,35.8498754 Z M26.1507794,35.8287929 L26.084484,35.8396742 L26.084484,35.8423945 L26.089318,35.8498754 C26.1093448,35.8430746 26.1300621,35.8355937 26.1507794,35.8287929 L26.1507794,35.8287929 Z M26.236411,35.8002294 C26.2074067,35.8090705 26.1790931,35.8192717 26.1507794,35.8287929 L26.1701156,35.8260726 L26.236411,35.8002294 L26.236411,35.8002294 Z" id="Fill-25" fill="#A02455"></path>
                    <path d="M84.5867359,95.8188811 L84.5867359,114.279724 L80.2637223,114.279724 L71.1439591,111.152024 L42.6320961,101.207856 L42.6293338,101.207856 L42.3752014,101.024234 L42.5216038,100.775323 L42.6265715,100.605983 L42.7066785,100.703915 L42.7992158,100.733158 L42.7992158,100.512131 L46.7859183,94.9721783 C46.868097,94.9578965 46.837021,94.9143713 46.837021,94.9143713 L46.8694781,94.9143713 C51.2235677,93.9459336 54.578392,91.2568869 56.9083997,87.7429 L56.9146149,87.7449402 L56.9643364,87.6476884 L56.9670987,87.6497287 L56.9843632,87.6463283 L57.0402999,87.636127 C58.208066,85.8645118 59.1631344,83.8637087 59.8026089,81.7126074 L59.9213882,81.6874443 L84.5867359,95.8188811" id="Fill-26" fill="#3A96C6"></path>
                    <polyline id="Fill-27" fill="#9DC04B" points="42.6749119 100.42168 1.46954839 85.3959349 1.38391681 85.6230824 42.5899709 100.648828"></polyline>
                </g>
            </g>
        </g>
    </g>
</svg>