<?xml version="1.0" encoding="UTF-8"?><svg version="1.1" viewBox="0 0 116 111" xmlns="http://www.w3.org/2000/svg" xmlns:xlink="http://www.w3.org/1999/xlink"><!--Generated by IJSVG (https://github.com/iconjar/IJSVG)--><defs><mask id="a" maskContentUnits="userSpaceOnUse" maskUnits="objectBoundingBox"><path fill="#FFF" d="M0.15261,0.37484h0.072295l-0.015492,0.010106h0.015492l-0.072295,0.141484l-0.082623,-0.080848Z"></path></mask><mask id="b" maskContentUnits="userSpaceOnUse" maskUnits="objectBoundingBox"><path fill="#FFF" d="M0.106559,0.37484v0.010106h-0.015491Z"></path></mask><mask id="c" maskContentUnits="userSpaceOnUse" maskUnits="objectBoundingBox"><path fill="#FFF" d="M0.347124,9.03404l-0.0998073,0.00719629l-0.0521053,-0.00287851l-0.0337583,-0.00071963c0.0110082,0.00071963 0.0227502,0.00215888 0.0337583,0.00287851l0.0521053,0.00359815c0.126961,0.0107944 0.259059,0.0230281 0.390423,0.0266263c0.474819,0.0316637 0.951105,0.0546918 1.42592,0.0669255l0.0799926,0.00431777c0.303825,0.00863555 0.609118,0.0151122 0.912943,0.0187103c-0.0887991,-0.0129533 -0.177598,-0.0237478 -0.266397,-0.0295048l-0.0609118,-0.0669255h-0.0396294c-0.167324,0 -0.336116,0.0316637 -0.501238,0.0316637c-0.0146776,0 -0.0293551,0 -0.0447665,-0.00071962l-0.0799926,0.01943c-0.479956,-0.0230281 -0.954774,-0.0554114 -1.42592,-0.0554114c-0.0990734,-0.00647666 -0.198881,-0.0172711 -0.290615,-0.025187Zm27.1146,-4.77906c-0.154848,0.0734021 -0.311898,0.143926 -0.466746,0.211571l-0.0968718,0.0467759c0.190074,-0.0841966 0.377213,-0.169113 0.563618,-0.258347Zm1.83029,-0.886583l-0.0095404,0.00215888l-0.023484,0.0122337c-0.0726539,0.0359814 -0.146042,0.0726825 -0.218695,0.110823c0.0858636,-0.0402992 0.168058,-0.0813181 0.25172,-0.125215Zm5.76461,-3.36355c-0.284011,0.168393 -0.529125,0.336786 -0.780111,0.500862l-0.146042,0.0352618l-0.0190808,0.0201496c-0.175397,0.109384 -0.344922,0.226683 -0.520319,0.339665c-0.175397,0.113701 -0.348592,0.227403 -0.523988,0.336786c-0.28768,0.180627 -0.573158,0.352618 -0.860104,0.524609c-0.341253,0.202935 -0.686909,0.400833 -1.0355,0.595853c1.32171,-0.724666 2.6038,-1.5069 3.88515,-2.35319Z"></path></mask><mask id="d" maskContentUnits="userSpaceOnUse" maskUnits="objectBoundingBox"><path fill="#FFF" d="M13.1672,0.0122337l0.34639,0.249711h0.0036694l38.9792,13.5312l12.4678,4.2566h-25.6798v-8.83848c0,0.148244 -0.336116,0.292169 -0.55848,0.437534c-0.284011,0.168393 -0.529125,0.336786 -0.780111,0.500862l-0.146042,0.0352618l-0.0190808,0.0201496c-0.175397,0.109384 -0.344922,0.226683 -0.520319,0.339665c-0.175397,0.113701 -0.348592,0.227403 -0.523988,0.336786c-0.28768,0.180627 -0.573158,0.352618 -0.860838,0.524609c-0.340519,0.202935 -0.686175,0.400833 -1.03477,0.595853c-0.402898,0.222365 -0.8102,0.438254 -1.22264,0.647666c-0.14384,0.0791592 -0.265664,0.154001 -0.40877,0.228122v0.0035982l-0.244381,0.128813c-0.0014677,0.0007197 -0.0029355,0.0014393 -0.0036694,0.0021589l-0.0095404,0.0021589l-0.0234841,0.0122337c-0.0726538,0.0359814 -0.146042,0.0726825 -0.218695,0.110823c-0.0117421,0.0057571 -0.0249519,0.0122337 -0.0374278,0.0179908c-0.0829281,0.0431777 -0.161453,0.0820377 -0.249518,0.124496l-0.110082,0.0554114c-0.0689844,0.0352618 -0.140171,0.0741218 -0.207687,0.105785c-0.255389,0.128814 -0.514448,0.249711 -0.779378,0.36845l-0.0675167,0.0302244l-0.0513714,0.0230281c-0.0242179,0.0122337 -0.0499036,0.0244674 -0.0755893,0.0359815c-0.154848,0.0734021 -0.311898,0.143926 -0.466746,0.211571l-0.0968718,0.0467758l-0.0910007,0.03886l-0.183469,0.0813181c-0.220163,0.0942713 -0.43152,0.192861 -0.650215,0.282814l-0.0528391,0.01943l-0.0513715,0.0230281l-0.168792,0.0662059l-0.0396294,0.0158318c-0.183469,0.0827573 -0.367672,0.152561 -0.555545,0.231721l-0.159251,0.0626077c-6.32235,2.50719 -13.074,3.83418 -20.0642,3.83418c-0.606916,0 -1.21603,0 -1.82515,-0.0086356c-0.0873314,-0.0129533 -0.177598,-0.0237477 -0.266397,-0.0295048l-0.0609118,-0.0669255h-0.0396294c-0.167324,0 -0.336116,0.0316637 -0.500504,0.0316637h-0.0455004l-0.0799926,0.0187104c-0.479956,-0.0230282 -0.954774,-0.0554115 -1.42592,-0.0554115c-0.0990734,-0.0064766 -0.198881,-0.0172711 -0.291349,-0.025187l-0.0990734,0.0071963l-0.0521053,-0.0028785l-0.0337583,-0.0007196c-0.248784,-0.01943 -0.492432,-0.0417385 -0.737547,-0.0676451l-0.0432988,-0.0043178c-0.176131,-0.0187104 -0.351527,-0.03886 -0.530593,-0.0626077c-0.84616,-0.112262 -1.67618,-0.269141 -2.49371,-0.496544l2.40492,-3.32037l10.7366,-14.7178Z"></path></mask><mask id="e" maskContentUnits="userSpaceOnUse" maskUnits="objectBoundingBox"><path fill="#FFF" d="M0.239904,0.0593666l56.2891,20.2878l-0.0080726,0.0100748l0.0234841,0.0086355v-0.0129533l0.0902668,0.0323833l0.114485,-0.0050374v0.248272l-0.126227,-0.0554115l-0.0587102,-0.148963l-0.168792,0.200776l-0.212824,0.277057l-10.7484,14.8395l-2.41886,3.31677l-0.0095404,0.0129534l-0.102009,-0.0100748h-0.0198147c-2.26328,0 -4.47518,-0.759928 -6.62691,-1.34571l-0.0528392,-0.0230281c-0.518117,-0.148963 -1.0333,-0.313039 -1.54334,-0.478553c-0.28401,-0.0885144 -0.563618,-0.184945 -0.843225,-0.274898c-0.279607,-0.101468 -0.554811,-0.200777 -0.833684,-0.297926c-15.9648,-5.77646 -28.1053,-19.2839 -32.7162,-36.4542l-0.0322906,-0.120898l0.00440326,-0.00647666Z"></path></mask><mask id="f" maskContentUnits="userSpaceOnUse" maskUnits="objectBoundingBox"><path fill="#FFF" d="M0.02375,0.232438l0.103279,-0.126325l0.191066,0.070742v0.161696Z"></path></mask><mask id="g" maskContentUnits="userSpaceOnUse" maskUnits="objectBoundingBox"><path fill="#FFF" d="M0.122987,0.107491c0.0619672,0.010106 0.118771,0.020212 0.180738,0.0454769l-0.0981148,0.141484l-0.201393,-0.025265l0.118771,-0.161696Z"></path></mask><mask id="h" maskContentUnits="userSpaceOnUse" maskUnits="objectBoundingBox"><path fill="#FFF" d="M2.4306,0.0487535l-2.40418,3.32037c-0.00513714,-0.00071963 -0.0102743,-0.00287852 -0.0146775,-0.00359815l2.41886,-3.31677Z"></path></mask><mask id="i" maskContentUnits="userSpaceOnUse" maskUnits="objectBoundingBox"><path fill="#FFF" d="M9.26447,19.6365c-0.0256857,0.0395796 -0.0506375,0.0798788 -0.0755893,0.119458l-0.0403633,0.0640469l0.0601779,0.03886l-0.0689845,0.101468c-1.81121,2.77417 -3.38171,5.74048 -4.68654,8.86583c-0.327309,0.782956 -0.637739,1.57311 -0.929822,2.37693c-0.290615,0.797349 -0.567287,1.61053 -0.824878,2.42803c-0.104944,0.32887 -0.204752,0.657741 -0.300156,0.990929c-0.0755893,0.254749 -0.147509,0.508058 -0.219429,0.762807c-0.0675167,0.246113 -0.136501,0.489348 -0.200348,0.73618c-0.0675167,0.254749 -0.13063,0.505179 -0.195211,0.757769c-0.0638473,0.251151 -0.128429,0.50518 -0.187873,0.759928c-0.0799926,0.340384 -0.155582,0.680769 -0.231171,1.02043c-0.151913,0.685087 -0.28768,1.37449 -0.410971,2.07037c-0.128429,0.693002 -0.240712,1.39248 -0.339785,2.09412c-0.151913,1.0557 -0.27447,2.12434 -0.370608,3.20091c-0.0792587,0.895938 -0.138703,1.79979 -0.1798,2.71084c-0.0432988,0.91177 -0.0631134,1.82786 -0.0631134,2.75186c0,0.492226 0.00440326,0.985172 0.0168792,1.47812c0.0124759,0.493665 0.0264196,0.983013 0.0513714,1.47164c0.0910008,1.95595 0.275204,3.87376 0.547472,5.76063c0.0873314,0.628956 0.185671,1.24784 0.293551,1.86888c0.047702,0.274179 0.140904,0.544039 0.204018,0.81462c0.0440326,0.191421 0.124759,0.383562 0.151913,0.574264c0.0256857,0.153281 0.118154,0.31016 0.118154,0.462002v0.0122337c0,0.300805 0.077791,0.627516 0.145308,0.928321c0.0440326,0.200776 0.0396294,0.389319 0.0821942,0.569946c0.0330245,0.131692 0.0675167,0.286412 0.104944,0.428179c0.0344922,0.140328 0.0711861,0.323113 0.112283,0.486469v0.0805984c0.0264196,0.125935 0.0557747,-0.105066 0.0865975,0.553395h0.00440326l0.0785249,-0.127374l-0.0066049,-0.0280655l-0.0403632,-0.125935l56.3412,20.4346l0.0154115,-0.01943v0.0244674l0.0902668,0.0338226l0.114485,-0.0050374v-0.0532526l5.45124,-7.48558c-0.227502,0.0352619 -0.717732,0.0971499 -1.27328,0.17559l-0.0858637,0.0035981c-0.854967,0.118019 -1.96899,0.259066 -3.00229,0.3483c-0.631134,0.0554114 -1.22924,0.0906732 -1.72168,0.0906732c-6.98137,0 -12.7944,-2.46041 -17.0656,-6.71486c-0.0851298,-0.0820377 -0.162921,-0.164075 -0.239244,-0.250431c-0.0799926,-0.0827573 -0.159985,-0.161197 -0.236308,-0.242515c-0.314099,-0.328151 -0.618658,-0.669974 -0.913677,-1.02187c-0.46381,-0.551236 -0.906338,-1.1219 -1.32098,-1.72063c-0.115952,-0.164795 -0.232639,-0.32887 -0.339785,-0.497983c-0.0990734,-0.143926 -0.196679,-0.292889 -0.286946,-0.441852c-0.0682506,-0.0971499 -0.128428,-0.199337 -0.187873,-0.297926c-0.223833,-0.351179 -0.435189,-0.716031 -0.635538,-1.08232c-0.115953,-0.204375 -0.223099,-0.40803 -0.331713,-0.614563c-0.107146,-0.211571 -0.214292,-0.42674 -0.322906,-0.641909c-0.211357,-0.435376 -0.410237,-0.877228 -0.601779,-1.32268c-0.0968718,-0.227403 -0.187873,-0.454086 -0.279607,-0.680769c-1.54188,-3.88959 -2.36015,-8.35921 -2.36015,-13.2253c0,-3.04115 0.311898,-5.92111 0.913677,-8.60172c0.148243,-0.667816 0.31997,-1.32628 0.511512,-1.97178c0.14017,-0.476394 0.292083,-0.947032 0.451334,-1.40831c0.483625,-1.40903 1.06192,-2.75042 1.73268,-4.01049c0.03596,-0.0712432 0.0638473,-0.145365 0.107146,-0.21229l0.0044032,-0.0122337l0.0315568,-0.0532525c0.0880652,-0.164795 0.180534,-0.325992 0.272268,-0.48503c0.0917346,-0.161197 0.184203,-0.318076 0.279607,-0.473516c0.0432987,-0.0791592 0.0910008,-0.157599 0.138703,-0.231721c0.0491697,-0.07772 0.0998073,-0.15616 0.148243,-0.235319c0.311164,-0.496544 0.642876,-0.982293 0.985597,-1.45077c0.0851297,-0.113701 0.168058,-0.227403 0.255389,-0.340384c0.10788,-0.145365 0.220163,-0.285693 0.331713,-0.42674c0.111549,-0.140328 0.223833,-0.277777 0.339785,-0.414506c0.115219,-0.13673 0.230438,-0.274898 0.351527,-0.40731c0.126961,-0.148963 0.259059,-0.292889 0.390423,-0.438254c0.10788,-0.120178 0.219429,-0.234599 0.331713,-0.352618c0.124759,-0.128814 0.247317,-0.254749 0.375745,-0.378525c0.123291,-0.125215 0.250986,-0.25115 0.38235,-0.372048c0.128428,-0.125215 0.259792,-0.246833 0.39556,-0.363413c0.132098,-0.121617 0.263462,-0.239636 0.399229,-0.352618c0.119622,-0.102187 0.239978,-0.203655 0.3596,-0.300805c0.427116,-0.361254 0.874048,-0.69804 1.32905,-1.01827c0.14384,-0.106505 0.291349,-0.207253 0.439592,-0.305123c0.146775,-0.102187 0.298688,-0.200057 0.451335,-0.293609c0.150445,-0.0978695 0.303091,-0.192141 0.458673,-0.285693c0.155582,-0.0935517 0.307494,-0.184225 0.466012,-0.274898c0.479956,-0.277777 0.974589,-0.535404 1.4817,-0.777919c0.140904,-0.0669255 0.280341,-0.13529 0.419044,-0.197178c0.144574,-0.0618881 0.283276,-0.124496 0.42785,-0.186384c0.123291,-0.0546918 0.250986,-0.105066 0.379415,-0.156879c0.0234841,-0.0107944 0.0484359,-0.0237477 0.0726539,-0.0352618c-0.0557747,0.0237478 -0.113017,0.0467759 -0.168792,0.0712433l-0.156316,0.0626077l-0.0711861,0.0316637c-0.0755893,0.0302244 -0.151913,0.0626077 -0.223099,0.0978695l-0.164388,0.0705236l-0.0322906,0.0158318c-4.70342,2.09196 -8.36693,5.39002 -10.8467,9.95247l-0.03596,-0.267702h-0.0080727l-0.0190808,0.0309441l-0.0998073,-0.0309441h-0.0036694l-27.0793,-15.0604Zm16.6994,-16.06c-5.42849,3.21386 -10.2068,7.41721 -14.1249,12.4532c3.92991,-5.00358 8.70011,-9.21988 14.1249,-12.4532Zm7.25878,-3.5636c-0.495367,0.192861 -0.983395,0.391478 -1.46188,0.597292c0.402898,-0.172711 0.814604,-0.339665 1.22851,-0.50374c0.0770571,-0.0316637 0.154848,-0.0626077 0.233373,-0.0935518Z"></path></mask><mask id="j" maskContentUnits="userSpaceOnUse" maskUnits="objectBoundingBox"><path fill="#FFF" d="M0.03921,0.31007l0.191065,-0.242544v0.323392Z"></path></mask><mask id="k" maskContentUnits="userSpaceOnUse" maskUnits="objectBoundingBox"><path fill="#FFF" d="M56.5444,20.6402v0.0014393l0.0902668,0.0323833l-0.0902668,-0.0338226Zm-56.3566,-20.4396l56.3412,20.4353l-56.2891,-20.2878l-0.00440326,0.00647666l-0.00733877,-0.0280655l-0.0403632,-0.125935Z"></path></mask><mask id="l" maskContentUnits="userSpaceOnUse" maskUnits="objectBoundingBox"><path fill="#FFF" d="M0.03921,0.114841v-0.010106l0.191065,0.065689Z"></path></mask><mask id="m" maskContentUnits="userSpaceOnUse" maskUnits="objectBoundingBox"><path fill="#FFF" d="M1.51708,0.280655c-0.390094,0.331777 -0.777347,0.71095 -1.15892,1.0179c-0.0653313,0.0564246 -0.128769,0.0835084 -0.189366,0.0880224c0.0587035,-0.0519106 0.119301,-0.103821 0.180845,-0.155732c0.38536,-0.327263 0.777347,-0.64324 1.16744,-0.95019Z"></path></mask><mask id="n" maskContentUnits="userSpaceOnUse" maskUnits="objectBoundingBox"><path fill="#FFF" d="M0.181381,0.094741h0.108443l-0.216885,0.25265Z"></path></mask><mask id="o" maskContentUnits="userSpaceOnUse" maskUnits="objectBoundingBox"><path fill="#FFF" d="M50.3564,56.5362c0,2.92673 -0.799926,5.75199 -1.59105,8.42901l-0.0359599,0.0266262l-0.0051372,0.0043178l0.0110082,0.0043178l0.0154114,0.0460562l-0.0425649,-0.0071963l-0.0029355,-0.0388599l0.0124759,-0.0043178l0.0073388,-0.0043178l0.0388955,-0.0266262c0.79112,-2.67702 1.59251,-5.50228 1.59251,-8.42901Zm-31.0254,-56.5254c7.12228,8.4828e-16 13.7529,1.13773 19.9453,3.50171c0.306761,0.120898 0.619392,0.242515 0.926153,0.36773l0.142372,0.0546918l0.165122,0.0669255l0.36914,0.152561c0.141638,0.0582899 0.281809,0.164075 0.420512,0.226683c0.0675167,0.0280655 0.135767,0.106505 0.200349,0.144645l0.0198146,0.0841966l0.0477021,0.0885143h0.0088065c0.0587102,0 0.118154,-0.0323833 0.177598,-0.0323833c0.0205485,0 0.0410971,0.0050374 0.0609118,0.013673c0.515916,0.224524 1.02302,0.397235 1.5294,0.643348c0.291349,0.141047 0.586368,0.25187 0.874781,0.398674c0.162921,0.0791592 0.326575,0.151122 0.485827,0.23316c0.227502,0.122337 0.514448,0.231001 0.770571,0.347581l0.124759,0.0561311l0.0168791,0.0582899c1.83616,0.998845 3.39492,2.11571 5.40941,3.35635v-7.7101h31.589v82.2593v-72.4522l-32.1379,44.2744c0.0036694,0.122337 -0.12109,0.242515 -0.12109,0.364132c0,-0.121617 0.0029355,-0.241795 -0.0022016,-0.364132c-0.0073388,-0.0863554 0,-0.171272 -0.0073388,-0.258347l0.0051372,-0.0230281c-0.0278874,-0.262665 -0.0579763,-0.517413 -0.0550408,-0.777919c-0.115219,-4.69918 -0.923217,-8.99248 -2.3851,-12.7489c-0.0917346,-0.251151 -0.18934,-0.497264 -0.297954,-0.743377c-0.0550408,-0.140328 -0.118888,-0.277777 -0.178332,-0.414506c-0.0521053,-0.140328 -0.116686,-0.277777 -0.184203,-0.415226l-0.0550408,-0.120898c-0.103477,-0.235319 -0.211357,-0.46632 -0.327309,-0.693003c-0.14384,-0.285693 -0.286946,-0.567068 -0.435189,-0.844844c-0.127695,-0.246833 -0.268599,-0.492946 -0.407302,-0.732582c-0.135767,-0.242515 -0.279607,-0.476394 -0.426383,-0.711713c-0.0726539,-0.11658 -0.144574,-0.233879 -0.220163,-0.3483c-0.07192,-0.118019 -0.151913,-0.230281 -0.227502,-0.343983c-0.144574,-0.215169 -0.28768,-0.430338 -0.435189,-0.637591c-0.159985,-0.227403 -0.322906,-0.446889 -0.494633,-0.664937l-0.0447665,-0.0633274l-0.0711861,-0.0935517c-0.10421,-0.133851 -0.21209,-0.266263 -0.319236,-0.398674c-0.319971,-0.395796 -0.648014,-0.779358 -0.994404,-1.15141c-0.223833,-0.246113 -0.455738,-0.488628 -0.698651,-0.724666c-0.119622,-0.11658 -0.239978,-0.233879 -0.363269,-0.351179c-0.154848,-0.148963 -0.314833,-0.297207 -0.474819,-0.437534c-0.0880652,-0.0827573 -0.1798,-0.161197 -0.267131,-0.239636c-0.128428,-0.114421 -0.252454,-0.222365 -0.384552,-0.325272c-1.46042,-1.21329 -3.07274,-2.24596 -4.83405,-3.07497c-0.31043,-0.148244 -0.626731,-0.289291 -0.945968,-0.425301c-0.52252,-0.219487 -1.05458,-0.419544 -1.60132,-0.602329l-0.115953,-0.0402993l-0.111549,-0.0388599c-2.48711,-0.825414 -5.22154,-1.29173 -8.17979,-1.37377c-2.55096,0.069804 -4.93386,0.430338 -7.12595,1.06361l-0.119622,0.0316637l-0.0198146,0.0086356c-0.219429,0.0626077 -0.436657,0.129533 -0.651683,0.197898c0.0139437,-0.0050374 0.0286212,-0.0093552 0.041831,-0.0151122l-0.0095404,-0.0071963c0.198881,-0.0582899 0.349326,-0.120898 0.544537,-0.175589l-0.0528392,-0.0086356v-0.0071963l0.129162,-0.0957106l0.102009,-0.220926h-0.0036693l-15.0078,-24.3724c0.0278873,-0.00935517 0.0557747,-0.01943 0.0843959,-0.0287852l0.0264196,-0.00359815l0.0902669,-0.0359814c-0.0381616,0.013673 -0.077791,0.0266263 -0.116686,0.0395796l-0.0910008,0.0151122v0.00359815l0.00660489,0.0100748c-0.816071,0.277777 -1.63875,0.572825 -2.44601,0.887302c0.856435,-0.343263 1.72021,-0.669974 2.59939,-0.962863c5.16136,-1.7415 10.7234,-2.63744 16.535,-2.63744Z"></path></mask><mask id="p" maskContentUnits="userSpaceOnUse" maskUnits="objectBoundingBox"><path fill="#FFF" d="M34.1796,0.0674638v72.4522l-33.7195,-19.2285l-0.145308,-0.0474955l-0.0154114,-0.0460562l-0.0110082,-0.0043178l0.00513714,-0.0043178l0.03596,-0.0266263c0.79112,-2.6763 1.59105,-5.50228 1.59105,-8.42901v-0.0273459c0,-0.121617 0.124759,-0.241795 0.12109,-0.364132l32.1379,-44.2744Z"></path></mask><mask id="q" maskContentUnits="userSpaceOnUse" maskUnits="objectBoundingBox"><path fill="#FFF" d="M39.7533,23.5797h-0.0051372l-0.095404,0.145365l-0.169526,0.134571l-0.109348,0.083477c-0.0645812,0.0230281 -0.124025,0.0676451 -0.187139,0.0906732c-0.0388955,0.013673 -0.077791,0.0323833 -0.114485,0.0510937c0.190808,-0.0798788 0.383818,-0.156879 0.580497,-0.225963l0.095404,-0.0388599c0.162921,-0.0575704 0.324374,-0.114421 0.488762,-0.171991h-0.0205486c-0.0220163,0 -0.0447665,-0.0007197 -0.0682505,-0.0028786c-0.024218,-0.0007196 -0.047702,-0.0028785 -0.0711861,-0.0028785c-0.0388955,0 -0.0770571,0.0050374 -0.115953,0.0201496c-0.0088065,0.0028785 -0.0161453,0.0043178 -0.0234841,0.0043178c-0.0631134,0 -0.12109,-0.0870751 -0.184203,-0.0870751Zm-37.016,-8.12749c-0.0264196,0.0338225 -0.053573,0.0683647 -0.0799926,0.102187c-0.319237,0.40731 -0.633336,0.821097 -0.941564,1.2392c-0.150445,0.207253 -0.303091,0.416665 -0.455004,0.628236c-0.204018,0.297207 -0.411705,0.585778 -0.619392,0.887302c-0.195211,0.289291 -0.394092,0.56203 -0.586368,0.863555l0.0315567,-0.0302244l0.0205486,-0.0402992l0.0521053,-0.0460563l0.00366939,0.0028785c0.155582,-0.243954 0.317035,-0.482871 0.478488,-0.725386c0.207687,-0.300085 0.415374,-0.602329 0.619392,-0.899536c0.151913,-0.215889 0.304559,-0.42674 0.455004,-0.637591c0.308228,-0.418824 0.622328,-0.832611 0.941564,-1.24064c0.0271535,-0.0345421 0.053573,-0.069804 0.0799926,-0.103626Zm19.9218,-15.4188c-0.24805,0.109384 -0.496835,0.214449 -0.739014,0.328151c-0.367673,0.164075 -0.730942,0.336786 -1.09788,0.513815c-0.364003,0.175589 -0.727272,0.355497 -1.08614,0.536123c-0.343454,0.175589 -0.686175,0.356216 -1.02596,0.539002c-0.339051,0.183505 -0.678836,0.371328 -1.01422,0.559871l-0.0631135,0.03886c-0.135767,0.0791592 -0.270801,0.15544 -0.411705,0.238197c-0.118888,0.0676451 -0.239978,0.136729 -0.358866,0.211571c0.118888,-0.0748414 0.239978,-0.143926 0.358866,-0.211571c0.140905,-0.0827573 0.275938,-0.160477 0.411705,-0.238197l0.0631135,-0.03886c0.335382,-0.188543 0.675167,-0.376366 1.01422,-0.559871c0.339785,-0.187823 0.682506,-0.367011 1.02596,-0.544039c0.358866,-0.184225 0.722135,-0.359814 1.08614,-0.531086c0.366938,-0.177029 0.730208,-0.34974 1.09788,-0.513815c0.242179,-0.113701 0.490964,-0.218767 0.739014,-0.328151Z"></path></mask><mask id="r" maskContentUnits="userSpaceOnUse" maskUnits="objectBoundingBox"><path fill="#FFF" d="M26.5655,0.276156c-0.816071,0.277777 -1.63875,0.572825 -2.44454,0.887302c-0.0785249,0.030944 -0.156316,0.0618881 -0.233373,0.0935518c-0.413907,0.164075 -0.825612,0.331029 -1.22851,0.50374c-0.24805,0.110103 -0.496835,0.215169 -0.739014,0.32887c-0.367673,0.164075 -0.730942,0.336786 -1.09788,0.513095c-0.364003,0.175589 -0.727272,0.356216 -1.08614,0.536843c-0.343454,0.175589 -0.686175,0.354777 -1.02596,0.539002c-0.339051,0.183505 -0.678836,0.371328 -1.01422,0.559871l-0.0631135,0.03886c-0.135767,0.0791592 -0.270801,0.156879 -0.411705,0.238917c-0.118888,0.0654862 -0.239978,0.136729 -0.358866,0.210851c-5.42482,3.23329 -10.195,7.4496 -14.1249,12.4532c-0.0264196,0.0345422 -0.0528392,0.0690843 -0.0799926,0.103627c-0.319237,0.40659 -0.633336,0.821816 -0.941564,1.23992c-0.150445,0.211571 -0.303091,0.422422 -0.455004,0.638311c-0.204018,0.297207 -0.411705,0.598731 -0.619392,0.899536c-0.161453,0.242515 -0.322906,0.481432 -0.478488,0.725386l27.0793,15.0604h0.0036694l0.0998073,0.030944l0.0190808,-0.030944h0.0080727l0.03596,0.267702c2.47977,-4.56245 6.14329,-7.85907 10.8467,-9.95247l0.0322906,-0.0158318l0.164389,-0.0705237c0.071186,-0.0352618 0.147509,-0.0676451 0.223099,-0.0978695l0.0711861,-0.0316637l0.156316,-0.0626077c0.0557747,-0.0244674 0.113017,-0.0474955 0.169526,-0.0712432c0.0366938,-0.0179908 0.0755893,-0.0359815 0.114485,-0.0510937c0.0631134,-0.0230281 0.122557,-0.0676451 0.187139,-0.0906732l0.109348,-0.083477l0.169526,-0.134571l0.095404,-0.146804h0.0051372c0.0631134,0 0.12109,0.089234 0.184203,0.089234c0.0073388,0 0.0146776,-0.0021589 0.0234841,-0.0050374c0.0388955,-0.0165514 0.0770571,-0.0208692 0.115953,-0.0208692c0.0234841,0 0.0469681,0.0014392 0.0711861,0.0035981c0.023484,0.0021589 0.0462342,0.0035982 0.0682505,0.0035982c0.0066049,0 0.0132098,-0.0007197 0.0205486,-0.0007197c0.0249518,-0.0093551 0.0513714,-0.0187103 0.077791,-0.0280655c0.167324,-0.0582899 0.336116,-0.114421 0.507109,-0.169113c0.0139437,-0.0050374 0.0286212,-0.0093551 0.0425649,-0.0151122l-0.0102743,-0.0079159c0.198881,-0.0582899 0.349325,-0.120178 0.544537,-0.176309l-0.0528391,-0.0071962v-0.0071963l0.129162,-0.0957107l0.103477,-0.220926h-0.0051371l-15.0078,-24.3724Zm0.0843959,-0.0287852l-0.0910008,0.0151122v0.00359814l0.0066049,0.0100748c0.0278873,-0.00935517 0.0557747,-0.01943 0.0843959,-0.0287852Zm0.116686,-0.03886l-0.0902668,0.0352618l-0.0264196,0.00359814c0.0388955,-0.0129533 0.0770571,-0.0266263 0.116686,-0.03886Z"></path></mask><mask id="s" maskContentUnits="userSpaceOnUse" maskUnits="objectBoundingBox"><path fill="#FFF" d="M57.8088,19.2672v25.1186h-5.91065l-12.4678,-4.25517l-38.9792,-13.5312h-0.00366938l-0.347858,-0.249711l0.200348,-0.338945l0.143106,-0.230281l0.110082,0.133131l0.126227,0.0395796v-0.300085l5.45051,-7.53811c0.112283,-0.01943 0.0697183,-0.0791592 0.0697183,-0.0791592h0.0447665c5.95248,-1.31764 10.5385,-4.97623 13.7242,-9.75817l0.0080726,0.00287852l0.0682506,-0.132412l0.0036694,0.00287851l0.023484,-0.00431777l0.0770571,-0.013673c1.59618,-2.41076 2.90175,-5.13311 3.77653,-8.06056l0.162187,-0.0338226l33.7209,19.2285Z"></path></mask><mask id="t" maskContentUnits="userSpaceOnUse" maskUnits="objectBoundingBox"><path fill="#FFF" d="M56.5797,20.4927l-0.116687,0.30872l-56.3339,-20.4454l0.11742,-0.308721Z"></path></mask><path id="u" d="M-0.034011,0.964662h0.619672v-0.606359h-0.619672Z"></path><path id="v" d="M-0.031059,1.07836h0.619672v-1.10592h-0.619672Z"></path></defs><g transform="matrix(1,0,0,1,0,-1)"><g transform="matrix(1,0,0,1,0,1)"><g transform="matrix(1,0,0,1,44.6228,109.384)"><use mask="url(#a)" fill="#3497C6" fill-rule="evenodd" stroke="none" xlink:href="#u"></use><use mask="url(#b)" fill="#36649D" fill-rule="evenodd" stroke="none" xlink:href="#u"></use></g><g transform="matrix(1,0,0,1,48.4359,101.037)"><path mask="url(#c)" fill="#A0BE49" fill-rule="evenodd" stroke="none" d="M0.132098,9.22474h34.9619v-9.24004h-34.9619Z"></path></g><g transform="matrix(1,0,0,1,44.7665,91.3929)"><path mask="url(#d)" fill="#1B7843" fill-rule="evenodd" stroke="none" d="M0.014678,18.8687h64.9922v-18.9118h-64.9922Z"></path></g><g transform="matrix(1,0,0,1,1.76285,70.3815)"><path mask="url(#e)" fill="#A0BE49" fill-rule="evenodd" stroke="none" d="M0.218622,39.1028h56.5379v-39.119h-56.5379Z"></path></g><g transform="matrix(1,0,0,1,58.2714,90.6732)"><use mask="url(#f)" fill="#1B7843" fill-rule="evenodd" stroke="none" xlink:href="#v"></use></g><g transform="matrix(1,0,0,1,44.7665,109.384)"><path mask="url(#g)" fill="#1B7843" fill-rule="evenodd" stroke="none" d="M-0.140537,0.633921h1.1302v-0.606359h-1.1302Z"></path></g><g transform="matrix(1,0,0,1,44.7665,106.074)"><path mask="url(#h)" fill="#1E5B2F" fill-rule="evenodd" stroke="none" d="M-0.073388,3.41014h2.55389v-3.36786h-2.55389Z"></path></g><g transform="matrix(1,0,0,1,0,3.59814)"><path mask="url(#i)" fill="#B7B7B3" fill-rule="evenodd" stroke="none" d="M-0.044033,87.2334h64.0234v-87.3054h-64.0234Z"></path></g><g transform="matrix(1,0,0,1,58.2714,90.6732)"><use mask="url(#j)" fill="#0D75A1" fill-rule="evenodd" stroke="none" xlink:href="#v"></use></g><g transform="matrix(1,0,0,1,1.76285,70.0928)"><path mask="url(#k)" fill="#768C3C" fill-rule="evenodd" stroke="none" d="M0.130557,20.7388h56.5379v-20.5526h-56.5379Z"></path></g><g transform="matrix(1,0,0,1,58.2714,90.6732)"><path mask="url(#l)" fill="#175632" fill-rule="evenodd" stroke="none" d="M-0.031059,0.578797h0.619672v-0.606359h-0.619672Z"></path></g><g transform="matrix(1,0,0,1,49.1698,27.3459)"><path mask="url(#m)" fill="#B7B7B3" fill-rule="evenodd" stroke="none" d="M0.102743,1.37938h1.34829v-1.10592h-1.34829Z"></path></g><g transform="matrix(1,0,0,1,9.10162,23.3169)"><path mask="url(#n)" fill="#D9186F" fill-rule="evenodd" stroke="none" d="M0.025156,1.07664h0.619672v-1.10592h-0.619672Z"></path></g><g transform="matrix(1,0,0,1,33.0245,0)"><path mask="url(#o)" fill="#D9186F" fill-rule="evenodd" stroke="none" d="M0.132098,84.3549h82.5171v-84.3693h-82.5171Z"></path></g><g transform="matrix(1,0,0,1,81.4604,11.8028)"><path mask="url(#p)" fill="#222853" fill-rule="evenodd" stroke="none" d="M0.220163,72.5521h33.9932v-72.5386h-33.9932Z"></path></g><g transform="matrix(1,0,0,1,9.10162,4.17565)"><path mask="url(#q)" fill="#D9186F" fill-rule="evenodd" stroke="none" d="M0.013136,24.1346h40.2458v-24.1795h-40.2458Z"></path></g><g transform="matrix(1,0,0,1,9.10162,2.44764)"><path mask="url(#r)" fill="#9E2055" fill-rule="evenodd" stroke="none" d="M0.101201,36.1389h41.4787v-36.0102h-41.4787Z"></path></g><g transform="matrix(1,0,0,1,57.8326,65.0554)"><path mask="url(#s)" fill="#3497C6" fill-rule="evenodd" stroke="none" d="M0.070305,44.429h57.7708v-44.4731h-57.7708Z"></path></g><g transform="matrix(1,0,0,1,1.76285,70.0928)"><path mask="url(#t)" fill="#A0BE49" fill-rule="evenodd" stroke="none" d="M0.042491,20.8252h56.5379v-20.8117h-56.5379Z"></path></g></g></g></svg>