<?xml version="1.0" encoding="utf-8"?>
<!-- Generator: Adobe Illustrator 24.1.0, SVG Export Plug-In . SVG Version: 6.00 Build 0)  -->
<svg version="1.1" id="Layer_1" xmlns="http://www.w3.org/2000/svg" xmlns:xlink="http://www.w3.org/1999/xlink" x="0px" y="0px"
	 viewBox="0 0 116 111" style="enable-background:new 0 0 116 111;" xml:space="preserve">
<style type="text/css">
	.st0{filter:url(#Adobe_OpacityMaskFilter);}
	.st1{fill-rule:evenodd;clip-rule:evenodd;fill:#FFFFFF;}
	.st2{mask:url(#mask-2_1_);fill-rule:evenodd;clip-rule:evenodd;fill:#E5E5E5;}
	.st3{filter:url(#Adobe_OpacityMaskFilter_1_);}
	.st4{mask:url(#mask-4_1_);fill-rule:evenodd;clip-rule:evenodd;fill:#E5E5E5;}
	.st5{filter:url(#Adobe_OpacityMaskFilter_2_);}
	.st6{mask:url(#mask-6_1_);fill-rule:evenodd;clip-rule:evenodd;fill:#E5E5E5;}
	.st7{filter:url(#Adobe_OpacityMaskFilter_3_);}
	.st8{mask:url(#mask-8_1_);fill-rule:evenodd;clip-rule:evenodd;fill:#E5E5E5;}
	.st9{filter:url(#Adobe_OpacityMaskFilter_4_);}
	.st10{mask:url(#mask-10_1_);fill-rule:evenodd;clip-rule:evenodd;fill:#E5E5E5;}
	.st11{filter:url(#Adobe_OpacityMaskFilter_5_);}
	.st12{mask:url(#mask-12_1_);fill-rule:evenodd;clip-rule:evenodd;fill:#E5E5E5;}
	.st13{filter:url(#Adobe_OpacityMaskFilter_6_);}
	.st14{mask:url(#mask-14_1_);fill-rule:evenodd;clip-rule:evenodd;fill:#E5E5E5;}
	.st15{filter:url(#Adobe_OpacityMaskFilter_7_);}
	.st16{mask:url(#mask-16_1_);fill-rule:evenodd;clip-rule:evenodd;fill:#E5E5E5;}
	.st17{filter:url(#Adobe_OpacityMaskFilter_8_);}
	.st18{mask:url(#mask-18_1_);fill-rule:evenodd;clip-rule:evenodd;fill:#E5E5E5;}
	.st19{filter:url(#Adobe_OpacityMaskFilter_9_);}
	.st20{mask:url(#mask-20_1_);fill-rule:evenodd;clip-rule:evenodd;fill:#E5E5E5;}
	.st21{filter:url(#Adobe_OpacityMaskFilter_10_);}
	.st22{mask:url(#mask-22_1_);fill-rule:evenodd;clip-rule:evenodd;fill:#E5E5E5;}
	.st23{filter:url(#Adobe_OpacityMaskFilter_11_);}
	.st24{mask:url(#mask-24_1_);fill-rule:evenodd;clip-rule:evenodd;fill:#E5E5E5;}
	.st25{filter:url(#Adobe_OpacityMaskFilter_12_);}
	.st26{mask:url(#mask-26_1_);fill-rule:evenodd;clip-rule:evenodd;fill:#E5E5E5;}
	.st27{filter:url(#Adobe_OpacityMaskFilter_13_);}
	.st28{mask:url(#mask-28_1_);fill-rule:evenodd;clip-rule:evenodd;fill:#E5E5E5;}
	.st29{filter:url(#Adobe_OpacityMaskFilter_14_);}
	.st30{mask:url(#mask-30_1_);fill-rule:evenodd;clip-rule:evenodd;fill:#E5E5E5;}
	.st31{filter:url(#Adobe_OpacityMaskFilter_15_);}
	.st32{mask:url(#mask-32_1_);fill-rule:evenodd;clip-rule:evenodd;fill:#E5E5E5;}
	.st33{filter:url(#Adobe_OpacityMaskFilter_16_);}
	.st34{mask:url(#mask-34_1_);fill-rule:evenodd;clip-rule:evenodd;fill:#E5E5E5;}
	.st35{filter:url(#Adobe_OpacityMaskFilter_17_);}
	.st36{mask:url(#mask-36_1_);fill-rule:evenodd;clip-rule:evenodd;fill:#E5E5E5;}
	.st37{filter:url(#Adobe_OpacityMaskFilter_18_);}
	.st38{mask:url(#mask-38_1_);fill-rule:evenodd;clip-rule:evenodd;fill:#E5E5E5;}
	.st39{filter:url(#Adobe_OpacityMaskFilter_19_);}
	.st40{mask:url(#mask-40_1_);fill-rule:evenodd;clip-rule:evenodd;fill:#E5E5E5;}
</style>
<desc>Created with Sketch.</desc>
<g id="Symbols">
	<g id="Glyph" transform="translate(0.000000, -1.000000)">
		<g transform="translate(0.000000, 1.000000)">
			<g id="Group-7" transform="translate(44.622814, 109.383587)">
				<g id="Clip-6">
				</g>
				<defs>
					<filter id="Adobe_OpacityMaskFilter" filterUnits="userSpaceOnUse" x="0" y="0.4" width="0.6" height="0.6">
						<feColorMatrix  type="matrix" values="1 0 0 0 0  0 1 0 0 0  0 0 1 0 0  0 0 0 1 0"/>
					</filter>
				</defs>
				<mask maskUnits="userSpaceOnUse" x="0" y="0.4" width="0.6" height="0.6" id="mask-2_1_">
					<g class="st0">
						<polygon id="path-1_1_" class="st1" points="0.2,0.4 0.2,0.4 0.2,0.4 0.2,0.4 0.2,0.5 0.1,0.4 						"/>
					</g>
				</mask>
				<polygon id="Fill-5" class="st2" points="0,1 0.6,1 0.6,0.4 0,0.4 				"/>
			</g>
			<g id="Group-11" transform="translate(44.622814, 109.383587)">
				<g id="Clip-10">
				</g>
				<defs>
					<filter id="Adobe_OpacityMaskFilter_1_" filterUnits="userSpaceOnUse" x="0" y="0.4" width="0.6" height="0.6">
						<feColorMatrix  type="matrix" values="1 0 0 0 0  0 1 0 0 0  0 0 1 0 0  0 0 0 1 0"/>
					</filter>
				</defs>
				<mask maskUnits="userSpaceOnUse" x="0" y="0.4" width="0.6" height="0.6" id="mask-4_1_">
					<g class="st3">
						<polygon id="path-3_1_" class="st1" points="0.1,0.4 0.1,0.4 0.1,0.4 						"/>
					</g>
				</mask>
				<polygon id="Fill-9" class="st4" points="0,1 0.6,1 0.6,0.4 0,0.4 				"/>
			</g>
			<g id="Group-14" transform="translate(48.435892, 101.036793)">
				<g id="Clip-13">
				</g>
				<defs>
					<filter id="Adobe_OpacityMaskFilter_2_" filterUnits="userSpaceOnUse" x="0.1" y="0" width="35" height="9.2">
						<feColorMatrix  type="matrix" values="1 0 0 0 0  0 1 0 0 0  0 0 1 0 0  0 0 0 1 0"/>
					</filter>
				</defs>
				<mask maskUnits="userSpaceOnUse" x="0.1" y="0" width="35" height="9.2" id="mask-6_1_">
					<g class="st5">
						<path id="path-5_1_" class="st1" d="M0.3,9L0.3,9L0.2,9l0,0c0,0,0,0,0,0L0.3,9c0,0,0.2,0,0.3,0c0.5,0,1,0.1,1.4,0.1l0.1,0
							c0.3,0,0.6,0,0.9,0c-0.1,0-0.2,0-0.3,0L2.7,9.1h0c-0.2,0-0.3,0-0.5,0c0,0,0,0,0,0l-0.1,0c-0.5,0-1-0.1-1.4-0.1
							C0.5,9.1,0.4,9,0.3,9z M27.5,4.3c-0.2,0.1-0.3,0.1-0.5,0.2l-0.1,0C27.1,4.4,27.3,4.3,27.5,4.3z M29.3,3.4L29.3,3.4L29.3,3.4
							c-0.1,0.1-0.2,0.1-0.3,0.1C29.1,3.5,29.2,3.4,29.3,3.4z M35.1,0c-0.3,0.2-0.5,0.3-0.8,0.5l-0.1,0l0,0
							c-0.2,0.1-0.3,0.2-0.5,0.3c-0.2,0.1-0.3,0.2-0.5,0.3c-0.3,0.2-0.6,0.4-0.9,0.5c-0.3,0.2-0.7,0.4-1,0.6
							C32.5,1.6,33.8,0.9,35.1,0z"/>
					</g>
				</mask>
				<polygon id="Fill-12" class="st6" points="0.1,9.2 35.1,9.2 35.1,0 0.1,0 				"/>
			</g>
			<g id="Group-17" transform="translate(44.766507, 91.392865)">
				<g id="Clip-16">
				</g>
				<defs>
					<filter id="Adobe_OpacityMaskFilter_3_" filterUnits="userSpaceOnUse" x="0" y="0" width="65" height="18.9">
						<feColorMatrix  type="matrix" values="1 0 0 0 0  0 1 0 0 0  0 0 1 0 0  0 0 0 1 0"/>
					</filter>
				</defs>
				<mask maskUnits="userSpaceOnUse" x="0" y="0" width="65" height="18.9" id="mask-8_1_">
					<g class="st7">
						<path id="path-7_1_" class="st1" d="M13.2,0l0.3,0.2h0l39,13.5L65,18H39.3V9.2c0,0.1-0.3,0.3-0.6,0.4
							c-0.3,0.2-0.5,0.3-0.8,0.5l-0.1,0l0,0c-0.2,0.1-0.3,0.2-0.5,0.3c-0.2,0.1-0.3,0.2-0.5,0.3c-0.3,0.2-0.6,0.4-0.9,0.5
							c-0.3,0.2-0.7,0.4-1,0.6c-0.4,0.2-0.8,0.4-1.2,0.6c-0.1,0.1-0.3,0.2-0.4,0.2v0L33,13c0,0,0,0,0,0l0,0l0,0
							c-0.1,0-0.1,0.1-0.2,0.1c0,0,0,0,0,0c-0.1,0-0.2,0.1-0.2,0.1l-0.1,0.1c-0.1,0-0.1,0.1-0.2,0.1c-0.3,0.1-0.5,0.2-0.8,0.4
							l-0.1,0l-0.1,0c0,0,0,0-0.1,0C31,14,30.8,14,30.7,14.1l-0.1,0l-0.1,0l-0.2,0.1c-0.2,0.1-0.4,0.2-0.7,0.3l-0.1,0l-0.1,0
							l-0.2,0.1l0,0c-0.2,0.1-0.4,0.2-0.6,0.2L28.6,15c-6.3,2.5-13.1,3.8-20.1,3.8c-0.6,0-1.2,0-1.8,0c-0.1,0-0.2,0-0.3,0l-0.1-0.1
							h0c-0.2,0-0.3,0-0.5,0h0l-0.1,0c-0.5,0-1-0.1-1.4-0.1c-0.1,0-0.2,0-0.3,0l-0.1,0l-0.1,0l0,0c-0.2,0-0.5,0-0.7-0.1l0,0
							c-0.2,0-0.4,0-0.5-0.1c-0.8-0.1-1.7-0.3-2.5-0.5l2.4-3.3L13.2,0z"/>
					</g>
				</mask>
				<polygon id="Fill-15" class="st8" points="0,18.9 65,18.9 65,0 0,0 				"/>
			</g>
			<g id="Group-20" transform="translate(1.762847, 70.381504)">
				<g id="Clip-19">
				</g>
				<defs>
					<filter id="Adobe_OpacityMaskFilter_4_" filterUnits="userSpaceOnUse" x="0.2" y="0" width="56.5" height="39.1">
						<feColorMatrix  type="matrix" values="1 0 0 0 0  0 1 0 0 0  0 0 1 0 0  0 0 0 1 0"/>
					</filter>
				</defs>
				<mask maskUnits="userSpaceOnUse" x="0.2" y="0" width="56.5" height="39.1" id="mask-10_1_">
					<g class="st9">
						<path id="path-9_1_" class="st1" d="M0.2,0.1l56.3,20.3l0,0l0,0v0l0.1,0l0.1,0v0.2l-0.1-0.1l-0.1-0.1l-0.2,0.2l-0.2,0.3
							L45.4,35.7L43,39.1l0,0l-0.1,0h0c-2.3,0-4.5-0.8-6.6-1.3l-0.1,0c-0.5-0.1-1-0.3-1.5-0.5c-0.3-0.1-0.6-0.2-0.8-0.3
							c-0.3-0.1-0.6-0.2-0.8-0.3C17,30.9,4.9,17.4,0.3,0.2L0.2,0.1L0.2,0.1z"/>
					</g>
				</mask>
				<polygon id="Fill-18" class="st10" points="0.2,39.1 56.8,39.1 56.8,0 0.2,0 				"/>
			</g>
			<g id="Group-23" transform="translate(58.271388, 90.673236)">
				<g id="Clip-22">
				</g>
				<defs>
					<filter id="Adobe_OpacityMaskFilter_5_" filterUnits="userSpaceOnUse" x="0" y="0" width="0.6" height="1.1">
						<feColorMatrix  type="matrix" values="1 0 0 0 0  0 1 0 0 0  0 0 1 0 0  0 0 0 1 0"/>
					</filter>
				</defs>
				<mask maskUnits="userSpaceOnUse" x="0" y="0" width="0.6" height="1.1" id="mask-12_1_">
					<g class="st11">
						<polygon id="path-11_1_" class="st1" points="0,0.2 0.1,0.1 0.3,0.2 0.3,0.3 						"/>
					</g>
				</mask>
				<polygon id="Fill-21" class="st12" points="0,1.1 0.6,1.1 0.6,0 0,0 				"/>
			</g>
			<g id="Group-26" transform="translate(44.766507, 109.383587)">
				<g id="Clip-25">
				</g>
				<defs>
					<filter id="Adobe_OpacityMaskFilter_6_" filterUnits="userSpaceOnUse" x="-0.1" y="0" width="1.1" height="0.6">
						<feColorMatrix  type="matrix" values="1 0 0 0 0  0 1 0 0 0  0 0 1 0 0  0 0 0 1 0"/>
					</filter>
				</defs>
				<mask maskUnits="userSpaceOnUse" x="-0.1" y="0" width="1.1" height="0.6" id="mask-14_1_">
					<g class="st13">
						<path id="path-13_1_" class="st1" d="M0.1,0.1c0.1,0,0.1,0,0.2,0L0.2,0.3L0,0.3L0.1,0.1z"/>
					</g>
				</mask>
				<polygon id="Fill-24" class="st14" points="-0.1,0.6 1,0.6 1,0 -0.1,0 				"/>
			</g>
			<g id="Group-29" transform="translate(44.766507, 106.074195)">
				<g id="Clip-28">
				</g>
				<defs>
					<filter id="Adobe_OpacityMaskFilter_7_" filterUnits="userSpaceOnUse" x="-0.1" y="0" width="2.6" height="3.4">
						<feColorMatrix  type="matrix" values="1 0 0 0 0  0 1 0 0 0  0 0 1 0 0  0 0 0 1 0"/>
					</filter>
				</defs>
				<mask maskUnits="userSpaceOnUse" x="-0.1" y="0" width="2.6" height="3.4" id="mask-16_1_">
					<g class="st15">
						<path id="path-15_1_" class="st1" d="M2.4,0L0,3.4c0,0,0,0,0,0L2.4,0z"/>
					</g>
				</mask>
				<polygon id="Fill-27" class="st16" points="-0.1,3.4 2.5,3.4 2.5,0 -0.1,0 				"/>
			</g>
			<g id="Group-32" transform="translate(0.000000, 3.598144)">
				<g id="Clip-31">
				</g>
				<defs>
					<filter id="Adobe_OpacityMaskFilter_8_" filterUnits="userSpaceOnUse" x="0" y="-0.1" width="64" height="87.3">
						<feColorMatrix  type="matrix" values="1 0 0 0 0  0 1 0 0 0  0 0 1 0 0  0 0 0 1 0"/>
					</filter>
				</defs>
				<mask maskUnits="userSpaceOnUse" x="0" y="-0.1" width="64" height="87.3" id="mask-18_1_">
					<g class="st17">
						<path id="path-17_1_" class="st1" d="M9.3,19.6c0,0-0.1,0.1-0.1,0.1l0,0.1l0.1,0L9.1,20c-1.8,2.8-3.4,5.7-4.7,8.9
							c-0.3,0.8-0.6,1.6-0.9,2.4C3.2,32,3,32.8,2.7,33.6c-0.1,0.3-0.2,0.7-0.3,1c-0.1,0.3-0.1,0.5-0.2,0.8C2.1,35.6,2,35.9,2,36.1
							c-0.1,0.3-0.1,0.5-0.2,0.8c-0.1,0.3-0.1,0.5-0.2,0.8c-0.1,0.3-0.2,0.7-0.2,1C1.2,39.3,1.1,40,1,40.7c-0.1,0.7-0.2,1.4-0.3,2.1
							c-0.2,1.1-0.3,2.1-0.4,3.2c-0.1,0.9-0.1,1.8-0.2,2.7C0,49.6,0,50.6,0,51.5c0,0.5,0,1,0,1.5c0,0.5,0,1,0.1,1.5
							c0.1,2,0.3,3.9,0.5,5.8c0.1,0.6,0.2,1.2,0.3,1.9c0,0.3,0.1,0.5,0.2,0.8c0,0.2,0.1,0.4,0.2,0.6c0,0.2,0.1,0.3,0.1,0.5v0
							c0,0.3,0.1,0.6,0.1,0.9c0,0.2,0,0.4,0.1,0.6c0,0.1,0.1,0.3,0.1,0.4c0,0.1,0.1,0.3,0.1,0.5v0.1c0,0.1,0.1-0.1,0.1,0.6h0L2,66.8
							l0,0l0-0.1l56.3,20.4l0,0v0l0.1,0l0.1,0v-0.1l5.5-7.5c-0.2,0-0.7,0.1-1.3,0.2l-0.1,0c-0.9,0.1-2,0.3-3,0.3
							c-0.6,0.1-1.2,0.1-1.7,0.1c-7,0-12.8-2.5-17.1-6.7c-0.1-0.1-0.2-0.2-0.2-0.3c-0.1-0.1-0.2-0.2-0.2-0.2c-0.3-0.3-0.6-0.7-0.9-1
							c-0.5-0.6-0.9-1.1-1.3-1.7c-0.1-0.2-0.2-0.3-0.3-0.5c-0.1-0.1-0.2-0.3-0.3-0.4c-0.1-0.1-0.1-0.2-0.2-0.3
							c-0.2-0.4-0.4-0.7-0.6-1.1c-0.1-0.2-0.2-0.4-0.3-0.6c-0.1-0.2-0.2-0.4-0.3-0.6c-0.2-0.4-0.4-0.9-0.6-1.3
							c-0.1-0.2-0.2-0.5-0.3-0.7c-1.5-3.9-2.4-8.4-2.4-13.2c0-3,0.3-5.9,0.9-8.6c0.1-0.7,0.3-1.3,0.5-2c0.1-0.5,0.3-0.9,0.5-1.4
							c0.5-1.4,1.1-2.8,1.7-4c0-0.1,0.1-0.1,0.1-0.2l0,0l0-0.1c0.1-0.2,0.2-0.3,0.3-0.5c0.1-0.2,0.2-0.3,0.3-0.5
							c0-0.1,0.1-0.2,0.1-0.2c0-0.1,0.1-0.2,0.1-0.2c0.3-0.5,0.6-1,1-1.5c0.1-0.1,0.2-0.2,0.3-0.3c0.1-0.1,0.2-0.3,0.3-0.4
							c0.1-0.1,0.2-0.3,0.3-0.4c0.1-0.1,0.2-0.3,0.4-0.4c0.1-0.1,0.3-0.3,0.4-0.4c0.1-0.1,0.2-0.2,0.3-0.4c0.1-0.1,0.2-0.3,0.4-0.4
							c0.1-0.1,0.3-0.3,0.4-0.4c0.1-0.1,0.3-0.2,0.4-0.4c0.1-0.1,0.3-0.2,0.4-0.4c0.1-0.1,0.2-0.2,0.4-0.3c0.4-0.4,0.9-0.7,1.3-1
							c0.1-0.1,0.3-0.2,0.4-0.3c0.1-0.1,0.3-0.2,0.5-0.3c0.2-0.1,0.3-0.2,0.5-0.3s0.3-0.2,0.5-0.3c0.5-0.3,1-0.5,1.5-0.8
							c0.1-0.1,0.3-0.1,0.4-0.2c0.1-0.1,0.3-0.1,0.4-0.2c0.1-0.1,0.3-0.1,0.4-0.2c0,0,0,0,0.1,0c-0.1,0-0.1,0-0.2,0.1l-0.2,0.1
							l-0.1,0c-0.1,0-0.2,0.1-0.2,0.1L47.4,25l0,0c-4.7,2.1-8.4,5.4-10.8,10l0-0.3h0l0,0l-0.1,0h0L9.3,19.6z M26,3.6
							C20.5,6.8,15.8,11,11.8,16C15.8,11,20.5,6.8,26,3.6z M33.2,0c-0.5,0.2-1,0.4-1.5,0.6c0.4-0.2,0.8-0.3,1.2-0.5
							C33.1,0.1,33.1,0,33.2,0z"/>
					</g>
				</mask>
				<polygon id="Fill-30" class="st18" points="0,87.2 64,87.2 64,-0.1 0,-0.1 				"/>
			</g>
			<g id="Group-35" transform="translate(58.271388, 90.673236)">
				<g id="Clip-34">
				</g>
				<defs>
					<filter id="Adobe_OpacityMaskFilter_9_" filterUnits="userSpaceOnUse" x="0" y="0" width="0.6" height="1.1">
						<feColorMatrix  type="matrix" values="1 0 0 0 0  0 1 0 0 0  0 0 1 0 0  0 0 0 1 0"/>
					</filter>
				</defs>
				<mask maskUnits="userSpaceOnUse" x="0" y="0" width="0.6" height="1.1" id="mask-20_1_">
					<g class="st19">
						<polygon id="path-19_1_" class="st1" points="0,0.3 0.2,0.1 0.2,0.4 						"/>
					</g>
				</mask>
				<polygon id="Fill-33" class="st20" points="0,1.1 0.6,1.1 0.6,0 0,0 				"/>
			</g>
			<g id="Group-38" transform="translate(1.762847, 70.092752)">
				<g id="Clip-37">
				</g>
				<defs>
					<filter id="Adobe_OpacityMaskFilter_10_" filterUnits="userSpaceOnUse" x="0.1" y="0.2" width="56.5" height="20.6">
						<feColorMatrix  type="matrix" values="1 0 0 0 0  0 1 0 0 0  0 0 1 0 0  0 0 0 1 0"/>
					</filter>
				</defs>
				<mask maskUnits="userSpaceOnUse" x="0.1" y="0.2" width="56.5" height="20.6" id="mask-22_1_">
					<g class="st21">
						<path id="path-21_1_" class="st1" d="M56.5,20.6L56.5,20.6L56.5,20.6L56.5,20.6z M0.2,0.2l56.3,20.4L0.2,0.3l0,0l0,0L0.2,0.2z
							"/>
					</g>
				</mask>
				<polygon id="Fill-36" class="st22" points="0.1,20.7 56.7,20.7 56.7,0.2 0.1,0.2 				"/>
			</g>
			<g id="Group-41" transform="translate(58.271388, 90.673236)">
				<g id="Clip-40">
				</g>
				<defs>
					<filter id="Adobe_OpacityMaskFilter_11_" filterUnits="userSpaceOnUse" x="0" y="0" width="0.6" height="0.6">
						<feColorMatrix  type="matrix" values="1 0 0 0 0  0 1 0 0 0  0 0 1 0 0  0 0 0 1 0"/>
					</filter>
				</defs>
				<mask maskUnits="userSpaceOnUse" x="0" y="0" width="0.6" height="0.6" id="mask-24_1_">
					<g class="st23">
						<polygon id="path-23_1_" class="st1" points="0,0.1 0,0.1 0.2,0.2 						"/>
					</g>
				</mask>
				<polygon id="Fill-39" class="st24" points="0,0.6 0.6,0.6 0.6,0 0,0 				"/>
			</g>
			<g id="Group-44" transform="translate(49.169770, 27.345897)">
				<g id="Clip-43">
				</g>
				<defs>
					<filter id="Adobe_OpacityMaskFilter_12_" filterUnits="userSpaceOnUse" x="0.1" y="0.3" width="1.3" height="1.1">
						<feColorMatrix  type="matrix" values="1 0 0 0 0  0 1 0 0 0  0 0 1 0 0  0 0 0 1 0"/>
					</filter>
				</defs>
				<mask maskUnits="userSpaceOnUse" x="0.1" y="0.3" width="1.3" height="1.1" id="mask-26_1_">
					<g class="st25">
						<path id="path-25_1_" class="st1" d="M1.5,0.3C1.1,0.6,0.7,1,0.4,1.3C0.3,1.4,0.2,1.4,0.2,1.4c0.1-0.1,0.1-0.1,0.2-0.2
							C0.7,0.9,1.1,0.6,1.5,0.3z"/>
					</g>
				</mask>
				<polygon id="Fill-42" class="st26" points="0.1,1.4 1.5,1.4 1.5,0.3 0.1,0.3 				"/>
			</g>
			<g id="Group-47" transform="translate(9.101618, 23.316876)">
				<g id="Clip-46">
				</g>
				<defs>
					<filter id="Adobe_OpacityMaskFilter_13_" filterUnits="userSpaceOnUse" x="0" y="0" width="0.6" height="1.1">
						<feColorMatrix  type="matrix" values="1 0 0 0 0  0 1 0 0 0  0 0 1 0 0  0 0 0 1 0"/>
					</filter>
				</defs>
				<mask maskUnits="userSpaceOnUse" x="0" y="0" width="0.6" height="1.1" id="mask-28_1_">
					<g class="st27">
						<polygon id="path-27_1_" class="st1" points="0.2,0.1 0.3,0.1 0.1,0.3 						"/>
					</g>
				</mask>
				<polygon id="Fill-45" class="st28" points="0,1.1 0.6,1.1 0.6,0 0,0 				"/>
			</g>
			<g id="Group-50" transform="translate(33.024472, 0.000000)">
				<g id="Clip-49">
				</g>
				<defs>
					<filter id="Adobe_OpacityMaskFilter_14_" filterUnits="userSpaceOnUse" x="0.1" y="0" width="82.5" height="84.4">
						<feColorMatrix  type="matrix" values="1 0 0 0 0  0 1 0 0 0  0 0 1 0 0  0 0 0 1 0"/>
					</filter>
				</defs>
				<mask maskUnits="userSpaceOnUse" x="0.1" y="0" width="82.5" height="84.4" id="mask-30_1_">
					<g class="st29">
						<path id="path-29_1_" class="st1" d="M50.4,56.5c0,2.9-0.8,5.8-1.6,8.4l0,0l0,0l0,0l0,0l0,0l0,0l0,0l0,0l0,0
							C49.6,62.3,50.4,59.5,50.4,56.5z M19.3,0c7.1,0,13.8,1.1,19.9,3.5c0.3,0.1,0.6,0.2,0.9,0.4l0.1,0.1L40.5,4l0.4,0.2
							c0.1,0.1,0.3,0.2,0.4,0.2c0.1,0,0.1,0.1,0.2,0.1l0,0.1l0,0.1h0c0.1,0,0.1,0,0.2,0c0,0,0,0,0.1,0c0.5,0.2,1,0.4,1.5,0.6
							c0.3,0.1,0.6,0.3,0.9,0.4c0.2,0.1,0.3,0.2,0.5,0.2c0.2,0.1,0.5,0.2,0.8,0.3l0.1,0.1l0,0.1c1.8,1,3.4,2.1,5.4,3.4V2.1h31.6
							v82.3V11.9L50.5,56.1c0,0.1-0.1,0.2-0.1,0.4c0-0.1,0-0.2,0-0.4c0-0.1,0-0.2,0-0.3l0,0c0-0.3-0.1-0.5-0.1-0.8
							c-0.1-4.7-0.9-9-2.4-12.7c-0.1-0.3-0.2-0.5-0.3-0.7c-0.1-0.1-0.1-0.3-0.2-0.4c-0.1-0.1-0.1-0.3-0.2-0.4l-0.1-0.1
							c-0.1-0.2-0.2-0.5-0.3-0.7c-0.1-0.3-0.3-0.6-0.4-0.8c-0.1-0.2-0.3-0.5-0.4-0.7c-0.1-0.2-0.3-0.5-0.4-0.7
							c-0.1-0.1-0.1-0.2-0.2-0.3c-0.1-0.1-0.2-0.2-0.2-0.3c-0.1-0.2-0.3-0.4-0.4-0.6c-0.2-0.2-0.3-0.4-0.5-0.7l0-0.1l-0.1-0.1
							c-0.1-0.1-0.2-0.3-0.3-0.4c-0.3-0.4-0.6-0.8-1-1.2c-0.2-0.2-0.5-0.5-0.7-0.7c-0.1-0.1-0.2-0.2-0.4-0.4
							c-0.2-0.1-0.3-0.3-0.5-0.4c-0.1-0.1-0.2-0.2-0.3-0.2c-0.1-0.1-0.3-0.2-0.4-0.3c-1.5-1.2-3.1-2.2-4.8-3.1
							c-0.3-0.1-0.6-0.3-0.9-0.4c-0.5-0.2-1.1-0.4-1.6-0.6l-0.1,0l-0.1,0c-2.5-0.8-5.2-1.3-8.2-1.4c-2.6,0.1-4.9,0.4-7.1,1.1l-0.1,0
							l0,0c-0.2,0.1-0.4,0.1-0.7,0.2c0,0,0,0,0,0l0,0c0.2-0.1,0.3-0.1,0.5-0.2l-0.1,0v0l0.1-0.1l0.1-0.2h0L2.6,2.7c0,0,0.1,0,0.1,0
							l0,0l0.1,0c0,0-0.1,0-0.1,0l-0.1,0v0l0,0C1.8,3,1,3.3,0.2,3.6c0.9-0.3,1.7-0.7,2.6-1C8,0.9,13.5,0,19.3,0z"/>
					</g>
				</mask>
				<polygon id="Fill-48" class="st30" points="0.1,84.4 82.6,84.4 82.6,0 0.1,0 				"/>
			</g>
			<g id="Group-53" transform="translate(81.460365, 11.802814)">
				<g id="Clip-52">
				</g>
				<defs>
					<filter id="Adobe_OpacityMaskFilter_15_" filterUnits="userSpaceOnUse" x="0.2" y="0" width="34" height="72.5">
						<feColorMatrix  type="matrix" values="1 0 0 0 0  0 1 0 0 0  0 0 1 0 0  0 0 0 1 0"/>
					</filter>
				</defs>
				<mask maskUnits="userSpaceOnUse" x="0.2" y="0" width="34" height="72.5" id="mask-32_1_">
					<g class="st31">
						<path id="path-31_1_" class="st1" d="M34.2,0.1v72.5L0.5,53.3l-0.1,0l0,0l0,0l0,0l0,0c0.8-2.7,1.6-5.5,1.6-8.4v0
							c0-0.1,0.1-0.2,0.1-0.4L34.2,0.1z"/>
					</g>
				</mask>
				<polygon id="Fill-51" class="st32" points="0.2,72.6 34.2,72.6 34.2,0 0.2,0 				"/>
			</g>
			<g id="Group-56" transform="translate(9.101618, 4.175649)">
				<g id="Clip-55">
				</g>
				<defs>
					<filter id="Adobe_OpacityMaskFilter_16_" filterUnits="userSpaceOnUse" x="0" y="0" width="40.2" height="24.2">
						<feColorMatrix  type="matrix" values="1 0 0 0 0  0 1 0 0 0  0 0 1 0 0  0 0 0 1 0"/>
					</filter>
				</defs>
				<mask maskUnits="userSpaceOnUse" x="0" y="0" width="40.2" height="24.2" id="mask-34_1_">
					<g class="st33">
						<path id="path-33_1_" class="st1" d="M39.8,23.6L39.8,23.6l-0.1,0.1l-0.2,0.1l-0.1,0.1c-0.1,0-0.1,0.1-0.2,0.1
							c0,0-0.1,0-0.1,0.1c0.2-0.1,0.4-0.2,0.6-0.2l0.1,0c0.2-0.1,0.3-0.1,0.5-0.2h0c0,0,0,0-0.1,0c0,0,0,0-0.1,0c0,0-0.1,0-0.1,0
							c0,0,0,0,0,0C39.9,23.7,39.8,23.6,39.8,23.6z M2.7,15.5c0,0-0.1,0.1-0.1,0.1C2.3,16,2,16.4,1.7,16.8c-0.2,0.2-0.3,0.4-0.5,0.6
							c-0.2,0.3-0.4,0.6-0.6,0.9c-0.2,0.3-0.4,0.6-0.6,0.9l0,0l0,0l0.1,0l0,0c0.2-0.2,0.3-0.5,0.5-0.7c0.2-0.3,0.4-0.6,0.6-0.9
							c0.2-0.2,0.3-0.4,0.5-0.6C2,16.4,2.3,16,2.7,15.6C2.7,15.5,2.7,15.5,2.7,15.5z M22.7,0c-0.2,0.1-0.5,0.2-0.7,0.3
							c-0.4,0.2-0.7,0.3-1.1,0.5c-0.4,0.2-0.7,0.4-1.1,0.5c-0.3,0.2-0.7,0.4-1,0.5c-0.3,0.2-0.7,0.4-1,0.6l-0.1,0
							c-0.1,0.1-0.3,0.2-0.4,0.2C17.1,2.9,17,2.9,16.9,3c0.1-0.1,0.2-0.1,0.4-0.2c0.1-0.1,0.3-0.2,0.4-0.2l0.1,0
							c0.3-0.2,0.7-0.4,1-0.6c0.3-0.2,0.7-0.4,1-0.5c0.4-0.2,0.7-0.4,1.1-0.5c0.4-0.2,0.7-0.3,1.1-0.5C22.2,0.2,22.4,0.1,22.7,0z"/>
					</g>
				</mask>
				<polygon id="Fill-54" class="st34" points="0,24.1 40.3,24.1 40.3,0 0,0 				"/>
			</g>
			<g id="Group-59" transform="translate(9.101618, 2.447639)">
				<g id="Clip-58">
				</g>
				<defs>
					<filter id="Adobe_OpacityMaskFilter_17_" filterUnits="userSpaceOnUse" x="0.1" y="0.1" width="41.5" height="36">
						<feColorMatrix  type="matrix" values="1 0 0 0 0  0 1 0 0 0  0 0 1 0 0  0 0 0 1 0"/>
					</filter>
				</defs>
				<mask maskUnits="userSpaceOnUse" x="0.1" y="0.1" width="41.5" height="36" id="mask-36_1_">
					<g class="st35">
						<path id="path-35_1_" class="st1" d="M26.6,0.3c-0.8,0.3-1.6,0.6-2.4,0.9c-0.1,0-0.2,0.1-0.2,0.1c-0.4,0.2-0.8,0.3-1.2,0.5
							c-0.2,0.1-0.5,0.2-0.7,0.3c-0.4,0.2-0.7,0.3-1.1,0.5c-0.4,0.2-0.7,0.4-1.1,0.5c-0.3,0.2-0.7,0.4-1,0.5c-0.3,0.2-0.7,0.4-1,0.6
							l-0.1,0c-0.1,0.1-0.3,0.2-0.4,0.2c-0.1,0.1-0.2,0.1-0.4,0.2C11.4,8,6.7,12.2,2.7,17.2c0,0-0.1,0.1-0.1,0.1
							c-0.3,0.4-0.6,0.8-0.9,1.2c-0.2,0.2-0.3,0.4-0.5,0.6c-0.2,0.3-0.4,0.6-0.6,0.9c-0.2,0.2-0.3,0.5-0.5,0.7l27.1,15.1h0l0.1,0
							l0,0h0l0,0.3c2.5-4.6,6.1-7.9,10.8-10l0,0l0.2-0.1c0.1,0,0.1-0.1,0.2-0.1l0.1,0l0.2-0.1c0.1,0,0.1,0,0.2-0.1
							c0,0,0.1,0,0.1-0.1c0.1,0,0.1-0.1,0.2-0.1l0.1-0.1l0.2-0.1l0.1-0.1h0c0.1,0,0.1,0.1,0.2,0.1c0,0,0,0,0,0c0,0,0.1,0,0.1,0
							c0,0,0,0,0.1,0c0,0,0,0,0.1,0c0,0,0,0,0,0c0,0,0.1,0,0.1,0c0.2-0.1,0.3-0.1,0.5-0.2c0,0,0,0,0,0l0,0c0.2-0.1,0.3-0.1,0.5-0.2
							l-0.1,0v0l0.1-0.1l0.1-0.2h0L26.6,0.3z M26.6,0.2L26.6,0.2L26.6,0.2L26.6,0.2C26.6,0.3,26.6,0.3,26.6,0.2z M26.8,0.2L26.8,0.2
							l-0.1,0C26.7,0.2,26.7,0.2,26.8,0.2z"/>
					</g>
				</mask>
				<polygon id="Fill-57" class="st36" points="0.1,36.1 41.6,36.1 41.6,0.1 0.1,0.1 				"/>
			</g>
			<g id="Group-62" transform="translate(57.832603, 65.055350)">
				<g id="Clip-61">
				</g>
				<defs>
					<filter id="Adobe_OpacityMaskFilter_18_" filterUnits="userSpaceOnUse" x="0.1" y="0" width="57.8" height="44.5">
						<feColorMatrix  type="matrix" values="1 0 0 0 0  0 1 0 0 0  0 0 1 0 0  0 0 0 1 0"/>
					</filter>
				</defs>
				<mask maskUnits="userSpaceOnUse" x="0.1" y="0" width="57.8" height="44.5" id="mask-38_1_">
					<g class="st37">
						<path id="path-37_1_" class="st1" d="M57.8,19.3v25.1h-5.9l-12.5-4.3l-39-13.5h0l-0.3-0.2L0.3,26l0.1-0.2l0.1,0.1l0.1,0v-0.3
							l5.5-7.5c0.1,0,0.1-0.1,0.1-0.1h0c6-1.3,10.5-5,13.7-9.8l0,0L20,8.1l0,0l0,0l0.1,0c1.6-2.4,2.9-5.1,3.8-8.1l0.2,0L57.8,19.3z"
							/>
					</g>
				</mask>
				<polygon id="Fill-60" class="st38" points="0.1,44.4 57.8,44.4 57.8,0 0.1,0 				"/>
			</g>
			<g id="Group-65" transform="translate(1.762847, 70.092752)">
				<g id="Clip-64">
				</g>
				<defs>
					<filter id="Adobe_OpacityMaskFilter_19_" filterUnits="userSpaceOnUse" x="0" y="0" width="56.5" height="20.8">
						<feColorMatrix  type="matrix" values="1 0 0 0 0  0 1 0 0 0  0 0 1 0 0  0 0 0 1 0"/>
					</filter>
				</defs>
				<mask maskUnits="userSpaceOnUse" x="0" y="0" width="56.5" height="20.8" id="mask-40_1_">
					<g class="st39">
						<polygon id="path-39_1_" class="st1" points="56.6,20.5 56.5,20.8 0.1,0.4 0.2,0 						"/>
					</g>
				</mask>
				<polygon id="Fill-63" class="st40" points="0,20.8 56.6,20.8 56.6,0 0,0 				"/>
			</g>
		</g>
	</g>
</g>
</svg>
