<?xml version="1.0" encoding="UTF-8"?><svg version="1.1" viewBox="0 0 22 18" xmlns="http://www.w3.org/2000/svg" xmlns:xlink="http://www.w3.org/1999/xlink"><!--Generated by IJSVG (https://github.com/iconjar/IJSVG)--><g transform="matrix(1,0,0,1,-1,-3)"><path fill="#000" stroke="none" d="M3,2c-0.547715,0 -1,0.452285 -1,1v12c0,0.547715 0.452285,1 1,1h16c0.547715,0 1,-0.452285 1,-1v-12c0,-0.547715 -0.452285,-1 -1,-1h-16Zm0,-2h16c1.65228,0 3,1.34772 3,3v12c0,1.65228 -1.34772,3 -3,3h-16c-1.65228,0 -3,-1.34772 -3,-3v-12c0,-1.65228 1.34772,-3 3,-3Zm8,8.77934l9.42654,-6.59858c0.452449,-0.316715 1.07598,-0.20668 1.39269,0.24577c0.316715,0.452449 0.20668,1.07598 -0.24577,1.39269l-10,7c-0.34432,0.241024 -0.802604,0.241024 -1.14692,0l-10,-7c-0.452449,-0.316715 -0.562484,-0.940245 -0.24577,-1.39269c0.316715,-0.452449 0.940245,-0.562484 1.39269,-0.24577l9.42654,6.59858Z" transform="matrix(1,0,0,1,1,3)"></path></g></svg>