<?xml version="1.0" encoding="UTF-8"?><svg version="1.1" viewBox="0 0 20 22" xmlns="http://www.w3.org/2000/svg" xmlns:xlink="http://www.w3.org/1999/xlink"><!--Generated by IJSVG (https://github.com/iconjar/IJSVG)--><g transform="matrix(1,0,0,1,-2,-1)"><path fill="#000" stroke="none" d="M3,11c-0.552285,0 -1,0.447715 -1,1v7c0,0.552285 0.447715,1 1,1h14c0.552285,0 1,-0.447715 1,-1v-7c0,-0.552285 -0.447715,-1 -1,-1h-14Zm7,-11c3.31371,0 6,2.68629 6,6v3h1c1.65685,0 3,1.34315 3,3v7c0,1.65685 -1.34315,3 -3,3h-14c-1.65685,0 -3,-1.34315 -3,-3v-7c0,-1.65685 1.34315,-3 3,-3h1v-3c0,-3.31371 2.68629,-6 6,-6Zm0,2c-2.20914,0 -4,1.79086 -4,4v3h8v-3c0,-2.20914 -1.79086,-4 -4,-4Z" transform="matrix(1,0,0,1,2,1)"></path></g></svg>