<svg xmlns="http://www.w3.org/2000/svg" viewBox="0 0 426.09 348.01"><defs><style>.cls-1{fill:#f0f9fc;}.cls-2{fill:#fff;}.cls-3{fill:#4f5a79;}.cls-4{fill:#b9e8fd;}.cls-5{fill:#fcbba9;}.cls-6{fill:#d2f0ff;}.cls-7{fill:#505b7a;}</style></defs><g id="Layer_2" data-name="Layer 2"><g id="Layer_1-2" data-name="Layer 1"><path class="cls-1" d="M410.52,80.07q-1.27-3.19-2.7-6.32c-12.84-28.31-36.53-46.58-65-57.34-10.28-6.84-24.68-8.7-35-9.95-13.27-1.62-26-2.39-39.45-3.06-51.21-2.56-104-8.95-154.28,7.39C96,16.67,76.88,23.51,61,35.06c-13.2,9.58-27.9,18.5-36.64,33.51A172.57,172.57,0,0,0,5.55,116.41,197.49,197.49,0,0,0,1.7,138.72C.1,144.49,0,151.07,0,157.26l.4-.15c-.65,23.07,2.25,46.2,7.17,69.15,6.46,30.12,16.79,58.66,37.07,80.05,13.74,14.51,26.77,23.72,45,30.3,43.08,15.59,92.75,10.66,137.43,10.66,18.46,0,37,.2,55.36-2.08,14.56-1.8,28-.34,42.56-4.6a134.18,134.18,0,0,0,73.16-53.9c20.12-29.86,25.71-67,27.73-103.32.9-16.38-.66-29.24-3.06-45C419.69,118.12,418.16,99.17,410.52,80.07Z"/><rect class="cls-2" x="116.89" y="51.77" width="39.13" height="56.07" transform="translate(29.95 196.61) rotate(-77.96)"/><path class="cls-3" d="M159.79,105.78l-.21,0-54.83-11.7a1,1,0,0,1-.77-1.18l8.16-38.27a1,1,0,0,1,1.18-.77l54.84,11.7a1,1,0,0,1,.63.43,1,1,0,0,1,.14.75L160.77,105A1,1,0,0,1,159.79,105.78ZM106.14,92.31,159,103.59l7.74-36.31L113.89,56Z"/><rect class="cls-4" x="150.61" y="63.97" width="7.26" height="15.73" transform="translate(51.82 207.7) rotate(-77.96)"/><path class="cls-3" d="M157.17,91.19l-.22,0L142.3,87.87a1,1,0,1,1,.44-2l14.65,3.29a1,1,0,0,1-.22,2Z"/><path class="cls-3" d="M156.56,96l-.22,0-14.66-3.3a1,1,0,0,1,.44-2l14.66,3.29a1,1,0,0,1-.22,2Z"/><path class="cls-3" d="M131.29,71.65l-.23,0-14.25-3.38a1,1,0,0,1,.46-1.95l14.25,3.38a1,1,0,0,1,.75,1.21A1,1,0,0,1,131.29,71.65Z"/><polygon class="cls-5" points="179.22 147.75 151.61 147.75 151.61 238.35 182.35 238.35 199.07 238.35 305.06 238.35 305.06 147.75 275.66 147.75 179.22 147.75"/><polygon class="cls-5" points="151.07 147.59 179.2 122.47 275.26 120.89 305.16 147.59 151.07 147.59"/><path class="cls-3" d="M305.06,239.35H151.61a1,1,0,0,1-1-1V147.76a1,1,0,0,1,1-1H305.06a1,1,0,0,1,1,1v90.59A1,1,0,0,1,305.06,239.35Zm-152.45-2H304.06V148.76H152.61Z"/><path class="cls-2" d="M194,287.2a34.23,34.23,0,0,1-11.26-24.73V207a13.39,13.39,0,0,1,13.4,13.39v18l.83-.08c10,0,51.65.55,51.65.55l.69,16.33.05,4.48.08,1.31a34.19,34.19,0,0,1-10.15,25.2Z"/><path class="cls-3" d="M194,288.2a1,1,0,0,1-.67-.26,35.42,35.42,0,0,1-11.59-25.45V207a1,1,0,0,1,1-1,14.41,14.41,0,0,1,14.4,14.39v16.94c10.45,0,51.08.53,51.49.54a1,1,0,0,1,1,1l.69,16.34.05,4.51.08,1.25a35.39,35.39,0,0,1-10.45,26,1,1,0,1,1-1.4-1.42A33.35,33.35,0,0,0,248.39,261l-.08-1.27-.05-4.53-.65-15.36c-6.26-.08-41.61-.53-50.69-.53l-.74.07a1,1,0,0,1-.76-.26,1,1,0,0,1-.33-.73v-18a12.41,12.41,0,0,0-11.4-12.35v54.39a33.41,33.41,0,0,0,10.93,24,1,1,0,0,1,.08,1.41A1,1,0,0,1,194,288.2Z"/><path class="cls-3" d="M151.07,148.59a1,1,0,0,1-.67-1.74l28.14-25.13a1,1,0,0,1,.65-.25l96.06-1.58a1,1,0,0,1,.68.26l29.9,26.7a1,1,0,1,1-1.33,1.49L274.89,121.9l-95.3,1.56-27.86,24.88A1,1,0,0,1,151.07,148.59Z"/><path class="cls-2" d="M196.46,252.4V238.12h-.08v-18a13.4,13.4,0,0,0-13.4-13.4V252.4Z"/><path class="cls-3" d="M196.29,253.4a1,1,0,0,1-1-1l-.09-32.27a12.46,12.46,0,0,0-11.49-12.36V252.4a1,1,0,0,1-2,0V206.73a1,1,0,0,1,1-1,14.48,14.48,0,0,1,14.52,14.4v17.63a.9.9,0,0,1,.08.36V252.4A1,1,0,0,1,196.29,253.4Z"/><path class="cls-3" d="M228.21,187.71a1,1,0,0,1-.44-.1L151.2,149.74a1,1,0,1,1,.88-1.79l76.13,37.64L304.34,148a1,1,0,0,1,1.34.45,1,1,0,0,1-.46,1.34l-76.57,37.87A1,1,0,0,1,228.21,187.71Z"/><path class="cls-2" d="M188.72,73.89a8.65,8.65,0,0,0-8.65,8.65v6.85l-.54,73.32L228.76,188l46.32-24.46.37-64.85,7.15-24.8H188.72Z"/><path class="cls-3" d="M228.76,189a1,1,0,0,1-.46-.11L179.08,163.6a1,1,0,0,1-.55-.89l.54-73.32V82.54a9.66,9.66,0,0,1,9.65-9.65H282.6a1,1,0,0,1,1,1.28l-7.11,24.66-.37,64.72a1,1,0,0,1-.54.88l-46.32,24.46A1,1,0,0,1,228.76,189Zm-48.22-26.9,48.21,24.77,45.33-23.93.37-64.26a.84.84,0,0,1,0-.27l6.78-23.52H188.72a7.66,7.66,0,0,0-7.65,7.65v6.85Z"/><path class="cls-2" d="M293.05,98.44V82.29a8.65,8.65,0,1,0-17.29,0V98.44Z"/><path class="cls-3" d="M293.05,99.44H275.76a1,1,0,0,1-1-1V82.29a9.65,9.65,0,1,1,19.29,0V98.44A1,1,0,0,1,293.05,99.44Zm-16.29-2h15.29V82.29a7.65,7.65,0,1,0-15.29,0Z"/><path class="cls-3" d="M220.76,263.42a1,1,0,0,1-1-1,22.19,22.19,0,0,0-22.17-22.16,1,1,0,0,1,0-2,24.2,24.2,0,0,1,24.17,24.16A1,1,0,0,1,220.76,263.42Z"/><rect class="cls-2" x="187.66" y="286.61" width="57.03" height="21.39"/><path class="cls-3" d="M244.69,309h-57a1,1,0,0,1-1-1V286.61a1,1,0,0,1,1-1h57a1,1,0,0,1,1,1V308A1,1,0,0,1,244.69,309Zm-56-2h55V287.61h-55Z"/><rect class="cls-6" x="181.55" y="300.87" width="73.33" height="45.32"/><path class="cls-3" d="M254.87,347.19a1,1,0,0,1-1-1V301.87H182.55v44.32a1,1,0,0,1-2,0V300.87a1,1,0,0,1,1-1h73.32a1,1,0,0,1,1,1v45.32A1,1,0,0,1,254.87,347.19Z"/><path class="cls-7" d="M248.25,313.34a3.82,3.82,0,1,1-3.82-3.81A3.82,3.82,0,0,1,248.25,313.34Z"/><path class="cls-3" d="M246.22,314.85H235a1,1,0,0,1,0-2h11.21a1,1,0,1,1,0,2Z"/><path class="cls-3" d="M266.57,95.11H233.31a1,1,0,0,1,0-2h33.26a1,1,0,0,1,0,2Z"/><path class="cls-3" d="M266.57,103H233.31a1,1,0,0,1,0-2h33.26a1,1,0,0,1,0,2Z"/><path class="cls-3" d="M252.84,130.48H201.11a1,1,0,0,1,0-2h51.73a1,1,0,0,1,0,2Z"/><path class="cls-3" d="M252.84,140.51H201.11a1,1,0,0,1,0-2h51.73a1,1,0,1,1,0,2Z"/><path class="cls-3" d="M252.84,150.54H201.11a1,1,0,0,1,0-2h51.73a1,1,0,0,1,0,2Z"/><rect class="cls-2" x="339.12" y="100.56" width="36.38" height="57" transform="translate(126.92 431.13) rotate(-72.53)"/><path class="cls-3" d="M353.81,141.19a1,1,0,0,1-.3,0,1,1,0,0,1-.59-.49l-18.33-35.17a1,1,0,0,1-.06-.76l.43-1.38a1,1,0,0,1,1.25-.66,1,1,0,0,1,.66,1.26l-.31,1,17.67,33.91,33.92-17.67.31-1a1,1,0,1,1,1.9.6l-.43,1.38a1,1,0,0,1-.49.58l-35.17,18.33A.92.92,0,0,1,353.81,141.19Z"/><path class="cls-3" d="M379,156a1,1,0,0,1-.3-.05l-54.36-17.11a1,1,0,0,1-.66-1.26l10.93-34.7a1,1,0,0,1,.49-.59,1,1,0,0,1,.76-.06l54.37,17.11a1,1,0,0,1,.65,1.25L380,155.27a1,1,0,0,1-.49.58A1,1,0,0,1,379,156ZM325.92,137.2l52.46,16.51,10.32-32.79L336.25,104.4Z"/><rect class="cls-2" x="54.52" y="147.08" width="67.2" height="42.89" transform="translate(-65.81 56.85) rotate(-26.43)"/><path class="cls-3" d="M93.39,182.18a.84.84,0,0,1-.31-.05L48.35,167.44a1,1,0,0,1-.59-.5l-1.59-3.22a1,1,0,0,1-.05-.77l15.29-44.53a1,1,0,0,1,1.26-.62l44.73,14.68a1,1,0,0,1,.58.51l1.6,3.22a1,1,0,0,1,0,.77L94.34,181.51A1,1,0,0,1,93.39,182.18Zm-44-16.51,43.4,14.25,14.83-43.2-1.22-2.47L63,120,48.15,163.2Z"/><polygon class="cls-6" points="92.66 179.7 58.66 168.45 44.34 139.4 89.75 117.02 104.24 146.43 92.66 179.7"/><path class="cls-3" d="M66.8,204a1,1,0,0,1-.89-.55L46.81,165a1,1,0,1,1,1.79-.89l18.65,37.51,58.39-29L107,135.1a1,1,0,0,1,1.8-.89l19.09,38.41a1,1,0,0,1-.45,1.34L67.25,203.88A1,1,0,0,1,66.8,204Z"/><path class="cls-3" d="M59.57,171.29a1,1,0,0,1-.9-.56L43.44,139.84a1,1,0,0,1,0-.77,1,1,0,0,1,.5-.57l45.41-22.38a1,1,0,0,1,1.34.45l15.13,30.71a1,1,0,0,1-1.8.88l-14.69-29.8L45.68,139.85l14.78,30a1,1,0,0,1-.89,1.45Z"/><rect class="cls-2" x="321.8" y="191.23" width="68.6" height="47.87" transform="matrix(0.97, -0.26, 0.26, 0.97, -43.41, 98.99)"/><path class="cls-3" d="M329.12,248.12a1,1,0,0,1-1-.74l-12.33-46.25a1,1,0,0,1,.71-1.23l66.28-17.67a1,1,0,0,1,.76.1,1,1,0,0,1,.46.61l12.33,46.26a1,1,0,0,1-.71,1.22l-66.28,17.67A1.09,1.09,0,0,1,329.12,248.12ZM318,201.58l11.81,44.32,64.35-17.15-11.81-44.33Z"/><rect class="cls-4" x="361.45" y="192.17" width="19.25" height="8.88" transform="matrix(0.97, -0.26, 0.26, 0.97, -38.12, 102.23)"/><path class="cls-3" d="M366.65,220.54a1,1,0,0,1-1-.76,1,1,0,0,1,.72-1.21L384.21,214a1,1,0,0,1,.5,1.94L366.9,220.5A.77.77,0,0,1,366.65,220.54Z"/><path class="cls-3" d="M368.67,226.17a1,1,0,0,1-.24-2l17.81-4.55a1,1,0,0,1,1.21.73,1,1,0,0,1-.72,1.21l-17.81,4.54A.73.73,0,0,1,368.67,226.17Z"/><path class="cls-3" d="M328,213.26a1,1,0,0,1-.24-2l17.42-4.22a1,1,0,0,1,1.21.74,1,1,0,0,1-.74,1.2l-17.42,4.23A.93.93,0,0,1,328,213.26Z"/><rect class="cls-2" x="83.01" y="229.44" width="47.69" height="30.44" transform="translate(-57.73 34.45) rotate(-14.47)"/><path class="cls-3" d="M109.29,255.11a.9.9,0,0,1-.5-.14L80.21,238.12a1,1,0,0,1-.46-.61l-.3-1.17a1,1,0,1,1,1.93-.5l.2.76,27.36,16.14,16.14-27.36-.2-.76a1,1,0,0,1,.72-1.22,1,1,0,0,1,1.22.72l.3,1.17a1,1,0,0,1-.11.75l-16.85,28.58a1,1,0,0,1-.62.46A1,1,0,0,1,109.29,255.11Z"/><path class="cls-3" d="M87.57,266.35a1,1,0,0,1-1-.75L79,236.13a1,1,0,0,1,.1-.76,1,1,0,0,1,.62-.46L125.89,223a1,1,0,0,1,1.22.72l7.6,29.48a1,1,0,0,1-.1.75,1,1,0,0,1-.61.46L87.82,266.32A1.07,1.07,0,0,1,87.57,266.35Zm-6.39-29.76,7.11,27.54,44.24-11.41-7.11-27.54Z"/><path class="cls-7" d="M321.25,83.36a13.44,13.44,0,0,1-6.67,0c-5.85-1.3-9.86-6.68-8.33-13.53,1.63-7.35,8.15-12.57,16.07-10.81,6.21,1.38,9.41,6.66,8.09,12.62-1.19,5.35-4.89,7.83-8.24,7.08-1.43-.32-2.53-1.57-1.94-3.73l-.15,0a5.72,5.72,0,0,1-5.73,2c-2.07-.46-3.48-2.53-2.85-5.35a8.63,8.63,0,0,1,10.34-6.58,9.7,9.7,0,0,1,3.65,1.6l-2.65,6.19c-1.14,2.59-1,3.94.18,4.23,1.81.44,4.39-1.53,5.31-5.67,1.15-5.17-1.13-9.57-6.66-10.8-5.82-1.3-11.73,2.22-13.34,9.46-1.33,6,1.75,10.5,7,11.68a11.35,11.35,0,0,0,5.66-.06Zm1.47-15.85a6.22,6.22,0,0,0-1.73-.65c-3.14-.7-6.33,1.7-7.1,5.16-.35,1.57.18,2.89,1.75,3.24,2.07.45,4.55-1.76,5.43-3.89Z"/><path class="cls-7" d="M132.09,208.28a11.77,11.77,0,0,1-4.72,3.52c-4.84,2.16-10.52.45-13.05-5.21-2.71-6.08-.83-13.21,5.72-16.13a9,9,0,0,1,12.39,4.69c2,4.43.65,8.13-2.12,9.37A2.4,2.4,0,0,1,127,202.9l-.12,0a5.08,5.08,0,0,1-3,4.45c-1.71.76-3.81,0-4.85-2.3A7.63,7.63,0,0,1,122.88,195a8.59,8.59,0,0,1,3.43-.79l1.38,5.79c.55,2.44,1.37,3.32,2.36,2.91,1.51-.64,2.3-3.4.78-6.82-1.91-4.28-5.85-6.2-10.42-4.16-4.81,2.14-7.15,7.75-4.48,13.74,2.19,4.93,6.76,6.53,11.13,4.58a10.08,10.08,0,0,0,4-3Zm-7.3-12a5.89,5.89,0,0,0-1.57.45c-2.6,1.16-3.6,4.54-2.32,7.4.58,1.3,1.65,2,2.94,1.38,1.71-.76,2.3-3.64,1.81-5.62Z"/><path class="cls-3" d="M292.27,288.56a13.53,13.53,0,1,1,3-26.73A1,1,0,0,1,296,263a1,1,0,0,1-1.2.75,11.54,11.54,0,1,0,8.57,8.24,1,1,0,0,1,1.94-.52,13.65,13.65,0,0,1,.12,6.54,13.54,13.54,0,0,1-13.16,10.52Z"/><path class="cls-3" d="M292.08,277.93a1,1,0,0,1-.67-.26L284,271a1,1,0,0,1,1.34-1.48l6.65,6,16.78-18.73a1,1,0,1,1,1.49,1.33L292.83,277.6a1,1,0,0,1-.7.33Z"/><path class="cls-3" d="M150.61,283.21a4.17,4.17,0,1,1,4.17-4.17A4.17,4.17,0,0,1,150.61,283.21Zm0-6.34a2.17,2.17,0,1,0,2.17,2.17A2.17,2.17,0,0,0,150.61,276.87Z"/><path class="cls-3" d="M243.17,58.33a8.74,8.74,0,1,1,8.74-8.74A8.76,8.76,0,0,1,243.17,58.33Zm0-15.48a6.74,6.74,0,1,0,6.74,6.74A6.76,6.76,0,0,0,243.17,42.85Z"/></g></g></svg>