<?xml version="1.0" encoding="utf-8"?>
<!-- Generator: Adobe Illustrator 24.1.0, SVG Export Plug-In . SVG Version: 6.00 Build 0)  -->
<svg version="1.1" id="Layer_1" xmlns="http://www.w3.org/2000/svg" xmlns:xlink="http://www.w3.org/1999/xlink" x="0px" y="0px"
	 viewBox="0 0 424.9 424.9" style="enable-background:new 0 0 424.9 424.9;" xml:space="preserve">
<style type="text/css">
	.st0{fill:#F0F9FC;}
	.st1{fill:#4F5A79;}
	.st2{fill:#B9E8FD;}
	.st3{fill:#FCBBA9;}
	.st4{fill:#FFFFFF;}
	.st5{fill:#D3E5E9;}
	.st6{fill:#505B7A;}
	.st7{fill:#FCC1B3;}
	.st8{fill:#D2F0FF;}
</style>
<g id="Layer_2_1_">
	<g id="Layer_1-2">
		<path class="st0" d="M112.5,377.1c-7.8,0.8-17.6-4-24.1-7.4c-14-7.2-27.9-13.5-40.4-22.8S23.5,329.4,15.3,316
			C8,304.2,6.6,289.6,7,276c0.2-5.9,0.7-11.6,3.5-16.9c2.3-4.5,8.9-8.6,9.9-13.4c1.1-5-3.7-10.3-6.2-14.2
			C8.4,222.3,3.5,214.6,1.3,204c-12-57.5,57.5-100.7,102-123.9c33.7-17.5,72.3-25.4,109.8-31c21.9-3.3,47.6-3.2,68.9,3.4
			c18.5,5.7,29.9,13.3,44.8,24.8c7,5.4,13,12,17.8,19.4c5.4,8.3,12.8,15.8,17,24.8c7.7,16.4,8.1,33.4,0.5,49.7
			c-1.6,3.3-6.8,10.9-5,14.8c1.5,3.1,8.9,4.9,12,6.7c35,19.7,57,64.1,55.7,102.6c-1.2,34.5-32.6,53.3-63.2,63.9
			c-20.2,7-42.3,20.5-64.9,18.6L112.5,377.1z"/>
		<path class="st1" d="M277.9,364.9H147c-0.6,0-1-0.4-1-1s0.4-1,1-1h131c0.6,0,1,0.4,1,1S278.6,364.9,277.9,364.9L277.9,364.9z"/>
		<rect x="109.6" y="221.3" class="st2" width="175.6" height="114.8"/>
		<polygon class="st3" points="197.5,293 109.9,221.3 197.5,149.6 285,221.3 		"/>
		<path class="st1" d="M285.2,337.1H109.6c-0.6,0-1-0.4-1-1V221.3c0-0.6,0.4-1,1-1h175.6c0.6,0,1,0.4,1,1v114.8
			C286.2,336.6,285.7,337.1,285.2,337.1z M110.6,335.1h173.6V222.3H110.6V335.1z"/>
		<path class="st1" d="M197.5,294c-0.2,0-0.5-0.1-0.6-0.2l-87.6-71.7c-0.2-0.2-0.4-0.5-0.4-0.8c0-0.3,0.1-0.6,0.4-0.8l87.6-71.7
			c0.4-0.3,0.9-0.3,1.3,0l87.5,71.7c0.2,0.2,0.4,0.5,0.4,0.8c0,0.3-0.1,0.6-0.4,0.8l-87.6,71.7C198,294,197.7,294,197.5,294z
			 M111.5,221.3l86,70.4l86-70.4l-86-70.4L111.5,221.3z"/>
		<polygon class="st4" points="127.7,235.1 197.2,291.5 266.7,235.1 266.7,169.8 127.7,169.8 		"/>
		<path class="st1" d="M128.2,237c-0.6,0-1-0.4-1-1v-66.3c0-0.6,0.4-1,1-1h138.3c0.6,0,1,0.4,1,1v65.7c0,0.6-0.4,1-1,1
			c-0.5,0-1,1.6-1,1v-66.7H129.2V238C129.2,238.5,128.8,237,128.2,237z"/>
		<polygon class="st5" points="175,273.5 181.5,278.8 181.5,278.8 212.9,278.8 212.9,278.8 219.4,273.5 		"/>
		<polygon class="st5" points="159.5,260.9 166,266.2 228.4,266.2 234.9,260.9 		"/>
		<polygon class="st5" points="144.1,248.4 150.5,253.6 243.9,253.6 250.3,248.4 		"/>
		<rect x="141.6" y="235.8" class="st5" width="111.3" height="5.3"/>
		<polygon class="st2" points="110.8,333.4 197.7,269.8 284,332.9 		"/>
		<path class="st1" d="M110.8,334.4c-0.6,0-1-0.5-1-1c0-0.3,0.2-0.6,0.4-0.8l87-63.6c0.4-0.3,0.8-0.3,1.2,0l86.3,63.2
			c0.4,0.3,0.5,1,0.2,1.4c0,0,0,0,0,0c-0.3,0.4-0.9,0.5-1.4,0.2L197.7,271l-86.4,63.2C111.2,334.3,111,334.4,110.8,334.4z"/>
		<path class="st6" d="M180.9,196.6c0,3.3-1.3,6-2.9,6s-2.9-2.7-2.9-6s1.3-6,2.9-6S180.9,193.3,180.9,196.6z"/>
		<path class="st6" d="M221.1,196.6c0,3.3-1.3,6-2.9,6s-2.9-2.7-2.9-6s1.3-6,2.9-6S221.1,193.3,221.1,196.6z"/>
		<path class="st2" d="M209.7,215.6c0,7-5.2,12.6-11.6,12.6s-11.6-5.6-11.6-12.6H209.7z"/>
		<path class="st1" d="M198.1,229.2c-7,0-12.6-6.1-12.6-13.6c0-0.6,0.4-1,1-1h23.2c0.6,0,1,0.4,1,1
			C210.7,223.1,205.1,229.2,198.1,229.2z M187.5,216.6c0.5,5.9,5,10.6,10.6,10.6s10.1-4.7,10.6-10.6H187.5z"/>
		<path class="st7" d="M235.4,213c0,4-3.2,7.2-7.2,7.2S221,217,221,213c0-4,3.2-7.2,7.2-7.2c0,0,0,0,0,0
			C232.2,205.8,235.4,209,235.4,213z"/>
		<path class="st7" d="M175.1,213c0,4-3.2,7.2-7.2,7.2s-7.2-3.2-7.2-7.2c0-4,3.2-7.2,7.2-7.2c0,0,0,0,0,0
			C171.9,205.8,175.1,209,175.1,213z"/>
		
			<ellipse transform="matrix(0.2306 -0.9731 0.9731 0.2306 40.0234 445.0492)" class="st4" cx="301.4" cy="197.2" rx="7.5" ry="7.5"/>
		<circle class="st7" cx="254.1" cy="151.6" r="3.7"/>
		<path class="st4" d="M86.8,269.2c0,6.2-5,11.2-11.2,11.2s-11.2-5-11.2-11.2s5-11.2,11.2-11.2C81.8,258,86.8,263,86.8,269.2
			L86.8,269.2z"/>
		<path class="st4" d="M103.4,201.2c0,1.3-1,2.3-2.3,2.3s-2.3-1-2.3-2.3c0-1.3,1-2.3,2.3-2.3c0,0,0,0,0,0
			C102.4,198.9,103.4,199.9,103.4,201.2C103.4,201.2,103.4,201.2,103.4,201.2z"/>
		<path class="st4" d="M315.2,319.7c0,3.6-3,6.6-6.6,6.6c-3.6,0-6.6-3-6.6-6.6c0-3.6,3-6.6,6.6-6.6S315.2,316.1,315.2,319.7
			L315.2,319.7z"/>
		<path class="st1" d="M73.7,197.5c-0.1,0-0.3,0-0.4-0.1l-14.5-6.1c-0.5-0.2-0.7-0.8-0.5-1.3c0.2-0.5,0.8-0.7,1.3-0.5l14.5,6.1
			c0.5,0.2,0.7,0.8,0.5,1.3C74.4,197.3,74,197.5,73.7,197.5L73.7,197.5z"/>
		<path class="st1" d="M95.9,157.4c-0.3,0-0.6-0.1-0.8-0.3l-9.8-11.5c-0.4-0.4-0.3-1.1,0.1-1.4c0.4-0.4,1.1-0.3,1.4,0.1l0,0
			l9.8,11.5c0.4,0.4,0.3,1.1-0.1,1.4C96.5,157.4,96.2,157.5,95.9,157.4L95.9,157.4z"/>
		<path class="st1" d="M141.6,129.8c-0.5,0-0.9-0.3-1-0.8l-3-12.5c-0.1-0.6,0.2-1.1,0.8-1.2c0.6-0.1,1.1,0.2,1.2,0.8l3,12.5
			c0.1,0.5-0.2,1.1-0.7,1.2c0,0,0,0,0,0L141.6,129.8z"/>
		<path class="st1" d="M199.2,122.2L199.2,122.2c-0.6,0-1-0.5-1-1l0.6-13.8c0-0.6,0.4-1,1-1s1,0.4,1,1l-0.6,13.8
			C200.2,121.7,199.8,122.2,199.2,122.2z"/>
		<path class="st1" d="M325.3,199.2c-0.6,0-1-0.5-1-1c0-0.4,0.2-0.8,0.6-0.9l14.5-6.1c0.5-0.2,1.1,0,1.3,0.5s0,1.1-0.5,1.3
			l-14.5,6.1C325.6,199.2,325.5,199.2,325.3,199.2z"/>
		<path class="st1" d="M303,159.2c-0.6,0-1-0.5-1-1c0-0.2,0.1-0.5,0.2-0.6l9.8-11.5c0.3-0.4,0.9-0.6,1.4-0.2
			c0.4,0.3,0.6,0.9,0.2,1.4c0,0-0.1,0.1-0.1,0.1l-9.8,11.5C303.6,159,303.3,159.2,303,159.2z"/>
		<path class="st1" d="M257.4,131.6c-0.1,0-0.2,0-0.2,0c-0.5-0.1-0.9-0.7-0.7-1.2c0,0,0,0,0,0l3-12.5c0.1-0.5,0.7-0.9,1.2-0.7
			c0.5,0.1,0.9,0.7,0.7,1.2l-3,12.5C258.2,131.2,257.8,131.6,257.4,131.6z"/>
		<path class="st7" d="M149.3,145.3c0,3.6-3,6.6-6.6,6.6c-3.6,0-6.6-3-6.6-6.6c0-3.6,3-6.6,6.6-6.6c0,0,0,0,0,0
			C146.4,138.7,149.3,141.6,149.3,145.3C149.3,145.3,149.3,145.3,149.3,145.3z"/>
		<path class="st8" d="M70.1,166.8c0,3.8-3.1,6.9-6.9,6.9c-3.8,0-6.9-3.1-6.9-6.9c0-3.8,3.1-6.9,6.9-6.9c0,0,0,0,0,0
			C67,159.9,70.1,163,70.1,166.8z"/>
		<path class="st8" d="M320.9,174.2c0,2.2-1.8,4-4,4s-4-1.8-4-4c0-2.2,1.8-4,4-4S320.9,172,320.9,174.2z"/>
		<ellipse transform="matrix(0.229 -0.9734 0.9734 0.229 115.0853 357.2089)" class="st8" cx="283" cy="106" rx="7.5" ry="7.5"/>
		<path class="st1" d="M222.7,354.6h-77.6c-0.6,0-1-0.4-1-1s0.4-1,1-1h77.6c0.6,0,1,0.4,1,1S223.3,354.6,222.7,354.6z"/>
	</g>
</g>
</svg>
