<?xml version="1.0" encoding="UTF-8"?><svg version="1.1" viewBox="0 0 20 22" xmlns="http://www.w3.org/2000/svg" xmlns:xlink="http://www.w3.org/1999/xlink"><!--Generated by IJSVG (https://github.com/iconjar/IJSVG)--><g transform="matrix(1,0,0,1,-2,-1)"><path fill="#000" stroke="none" d="M1,6c-0.552285,0 -1,-0.447715 -1,-1c0,-0.552285 0.447715,-1 1,-1h18c0.552285,0 1,0.447715 1,1c0,0.552285 -0.447715,1 -1,1h-18Zm15,-1c0,-0.552285 0.447715,-1 1,-1c0.552285,0 1,0.447715 1,1v14c0,1.65685 -1.34315,3 -3,3h-10c-1.65685,0 -3,-1.34315 -3,-3v-14c0,-0.552285 0.447715,-1 1,-1c0.552285,0 1,0.447715 1,1v14c0,0.552285 0.447715,1 1,1h10c0.552285,0 1,-0.447715 1,-1v-14Zm-8,4c0.552285,0 1,0.447715 1,1v6c0,0.552285 -0.447715,1 -1,1c-0.552285,0 -1,-0.447715 -1,-1v-6c0,-0.552285 0.447715,-1 1,-1Zm4,0c0.552285,0 1,0.447715 1,1v6c0,0.552285 -0.447715,1 -1,1c-0.552285,0 -1,-0.447715 -1,-1v-6c0,-0.552285 0.447715,-1 1,-1Zm0,-9c1.65685,0 3,1.34315 3,3v2c0,0.552285 -0.447715,1 -1,1c-0.552285,0 -1,-0.447715 -1,-1v-2c0,-0.552285 -0.447715,-1 -1,-1h-4c-0.552285,0 -1,0.447715 -1,1v2c0,0.552285 -0.447715,1 -1,1c-0.552285,0 -1,-0.447715 -1,-1v-2c0,-1.65685 1.34315,-3 3,-3h4Z" transform="matrix(1,0,0,1,2,1)"></path></g></svg>