<?xml version="1.0" encoding="UTF-8"?><svg version="1.1" viewBox="0 0 20 19" xmlns="http://www.w3.org/2000/svg" xmlns:xlink="http://www.w3.org/1999/xlink"><!--Generated by IJSVG (https://github.com/iconjar/IJSVG)--><g transform="matrix(1,0,0,1,-2,-2)"><path fill="#000" stroke="none" d="M9,11c0.928406,0 1.35569,1.15506 0.650791,1.75926l-4.94753,4.24074h4.29674c0.552285,0 1,0.447715 1,1c0,0.552285 -0.447715,1 -1,1h-7c-0.928406,0 -1.35569,-1.15506 -0.650791,-1.75926l4.94753,-4.24074h-4.29674c-0.552285,0 -1,-0.447715 -1,-1c0,-0.552285 0.447715,-1 1,-1h7Zm7,-10c0.552285,0 1,0.447715 1,1l-2.2e-06,12.585l2.2929,-2.29211c0.390524,-0.390524 1.02369,-0.390524 1.41421,0c0.390524,0.390524 0.390524,1.02369 0,1.41421l-4,4c-0.0284663,0.0284663 -0.0586409,0.0552244 -0.0903567,0.0801072l0.0903567,-0.0801072c-0.0353941,0.035394 -0.0727812,0.0675802 -0.1118,0.0965586c-0.0241759,0.0178445 -0.0490316,0.0346159 -0.0746464,0.0502672c-0.0120471,0.0074605 -0.0242658,0.0145686 -0.0365981,0.0213962c-0.0197682,0.0108773 -0.0401707,0.0212946 -0.060963,0.0310174c-0.0170006,0.0079748 -0.0343035,0.0154574 -0.0517631,0.0224283c-0.0197568,0.0079098 -0.0395383,0.015103 -0.0595996,0.0216788c-0.0148851,0.004818 -0.0302731,0.009449 -0.0457434,0.0137016c-0.0215565,0.0060115 -0.0432469,0.0112053 -0.0651989,0.0156799c-0.0174188,0.003463 -0.0348451,0.0065371 -0.0523272,0.0091474c-0.0203525,0.0031119 -0.0414095,0.0055818 -0.0626559,0.0073875c-0.0178879,0.0014853 -0.03522,0.0025075 -0.0525642,0.0030809c-0.0108449,0.0003645 -0.0220243,0.0005494 -0.0332468,0.0005494l-0.0322546,-0.0005171c-0.0180118,-0.0005776 -0.0360109,-0.0016393 -0.0539762,-0.003185l0.0862308,0.0037021c-0.0506203,0 -0.100362,-0.0037612 -0.148961,-0.0110193c-0.0169878,-0.0026088 -0.0344141,-0.0056829 -0.0517646,-0.0092208c-0.0220203,-0.0043997 -0.0437107,-0.0095935 -0.0651138,-0.0154809c-0.0156237,-0.0043767 -0.0310117,-0.0090077 -0.0463029,-0.0140171c-0.0196552,-0.0063844 -0.0394367,-0.0135776 -0.058916,-0.0213659c-0.0177371,-0.0070924 -0.03504,-0.014575 -0.052163,-0.0225694c-0.0206699,-0.0097032 -0.0410724,-0.0201205 -0.0610555,-0.0312024c-0.0121174,-0.006623 -0.0243361,-0.0137311 -0.0364318,-0.0211197c-0.0255662,-0.0157232 -0.0504219,-0.0324946 -0.0744505,-0.050318c-0.0074437,-0.0054399 -0.0146831,-0.010971 -0.021863,-0.0166142c-0.0314436,-0.0247411 -0.0616182,-0.0514992 -0.0900845,-0.0799655l-4,-4c-0.390524,-0.390524 -0.390524,-1.02369 0,-1.41421c0.390524,-0.390524 1.02369,-0.390524 1.41421,0l2.29289,2.29211l2.2e-06,-12.585c0,-0.552285 0.447715,-1 1,-1Zm-9.60557,-0.447214l3.5,7c0.246989,0.493979 0.0467649,1.09465 -0.447214,1.34164c-0.493978,0.246989 -1.09465,0.0467649 -1.34164,-0.447214l-0.477798,-0.9553c-0.0418389,0.00533602 -0.0844856,0.00808665 -0.127775,0.00808665h-4c-0.0432891,0 -0.0859357,-0.00275063 -0.127775,-0.00808665l-0.477798,0.9553c-0.246989,0.493978 -0.847662,0.694203 -1.34164,0.447214c-0.493978,-0.246989 -0.694203,-0.847662 -0.447214,-1.34164l3.5,-7c0.368524,-0.737049 1.42033,-0.737049 1.78885,0Zm-0.894427,2.68328l-1.132,2.26293h2.263l-1.131,-2.26293Z" transform="matrix(1,0,0,1,1,2)"></path></g></svg>