<?xml version="1.0" encoding="UTF-8"?><svg version="1.1" viewBox="0 0 118 114" xmlns="http://www.w3.org/2000/svg" xmlns:xlink="http://www.w3.org/1999/xlink"><!--Generated by IJSVG (https://github.com/iconjar/IJSVG)--><defs><mask id="a" maskContentUnits="userSpaceOnUse" maskUnits="objectBoundingBox"><path fill="#FFF" d="M0.155197,0.387547h0.07352l-0.015754,0.010448h0.015754l-0.07352,0.14628l-0.084024,-0.083588Z"></path></mask><mask id="b" maskContentUnits="userSpaceOnUse" maskUnits="objectBoundingBox"><path fill="#FFF" d="M0.108365,0.387547v0.010448h-0.015754Z"></path></mask><mask id="c" maskContentUnits="userSpaceOnUse" maskUnits="objectBoundingBox"><path fill="#FFF" d="M0.353007,9.34028l-0.101499,0.00744023l-0.0529884,-0.0029761l-0.0343305,-0.00074402c0.0111947,0.00074402 0.0231358,0.00223207 0.0343305,0.00297609l0.0529884,0.00372012c0.129113,0.0111603 0.263449,0.0238087 0.39704,0.0275288c0.482866,0.032737 0.967225,0.0565457 1.45009,0.0691941l0.0813484,0.00446414c0.308975,0.00892827 0.619442,0.0156245 0.928417,0.0193446c-0.0903042,-0.0133924 -0.180608,-0.0245528 -0.270913,-0.0305049l-0.0619442,-0.0691941h-0.0403011c-0.17016,0 -0.341813,0.032737 -0.509734,0.032737c-0.0149263,0 -0.0298526,0 -0.0455253,-0.00074402l-0.0813484,0.0200886c-0.48809,-0.0238087 -0.970957,-0.0572898 -1.45009,-0.0572898c-0.100753,-0.0066962 -0.202252,-0.0178565 -0.295541,-0.0260408Zm27.5741,-4.94106c-0.157473,0.0758904 -0.317184,0.148805 -0.474657,0.218743l-0.0985137,0.0483615c0.193296,-0.0870507 0.383606,-0.174845 0.57317,-0.267104Zm1.86131,-0.916636l-0.0097021,0.00223206l-0.0238821,0.0126484c-0.0738852,0.0372012 -0.148517,0.0751463 -0.222402,0.11458c0.087319,-0.0416653 0.170906,-0.0840746 0.255986,-0.12946Zm5.86231,-3.47756c-0.288824,0.174101 -0.538094,0.348203 -0.793334,0.51784l-0.148517,0.0364571l-0.0194042,0.0208326c-0.178369,0.113092 -0.350768,0.234367 -0.529138,0.351179c-0.178369,0.117556 -0.3545,0.235111 -0.532869,0.348203c-0.292556,0.18675 -0.582873,0.364571 -0.874682,0.542393c-0.347037,0.209815 -0.698552,0.414421 -1.05305,0.616051c1.34411,-0.749231 2.64793,-1.55798 3.951,-2.43296Z"></path></mask><mask id="d" maskContentUnits="userSpaceOnUse" maskUnits="objectBoundingBox"><path fill="#FFF" d="M13.3904,0.0126484l0.352261,0.258176h0.0037316l39.6398,13.9899l12.6792,4.4009h-26.1151v-9.13809c0,0.153269 -0.341813,0.302073 -0.567946,0.452366c-0.288824,0.174101 -0.538094,0.348203 -0.793334,0.51784l-0.148517,0.0364571l-0.0194042,0.0208327c-0.178369,0.113091 -0.350768,0.234367 -0.529138,0.351179c-0.178369,0.117556 -0.3545,0.235111 -0.532869,0.348203c-0.292556,0.18675 -0.582873,0.364571 -0.875428,0.542393c-0.34629,0.209815 -0.697805,0.414421 -1.05231,0.616051c-0.409727,0.229903 -0.823933,0.45311 -1.24336,0.669621c-0.146278,0.0818425 -0.270166,0.159221 -0.415698,0.235855v0.0037201l-0.248523,0.13318c-0.0014926,0.000744 -0.0029853,0.001488 -0.0037316,0.002232l-0.0097021,0.0022321l-0.0238821,0.0126484c-0.0738853,0.0372011 -0.148517,0.0751463 -0.222402,0.114579c-0.011941,0.0059522 -0.0253747,0.0126484 -0.0380621,0.0186006c-0.0843337,0.0446414 -0.164189,0.0848186 -0.253747,0.128716l-0.111947,0.0572898c-0.0701537,0.0364571 -0.142546,0.0766344 -0.211207,0.109371c-0.259718,0.13318 -0.523167,0.258176 -0.792587,0.38094l-0.0686611,0.0312489l-0.0522421,0.0238088c-0.0246284,0.0126484 -0.0507494,0.0252968 -0.0768705,0.0372011c-0.157473,0.0758904 -0.317184,0.148805 -0.474657,0.218743l-0.0985137,0.0483615l-0.0925431,0.0401773l-0.186579,0.0840746c-0.223895,0.097467 -0.438834,0.199398 -0.661236,0.292401l-0.0537348,0.0200886l-0.0522421,0.0238088l-0.171653,0.0684501l-0.040301,0.0163685c-0.186579,0.0855627 -0.373904,0.157733 -0.564961,0.239575l-0.16195,0.06473c-6.42951,2.59218 -13.2956,3.96415 -20.4043,3.96415c-0.617203,0 -1.23665,0 -1.85609,-0.0089283c-0.0888116,-0.0133924 -0.180608,-0.0245527 -0.270913,-0.0305049l-0.0619442,-0.0691942h-0.0403011c-0.17016,0 -0.341813,0.032737 -0.508987,0.032737h-0.0462716l-0.0813484,0.0193446c-0.488091,-0.0238087 -0.970957,-0.0572897 -1.45009,-0.0572897c-0.100753,-0.0066962 -0.202252,-0.0178566 -0.296287,-0.0260408l-0.100753,0.0074402l-0.0529884,-0.0029761l-0.0343305,-0.000744c-0.253001,-0.0200887 -0.500778,-0.0431534 -0.750047,-0.0699382l-0.0440326,-0.0044641c-0.179116,-0.0193446 -0.357485,-0.0401773 -0.539586,-0.06473c-0.860502,-0.116068 -1.70459,-0.278265 -2.53598,-0.513376l2.44568,-3.43292l10.9186,-15.2168Z"></path></mask><mask id="e" maskContentUnits="userSpaceOnUse" maskUnits="objectBoundingBox"><path fill="#FFF" d="M0.24397,0.061379l57.2432,20.9755l-0.0082095,0.0104163l0.0238821,0.0089283v-0.0133925l0.0917968,0.0334811l0.116425,-0.0052082v0.256688l-0.128366,-0.0572898l-0.0597053,-0.154013l-0.171653,0.207582l-0.216432,0.286449l-10.9305,15.3425l-2.45986,3.4292l-0.0097021,0.0133924l-0.103738,-0.0104163h-0.0201505c-2.30164,0 -4.55103,-0.785688 -6.73923,-1.39132l-0.0537348,-0.0238087c-0.526899,-0.154013 -1.05081,-0.32365 -1.5695,-0.494775c-0.288824,-0.0915149 -0.57317,-0.191214 -0.857517,-0.284217c-0.284346,-0.104907 -0.564215,-0.207583 -0.847815,-0.308026c-16.2354,-5.97227 -28.5817,-19.9376 -33.2708,-37.69l-0.0328379,-0.124996l0.00447789,-0.00669621Z"></path></mask><mask id="f" maskContentUnits="userSpaceOnUse" maskUnits="objectBoundingBox"><path fill="#FFF" d="M0.024153,0.240317l0.105029,-0.130607l0.194304,0.07314v0.167177Z"></path></mask><mask id="g" maskContentUnits="userSpaceOnUse" maskUnits="objectBoundingBox"><path fill="#FFF" d="M0.125071,0.111135c0.0630175,0.0104486 0.120784,0.0208971 0.183801,0.0470185l-0.0997777,0.14628l-0.204807,-0.0261214l0.120784,-0.167177Z"></path></mask><mask id="h" maskContentUnits="userSpaceOnUse" maskUnits="objectBoundingBox"><path fill="#FFF" d="M2.4718,0.0504061l-2.44493,3.43292c-0.00522421,-0.00074402 -0.0104484,-0.00297609 -0.0149263,-0.00372012l2.45986,-3.4292Z"></path></mask><mask id="i" maskContentUnits="userSpaceOnUse" maskUnits="objectBoundingBox"><path fill="#FFF" d="M9.42149,20.3022c-0.0261211,0.0409212 -0.0514958,0.0825865 -0.0768705,0.123508l-0.0410474,0.066218l0.0611979,0.0401773l-0.0701537,0.104907c-1.84191,2.86821 -3.43902,5.93507 -4.76597,9.16636c-0.332857,0.809497 -0.648548,1.62643 -0.945582,2.45751c-0.295541,0.824377 -0.576902,1.66512 -0.838859,2.51033c-0.106723,0.340018 -0.208222,0.680037 -0.305243,1.02452c-0.0768705,0.263384 -0.150009,0.52528 -0.223148,0.788664c-0.0686611,0.254456 -0.138815,0.505936 -0.203744,0.761136c-0.0686611,0.263384 -0.132844,0.522304 -0.19852,0.783456c-0.0649295,0.259664 -0.130605,0.522304 -0.191057,0.785688c-0.0813484,0.351923 -0.158219,0.703846 -0.235089,1.05502c-0.154487,0.70831 -0.292556,1.42108 -0.417937,2.14055c-0.130605,0.716494 -0.244792,1.43968 -0.345544,2.16511c-0.154487,1.09148 -0.279122,2.19636 -0.376889,3.30941c-0.0806021,0.926309 -0.141054,1.8608 -0.182847,2.80273c-0.0440326,0.942677 -0.0641832,1.88982 -0.0641832,2.84514c0,0.508912 0.00447789,1.01857 0.0171653,1.52822c0.0126874,0.5104 0.0268674,1.01634 0.0522421,1.52153c0.0925432,2.02225 0.279868,4.00508 0.556752,5.9559c0.0888116,0.650276 0.188818,1.29014 0.298526,1.93223c0.0485105,0.283473 0.143293,0.562481 0.207476,0.842234c0.0447789,0.19791 0.126874,0.396564 0.154487,0.59373c0.026121,0.158477 0.120157,0.320674 0.120157,0.477663v0.0126484c0,0.311002 0.0791095,0.648788 0.147771,0.95979c0.0447789,0.207582 0.040301,0.402517 0.0835874,0.589266c0.0335842,0.136156 0.0686611,0.296121 0.106723,0.442694c0.0350768,0.145085 0.0723926,0.334066 0.114186,0.50296v0.0833305c0.0268674,0.130204 0.05672,-0.108627 0.0880652,0.572154h0.0044779l0.0798558,-0.131692l-0.00671684,-0.0290169l-0.0410474,-0.130204l57.2962,21.1273l0.0156726,-0.0200886v0.0252968l0.0917969,0.034969l0.116425,-0.0052081v-0.0550577l5.54363,-7.73933c-0.231358,0.0364572 -0.729897,0.100443 -1.29486,0.181542l-0.0873189,0.0037201c-0.869458,0.12202 -2.00237,0.267848 -3.05318,0.360107c-0.641832,0.0572898 -1.25008,0.0937469 -1.75086,0.0937469c-7.0997,0 -13.0113,-2.54381 -17.3548,-6.94248c-0.0865726,-0.0848186 -0.165682,-0.169637 -0.243299,-0.25892c-0.0813484,-0.0855627 -0.162697,-0.166661 -0.240314,-0.250736c-0.319423,-0.339275 -0.629144,-0.692685 -0.929163,-1.05651c-0.471672,-0.569922 -0.9217,-1.15993 -1.34337,-1.77896c-0.117918,-0.170381 -0.236582,-0.340018 -0.345544,-0.514864c-0.100753,-0.148805 -0.200013,-0.302817 -0.291809,-0.45683c-0.0694074,-0.100443 -0.130605,-0.206094 -0.191057,-0.308025c-0.227626,-0.363083 -0.442565,-0.740303 -0.646309,-1.11901c-0.117918,-0.211303 -0.22688,-0.421861 -0.337335,-0.635396c-0.108962,-0.218743 -0.217924,-0.441206 -0.328379,-0.663669c-0.214939,-0.450134 -0.41719,-0.906964 -0.611979,-1.36751c-0.0985137,-0.235111 -0.191057,-0.469479 -0.284346,-0.703846c-1.56801,-4.02144 -2.40015,-8.64257 -2.40015,-13.6737c0,-3.14424 0.317184,-6.12182 0.929163,-8.89331c0.150756,-0.690453 0.325394,-1.37123 0.520182,-2.03862c0.142546,-0.492543 0.297034,-0.979134 0.458984,-1.45605c0.491822,-1.4568 1.07992,-2.84366 1.76205,-4.14644c0.0365695,-0.0736583 0.0649295,-0.150293 0.108962,-0.219487l0.0044779,-0.0126484l0.0320916,-0.0550577c0.0895579,-0.170381 0.183594,-0.337042 0.276883,-0.501472c0.0932894,-0.166661 0.187325,-0.328858 0.284346,-0.489567c0.0440326,-0.0818426 0.0925431,-0.162941 0.141054,-0.239576c0.0500032,-0.0803544 0.101499,-0.161453 0.150756,-0.243296c0.316438,-0.513376 0.653773,-1.01559 1.0023,-1.49995c0.0865726,-0.117556 0.170906,-0.235111 0.259718,-0.351923c0.109708,-0.150293 0.223895,-0.295377 0.337335,-0.441206c0.11344,-0.145084 0.227626,-0.287193 0.345544,-0.428557c0.117171,-0.141364 0.234343,-0.284217 0.357485,-0.421117c0.129113,-0.154013 0.26345,-0.302817 0.39704,-0.45311c0.109708,-0.124252 0.223148,-0.242552 0.337335,-0.364571c0.126874,-0.13318 0.251508,-0.263384 0.382114,-0.391356c0.125381,-0.12946 0.25524,-0.259664 0.38883,-0.38466c0.130605,-0.12946 0.264196,-0.2552 0.402264,-0.375732c0.134337,-0.12574 0.267927,-0.24776 0.405996,-0.364571c0.121649,-0.105651 0.244045,-0.210558 0.365695,-0.311002c0.434356,-0.3735 0.888862,-0.721702 1.35158,-1.05279c0.146278,-0.110115 0.296287,-0.214279 0.447043,-0.315466c0.149263,-0.105651 0.303751,-0.206838 0.458984,-0.303561c0.152995,-0.101187 0.308228,-0.198654 0.466447,-0.295377c0.158219,-0.096723 0.312706,-0.19047 0.473911,-0.284217c0.48809,-0.287193 0.991107,-0.553553 1.50681,-0.804289c0.143293,-0.0691941 0.285093,-0.139876 0.426146,-0.203862c0.147024,-0.063986 0.288078,-0.128716 0.435102,-0.192702c0.125381,-0.0565458 0.25524,-0.108627 0.385845,-0.162197c0.0238821,-0.0111603 0.0492569,-0.0245527 0.0738853,-0.0364571c-0.05672,0.0245528 -0.114933,0.0483615 -0.171653,0.0736583l-0.158965,0.06473l-0.0723926,0.032737c-0.0768705,0.031249 -0.154487,0.06473 -0.22688,0.101187l-0.167175,0.0729143l-0.0328379,0.0163685c-4.78314,2.16287 -8.50875,5.57273 -11.0305,10.2898l-0.0365695,-0.276777h-0.0082094l-0.0194042,0.031993l-0.101499,-0.031993h-0.0037316l-27.5383,-15.5709Zm16.9824,-16.6044c-5.5205,3.32281 -10.3798,7.66865 -14.3643,12.8753c3.99652,-5.17319 8.84757,-9.53242 14.3643,-12.8753Zm7.38181,-3.6844c-0.503763,0.199398 -1.00006,0.404749 -1.48666,0.617539c0.409727,-0.178566 0.82841,-0.351179 1.24933,-0.520816c0.0783632,-0.032737 0.157473,-0.06473 0.237328,-0.096723Z"></path></mask><mask id="j" maskContentUnits="userSpaceOnUse" maskUnits="objectBoundingBox"><path fill="#FFF" d="M0.039874,0.320581l0.194304,-0.250766v0.334354Z"></path></mask><mask id="k" maskContentUnits="userSpaceOnUse" maskUnits="objectBoundingBox"><path fill="#FFF" d="M57.5028,21.3399v0.001488l0.0917968,0.0334811l-0.0917968,-0.0349691Zm-57.3118,-21.1325l57.2962,21.128l-57.2432,-20.9755l-0.00447789,0.00669621l-0.00746316,-0.0290169l-0.0410474,-0.130204Z"></path></mask><mask id="l" maskContentUnits="userSpaceOnUse" maskUnits="objectBoundingBox"><path fill="#FFF" d="M0.039874,0.118734v-0.010449l0.194304,0.067916Z"></path></mask><mask id="m" maskContentUnits="userSpaceOnUse" maskUnits="objectBoundingBox"><path fill="#FFF" d="M1.54279,0.290169c-0.396706,0.343023 -0.790523,0.73505 -1.17856,1.0524c-0.0664386,0.0583373 -0.130951,0.0863392 -0.192576,0.0910062c0.0596984,-0.0536703 0.121323,-0.107341 0.18391,-0.161011c0.391891,-0.338356 0.790523,-0.665045 1.18723,-0.9824Z"></path></mask><mask id="n" maskContentUnits="userSpaceOnUse" maskUnits="objectBoundingBox"><path fill="#FFF" d="M0.184455,0.097953h0.110281l-0.220561,0.261214Z"></path></mask><mask id="o" maskContentUnits="userSpaceOnUse" maskUnits="objectBoundingBox"><path fill="#FFF" d="M51.2099,58.4527c0,3.02594 -0.813484,5.94698 -1.61801,8.71474l-0.0365695,0.0275289l-0.0052242,0.0044641l0.0111948,0.0044642l0.0156726,0.0476174l-0.0432863,-0.0074402l-0.0029853,-0.0401772l0.0126874,-0.0044642l0.0074631,-0.0044641l0.0395548,-0.0275289c0.804528,-2.76777 1.61951,-5.6888 1.61951,-8.71474Zm-31.5512,-58.4415c7.24299,-2.25514e-15 13.986,1.1763 20.2834,3.62042c0.31196,0.124996 0.629891,0.250736 0.941851,0.380196l0.144785,0.0565457l0.167921,0.0691941l0.375397,0.157733c0.144039,0.0602659 0.286585,0.169637 0.427639,0.234367c0.0686611,0.0290169 0.138068,0.110115 0.203744,0.149549l0.0201505,0.0870507l0.0485106,0.0915148h0.0089558c0.0597052,0 0.120157,-0.033481 0.180608,-0.033481c0.0208968,0 0.0417937,0.00520817 0.0619442,0.0141364c0.52466,0.232135 1.04036,0.410701 1.55532,0.665157c0.296287,0.145829 0.596306,0.260408 0.889608,0.412189c0.165682,0.0818425 0.33211,0.156245 0.494061,0.241063c0.231358,0.126484 0.523167,0.238831 0.783632,0.359363l0.126874,0.0580338l0.0171653,0.0602659c1.86728,1.0327 3.45246,2.18743 5.50109,3.47012v-7.97146h32.1244v85.0478v-74.9082l-32.6827,45.7753c0.0037315,0.126484 -0.123142,0.250736 -0.123142,0.376476c0,-0.12574 0.0029852,-0.249992 -0.002239,-0.376476c-0.0074632,-0.0892827 0,-0.177078 -0.0074632,-0.267104l0.0052243,-0.0238087c-0.02836,-0.271568 -0.058959,-0.534953 -0.0559737,-0.804289c-0.117172,-4.85847 -0.938865,-9.29731 -2.42553,-13.1811c-0.0932895,-0.259664 -0.192549,-0.51412 -0.303004,-0.768576c-0.0559737,-0.145084 -0.120903,-0.287193 -0.181355,-0.428557c-0.0529884,-0.145085 -0.118664,-0.287193 -0.187325,-0.429301l-0.0559737,-0.124996c-0.105231,-0.243296 -0.214939,-0.482127 -0.332857,-0.716494c-0.146278,-0.295377 -0.291809,-0.58629 -0.442565,-0.873483c-0.129859,-0.2552 -0.273152,-0.509656 -0.414205,-0.757415c-0.138068,-0.250736 -0.284346,-0.492543 -0.433609,-0.735839c-0.0738852,-0.120532 -0.147024,-0.241808 -0.223895,-0.360107c-0.0731389,-0.12202 -0.154487,-0.238087 -0.231358,-0.355643c-0.147024,-0.222463 -0.292556,-0.444926 -0.442565,-0.659204c-0.162697,-0.235111 -0.328379,-0.462038 -0.503017,-0.687477l-0.0455253,-0.065474l-0.0723926,-0.096723c-0.105977,-0.138388 -0.215685,-0.275288 -0.324647,-0.412189c-0.325394,-0.409213 -0.658997,-0.805777 -1.01126,-1.19044c-0.227626,-0.254456 -0.463462,-0.505192 -0.710493,-0.749231c-0.12165,-0.120532 -0.244045,-0.241807 -0.369426,-0.363083c-0.157473,-0.154013 -0.320169,-0.307281 -0.482866,-0.452366c-0.0895579,-0.0855627 -0.182847,-0.166661 -0.271659,-0.24776c-0.130605,-0.1183 -0.256733,-0.229903 -0.39107,-0.336298c-1.48517,-1.25442 -3.12482,-2.3221 -4.91598,-3.17921c-0.315691,-0.153269 -0.637354,-0.299097 -0.962001,-0.439718c-0.531377,-0.226927 -1.07246,-0.433765 -1.62846,-0.622747l-0.117918,-0.0416653l-0.11344,-0.0401772c-2.52926,-0.853395 -5.31004,-1.33552 -8.31844,-1.42034c-2.59419,0.0721702 -5.01748,0.444926 -7.24673,1.09967l-0.12165,0.0327371l-0.0201505,0.0089282c-0.223148,0.06473 -0.444058,0.133924 -0.662728,0.204606c0.01418,-0.0052082 0.0291063,-0.0096723 0.04254,-0.0156245l-0.0097021,-0.0074402c0.202252,-0.0602659 0.355246,-0.124996 0.553766,-0.181542l-0.0537348,-0.0089282v-0.0074403l0.131352,-0.098955l0.103738,-0.228415h-0.0037316l-15.2622,-25.1986c0.02836,-0.0096723 0.05672,-0.0200886 0.0858263,-0.0297609l0.0268674,-0.00372012l0.0917968,-0.0372012c-0.0388084,0.0141364 -0.0791095,0.0275289 -0.118664,0.0409213l-0.0925432,0.0156245v0.00372012l0.00671684,0.0104163c-0.829903,0.287193 -1.66652,0.592242 -2.48747,0.91738c0.87095,-0.354899 1.74936,-0.692685 2.64345,-0.995503c5.24884,-1.80054 10.9052,-2.72684 16.8152,-2.72684Z"></path></mask><mask id="p" maskContentUnits="userSpaceOnUse" maskUnits="objectBoundingBox"><path fill="#FFF" d="M34.7589,0.0697507v74.9082l-34.291,-19.8803l-0.147771,-0.0491055l-0.0156726,-0.0476174l-0.0111947,-0.0044642l0.00522421,-0.0044641l0.0365695,-0.0275289c0.804528,-2.76702 1.61801,-5.6888 1.61801,-8.71474v-0.0282728c0,-0.12574 0.126874,-0.249992 0.123142,-0.376476l32.6827,-45.7753Z"></path></mask><mask id="q" maskContentUnits="userSpaceOnUse" maskUnits="objectBoundingBox"><path fill="#FFF" d="M40.4271,24.379h-0.0052242l-0.097021,0.150293l-0.172399,0.139132l-0.111201,0.0863067c-0.0656758,0.0238087 -0.126127,0.0699381 -0.190311,0.0937469c-0.0395547,0.0141364 -0.0791094,0.033481 -0.116425,0.0528256c0.194042,-0.0825865 0.390323,-0.162197 0.590336,-0.233623l0.097021,-0.0401773c0.165682,-0.0595218 0.329872,-0.1183 0.497046,-0.177822h-0.0208968c-0.0223895,0 -0.0455253,-0.000744 -0.0694074,-0.0029761c-0.0246284,-0.000744 -0.0485105,-0.0029761 -0.0723926,-0.0029761c-0.0395548,0 -0.0783632,0.0052082 -0.117918,0.0208327c-0.0089558,0.0029761 -0.016419,0.0044641 -0.0238821,0.0044641c-0.0641832,0 -0.123142,-0.0900268 -0.187325,-0.0900268Zm-37.6434,-8.403c-0.0268674,0.0349691 -0.054481,0.0706822 -0.0813484,0.105651c-0.324647,0.421117 -0.64407,0.84893 -0.957523,1.28121c-0.152995,0.214279 -0.308228,0.430789 -0.462716,0.649532c-0.207476,0.307282 -0.418683,0.605635 -0.62989,0.917381c-0.19852,0.299097 -0.400772,0.581082 -0.596306,0.892828l0.0320916,-0.0312489l0.0208968,-0.0416653l0.0529884,-0.0476175l0.00373158,0.0029761c0.158219,-0.252224 0.322408,-0.499239 0.486598,-0.749975c0.211207,-0.310258 0.422415,-0.622747 0.62989,-0.930029c0.154487,-0.223207 0.309721,-0.441206 0.462716,-0.659204c0.313453,-0.433021 0.632876,-0.860835 0.957523,-1.2827c0.0276137,-0.0357131 0.0544811,-0.0721702 0.0813484,-0.107139Zm20.2595,-15.9414c-0.252255,0.113092 -0.505256,0.221719 -0.75154,0.339275c-0.373904,0.169637 -0.74333,0.348203 -1.11649,0.531232c-0.370173,0.181542 -0.739599,0.367547 -1.10455,0.554297c-0.349276,0.181542 -0.697805,0.368291 -1.04335,0.557273c-0.344798,0.189726 -0.690342,0.383916 -1.03141,0.57885l-0.0641832,0.0401773c-0.138068,0.0818425 -0.275391,0.160709 -0.418683,0.246272c-0.120903,0.0699382 -0.244045,0.141364 -0.364948,0.218743c0.120903,-0.0773784 0.244045,-0.148805 0.364948,-0.218743c0.143293,-0.0855626 0.280615,-0.165917 0.418683,-0.246272l0.0641832,-0.0401773c0.341066,-0.194934 0.68661,-0.389124 1.03141,-0.57885c0.345544,-0.19419 0.694074,-0.379452 1.04335,-0.562481c0.364948,-0.19047 0.734375,-0.372012 1.10455,-0.549089c0.373158,-0.18303 0.742584,-0.361595 1.11649,-0.531232c0.246284,-0.117556 0.499285,-0.226183 0.75154,-0.339275Z"></path></mask><mask id="r" maskContentUnits="userSpaceOnUse" maskUnits="objectBoundingBox"><path fill="#FFF" d="M27.0158,0.285517c-0.829903,0.287193 -1.66652,0.592242 -2.48598,0.91738c-0.0798558,0.031993 -0.158965,0.063986 -0.237328,0.096723c-0.420922,0.169637 -0.839605,0.342251 -1.24933,0.520816c-0.252255,0.113836 -0.505256,0.222463 -0.75154,0.340019c-0.373904,0.169637 -0.74333,0.348203 -1.11649,0.530488c-0.370173,0.181542 -0.739599,0.368291 -1.10455,0.555041c-0.349276,0.181542 -0.697805,0.366803 -1.04335,0.557273c-0.344798,0.189726 -0.690342,0.383916 -1.03141,0.57885l-0.0641832,0.0401773c-0.138068,0.0818425 -0.275391,0.162197 -0.418683,0.247016c-0.120903,0.0677061 -0.244045,0.141364 -0.364948,0.217999c-5.51677,3.3429 -10.3678,7.70213 -14.3643,12.8753c-0.0268674,0.0357131 -0.0537347,0.0714262 -0.0813484,0.107139c-0.324647,0.420373 -0.64407,0.849674 -0.957523,1.28195c-0.152995,0.218743 -0.308228,0.436742 -0.462716,0.659948c-0.207476,0.307281 -0.418683,0.619027 -0.62989,0.930029c-0.164189,0.250736 -0.328379,0.497751 -0.486598,0.749975l27.5383,15.5709h0.0037316l0.101499,0.031993l0.0194043,-0.031993h0.0082094l0.0365695,0.276777c2.5218,-4.71711 6.24741,-8.12548 11.0305,-10.2898l0.0328378,-0.0163685l0.167175,-0.0729142c0.0723926,-0.0364572 0.150009,-0.0699382 0.22688,-0.101187l0.0723926,-0.032737l0.158965,-0.06473c0.05672,-0.0252968 0.114933,-0.0491055 0.172399,-0.0736583c0.0373158,-0.0186006 0.0768705,-0.0372011 0.116425,-0.0528256c0.0641832,-0.0238088 0.124635,-0.0699382 0.190311,-0.0937469l0.111201,-0.0863067l0.172399,-0.139132l0.097021,-0.151781h0.0052242c0.0641832,0 0.123142,0.0922589 0.187325,0.0922589c0.0074631,0 0.0149263,-0.0022321 0.0238821,-0.0052082c0.0395547,-0.0171125 0.0783631,-0.0215767 0.117918,-0.0215767c0.0238821,0 0.0477642,0.0014881 0.0723926,0.0037201c0.0238821,0.0022321 0.0470179,0.0037202 0.0694074,0.0037202c0.0067168,0 0.0134336,-0.0007441 0.0208968,-0.0007441c0.0253747,-0.0096723 0.0522421,-0.0193446 0.0791095,-0.0290169c0.17016,-0.0602658 0.341813,-0.1183 0.515704,-0.174845c0.01418,-0.0052082 0.0291064,-0.0096723 0.0432864,-0.0156245l-0.0104485,-0.0081842c0.202252,-0.0602659 0.355246,-0.124252 0.553766,-0.182286l-0.0537347,-0.0074402v-0.0074402l0.131352,-0.0989551l0.10523,-0.228415h-0.0052242l-15.2622,-25.1986Zm0.0858263,-0.0297609l-0.0925431,0.0156245v0.00372012l0.0067168,0.0104163c0.02836,-0.0096723 0.05672,-0.0200886 0.0858263,-0.0297609Zm0.118664,-0.0401772l-0.0917968,0.0364571l-0.0268674,0.00372011c0.0395547,-0.0133924 0.0783632,-0.0275289 0.118664,-0.0401772Z"></path></mask><mask id="s" maskContentUnits="userSpaceOnUse" maskUnits="objectBoundingBox"><path fill="#FFF" d="M58.7886,19.9203v25.9701h-6.01083l-12.6792,-4.39941l-39.6398,-13.9899h-0.00373158l-0.353754,-0.258176l0.203744,-0.350435l0.145532,-0.238087l0.111947,0.137644l0.128366,0.0409212v-0.310258l5.54289,-7.79364c0.114186,-0.0200886 0.0709,-0.0818426 0.0709,-0.0818426h0.0455253c6.05337,-1.36231 10.7171,-5.14492 13.9569,-10.089l0.0082094,0.0029761l0.0694074,-0.1369l0.0037316,0.00297609l0.0238821,-0.00446413l0.0783631,-0.0141364c1.62324,-2.49248 2.95093,-5.30712 3.84054,-8.3338l0.164936,-0.0349691l34.2925,19.8803Z"></path></mask><mask id="t" maskContentUnits="userSpaceOnUse" maskUnits="objectBoundingBox"><path fill="#FFF" d="M57.5386,21.1874l-0.118664,0.319186l-57.2887,-21.1384l0.11941,-0.319186Z"></path></mask><path id="v" d="M-0.031586,1.11491h0.630176v-1.14341h-0.630176Z"></path><path id="u" d="M-0.034587,0.997363h0.630175v-0.626914h-0.630175Z"></path></defs><g transform="matrix(1,0,0,1,0,-1)"><g transform="matrix(1,0,0,1,0,1)"><g transform="matrix(1,0,0,1,45.3791,113.092)"><use mask="url(#a)" fill="#3497C6" fill-rule="evenodd" stroke="none" xlink:href="#u"></use><use mask="url(#b)" fill="#36649D" fill-rule="evenodd" stroke="none" xlink:href="#u"></use></g><g transform="matrix(1,0,0,1,49.2568,104.462)"><path mask="url(#c)" fill="#A0BE49" fill-rule="evenodd" stroke="none" d="M0.134337,9.53744h35.5545v-9.55326h-35.5545Z"></path></g><g transform="matrix(1,0,0,1,45.5253,94.4909)"><path mask="url(#d)" fill="#1B7843" fill-rule="evenodd" stroke="none" d="M0.014926,19.5083h66.0937v-19.5529h-66.0937Z"></path></g><g transform="matrix(1,0,0,1,1.79272,72.7673)"><path mask="url(#e)" fill="#A0BE49" fill-rule="evenodd" stroke="none" d="M0.222327,40.4284h57.4962v-40.4451h-57.4962Z"></path></g><g transform="matrix(1,0,0,1,59.259,93.7469)"><use mask="url(#f)" fill="#1B7843" fill-rule="evenodd" stroke="none" xlink:href="#v"></use></g><g transform="matrix(1,0,0,1,45.5253,113.092)"><path mask="url(#g)" fill="#1B7843" fill-rule="evenodd" stroke="none" d="M-0.142919,0.65541h1.14936v-0.626914h-1.14936Z"></path></g><g transform="matrix(1,0,0,1,45.5253,109.67)"><path mask="url(#h)" fill="#1E5B2F" fill-rule="evenodd" stroke="none" d="M-0.074632,3.52574h2.59718v-3.48203h-2.59718Z"></path></g><g transform="matrix(1,0,0,1,0,3.72011)"><path mask="url(#i)" fill="#B7B7B3" fill-rule="evenodd" stroke="none" d="M-0.044779,90.1905h65.1086v-90.2649h-65.1086Z"></path></g><g transform="matrix(1,0,0,1,59.259,93.7469)"><use mask="url(#j)" fill="#0D75A1" fill-rule="evenodd" stroke="none" xlink:href="#v"></use></g><g transform="matrix(1,0,0,1,1.79272,72.4688)"><path mask="url(#k)" fill="#768C3C" fill-rule="evenodd" stroke="none" d="M0.132769,21.4418h57.4962v-21.2493h-57.4962Z"></path></g><g transform="matrix(1,0,0,1,59.259,93.7469)"><path mask="url(#l)" fill="#175632" fill-rule="evenodd" stroke="none" d="M-0.031586,0.598418h0.630176v-0.626914h-0.630176Z"></path></g><g transform="matrix(1,0,0,1,50.0032,28.2729)"><path mask="url(#m)" fill="#B7B7B3" fill-rule="evenodd" stroke="none" d="M0.104484,1.42614h1.37114v-1.14341h-1.37114Z"></path></g><g transform="matrix(1,0,0,1,9.25588,24.1073)"><path mask="url(#n)" fill="#D9186F" fill-rule="evenodd" stroke="none" d="M0.025582,1.11313h0.630175v-1.14341h-0.630175Z"></path></g><g transform="matrix(1,0,0,1,33.5842,0)"><path mask="url(#o)" fill="#D9186F" fill-rule="evenodd" stroke="none" d="M0.134337,87.2144h83.9157v-87.2293h-83.9157Z"></path></g><g transform="matrix(1,0,0,1,82.841,12.2029)"><path mask="url(#p)" fill="#222853" fill-rule="evenodd" stroke="none" d="M0.223895,75.0115h34.5693v-74.9975h-34.5693Z"></path></g><g transform="matrix(1,0,0,1,9.25588,4.3172)"><path mask="url(#q)" fill="#D9186F" fill-rule="evenodd" stroke="none" d="M0.013359,24.9527h40.928v-24.9992h-40.928Z"></path></g><g transform="matrix(1,0,0,1,9.25588,2.53061)"><path mask="url(#r)" fill="#9E2055" fill-rule="evenodd" stroke="none" d="M0.102917,37.3639h42.1818v-37.2309h-42.1818Z"></path></g><g transform="matrix(1,0,0,1,58.8128,67.2606)"><path mask="url(#s)" fill="#3497C6" fill-rule="evenodd" stroke="none" d="M0.071497,45.9351h58.75v-45.9806h-58.75Z"></path></g><g transform="matrix(1,0,0,1,1.79272,72.4688)"><path mask="url(#t)" fill="#A0BE49" fill-rule="evenodd" stroke="none" d="M0.043211,21.5311h57.4962v-21.5171h-57.4962Z"></path></g></g></g></svg>