<?xml version="1.0" encoding="UTF-8"?><svg version="1.1" viewBox="0 0 22 22" xmlns="http://www.w3.org/2000/svg" xmlns:xlink="http://www.w3.org/1999/xlink"><!--Generated by IJSVG (https://github.com/iconjar/IJSVG)--><g transform="matrix(1,0,0,1,-1,-1)"><path fill="#000" stroke="none" d="M8,0c2.3384,0 4.5155,1.0103 6.02466,2.73645c0.870189,0.995302 1.47776,2.18324 1.77235,3.46628c3.55231,0.814596 6.20298,3.99639 6.20298,7.79727c0,4.41828 -3.58172,8 -8,8c-3.80089,0 -6.98268,-2.65067 -7.79768,-6.20432c-0.854582,-0.194816 -1.66991,-0.531026 -2.41656,-0.994533c-2.33471,-1.44936 -3.78576,-4.00111 -3.78576,-6.80114c0,-4.41828 3.58172,-8 8,-8Zm7.99262,8.33881l-0.0077755,0.157652c-0.249498,4.07502 -3.54957,7.32547 -7.64534,7.49646c0.820888,2.33393 3.0453,4.00707 5.66049,4.00707c3.31371,0 6,-2.68629 6,-6c0,-2.61519 -1.67314,-4.8396 -4.00738,-5.66119Zm-1.99262,-0.338809c-3.31371,0 -6,2.68629 -6,6c3.31371,0 6,-2.68629 6,-6Zm-6,-6c-3.31371,0 -6,2.68629 -6,6c0,2.10104 1.08764,4.01372 2.84061,5.10194c0.368606,0.228826 0.759275,0.41618 1.16629,0.559442c0.17391,-4.14998 3.50624,-7.48167 7.65459,-7.65435c-0.251478,-0.714786 -0.637975,-1.3771 -1.14251,-1.95418c-1.13329,-1.29623 -2.76375,-2.05286 -4.51899,-2.05286Z" transform="matrix(1,0,0,1,1,1)"></path></g></svg>