<?xml version="1.0" encoding="UTF-8"?>
<svg width="18px" height="18px" viewBox="0 0 18 18" version="1.1" xmlns="http://www.w3.org/2000/svg" xmlns:xlink="http://www.w3.org/1999/xlink">
    <!-- Generator: Sketch 61.2 (89653) - https://sketch.com -->
    <title>ic_smiley</title>
    <desc>Created with Sketch.</desc>
    <defs>
        <path d="M8.25,0 C12.8063492,0 16.5,3.69365081 16.5,8.25 C16.5,12.8063492 12.8063492,16.5 8.25,16.5 C3.69365081,16.5 0,12.8063492 0,8.25 C0,3.69365081 3.69365081,0 8.25,0 Z M8.25,1.5 C4.52207794,1.5 1.5,4.52207794 1.5,8.25 C1.5,11.9779221 4.52207794,15 8.25,15 C11.9779221,15 15,11.9779221 15,8.25 C15,4.52207794 11.9779221,1.5 8.25,1.5 Z M12.3327786,9.27198189 C12.7078092,9.44783666 12.8692732,9.89441751 12.6934184,10.2694481 C11.9633452,11.8264136 10.2102152,12.8446226 8.25493121,12.8446226 C6.2808266,12.8446226 4.52370622,11.83337 3.80415021,10.2675835 C3.63118807,9.89121009 3.79608551,9.44588561 4.17245896,9.27292347 C4.54883241,9.09996133 4.9941569,9.26485877 5.16711904,9.64123222 C5.62946011,10.6473073 6.84109296,11.3446226 8.25493121,11.3446226 C9.65020315,11.3446226 10.8627719,10.6403689 11.3353123,9.6326217 C11.5111671,9.25759106 11.957748,9.09612712 12.3327786,9.27198189 Z M5.49927718,5.22016597 C6.01704413,5.22016597 6.43677718,5.63989902 6.43677718,6.15766597 C6.43677718,6.67543292 6.01704413,7.09516597 5.49927718,7.09516597 C4.98151023,7.09516597 4.56177718,6.67543292 4.56177718,6.15766597 C4.56177718,5.63989902 4.98151023,5.22016597 5.49927718,5.22016597 Z M11.0007228,5.22016597 C11.5184898,5.22016597 11.9382228,5.63989902 11.9382228,6.15766597 C11.9382228,6.67543292 11.5184898,7.09516597 11.0007228,7.09516597 C10.4829559,7.09516597 10.0632228,6.67543292 10.0632228,6.15766597 C10.0632228,5.63989902 10.4829559,5.22016597 11.0007228,5.22016597 Z" id="path-1"></path>
    </defs>
    <g id="Chat-Units-v2" stroke="none" stroke-width="1" fill="none" fill-rule="evenodd">
        <g id="CN03---Edit---Hover" transform="translate(-316.000000, -424.000000)">
            <g id="Quick-Chat" transform="translate(24.000000, 48.000000)">
                <g id="Chat-/-Input-/-Small" transform="translate(40.000000, 364.000000)">
                    <g id="Input-Field">
                        <g id="Icons-/-Action-/-Smile-New" transform="translate(252.000000, 12.000000)">
                            <g id="Action-/-Add" transform="translate(0.750000, 0.750000)">
                                <g id="🎨-Icon">
                                    <mask id="mask-2" fill="white">
                                        <use xlink:href="#path-1"></use>
                                    </mask>
                                    <use id="Mask" fill="#000000" fill-rule="nonzero" xlink:href="#path-1"></use>
                                    <g id="Primary-/-Manatee" mask="url(#mask-2)" fill="#707689">
                                        <g transform="translate(-0.750000, -0.750000)">
                                            <rect x="0" y="0" width="18" height="18"></rect>
                                        </g>
                                    </g>
                                </g>
                            </g>
                        </g>
                    </g>
                </g>
            </g>
        </g>
    </g>
</svg>