<?xml version="1.0" encoding="UTF-8"?>
<svg width="20px" height="20px" viewBox="0 0 20 20" version="1.1" xmlns="http://www.w3.org/2000/svg" xmlns:xlink="http://www.w3.org/1999/xlink">
    <!-- Generator: Sketch 61.2 (89653) - https://sketch.com -->
    <title>Shape</title>
    <desc>Created with Sketch.</desc>
    <g id="V3.5" stroke="none" stroke-width="1" fill="none" fill-rule="evenodd">
        <g id="Space-Badge-/-Cover-Photo-/-Icon-Verified" transform="translate(-76.000000, 0.000000)" fill="#E9A820">
            <g id="Badges-/-Icon-+-Text-/-Img-Overlay" transform="translate(20.000000, 0.000000)">
                <path d="M73.3133366,3.09057171 C74.3596964,4.13693152 74.6492449,5.65351362 74.181982,6.96011305 C75.2701394,7.60402275 76,8.7907591 76,10.1479635 C76,11.3934697 75.3853312,12.4954123 74.4427904,13.1669945 C74.8115272,14.4232833 74.4996008,15.8371911 73.5079929,16.828799 C72.5117473,17.8250446 71.0892423,18.1352361 69.827556,17.7593735 C69.2609627,19.0764447 67.9499599,20 66.4232491,20 C65.014121,20 63.7887539,19.2132254 63.1624729,18.0550011 C61.8303511,18.5861404 60.2505884,18.3120948 59.171201,17.2327073 C58.1749554,16.2364617 57.8647639,14.8139567 58.2406265,13.5522704 C56.9231393,12.9850865 56,11.6743304 56,10.1479635 C56,8.51370001 57.0582628,7.12660702 58.5268961,6.63457699 C58.0184399,5.31173592 58.2981317,3.75438895 59.3658573,2.68666338 C60.4122171,1.64030357 61.9287992,1.35075511 63.2353987,1.818018 C63.8796828,0.729630298 65.0662588,0 66.4232491,0 C67.9031804,0 69.1804202,0.867825656 69.7738396,2.12234821 C70.9984578,1.80783481 72.3536653,2.13090036 73.3133366,3.09057171 Z M70.9921533,6.79986865 C70.6292741,6.43036245 70.0533175,6.39693171 69.6519843,6.70314784 L69.5555133,6.7867799 L64.6900158,11.5639838 L62.7955621,9.6526505 L62.7002252,9.567728 C62.3030484,9.25613968 61.7266941,9.28181792 61.3588995,9.64643229 C60.9911185,10.0110604 60.9604576,10.5871711 61.2686,10.9870273 L61.352695,11.083095 L63.9592716,13.7123084 L64.0542773,13.7969691 C64.4170701,14.0818155 64.9297214,14.0852645 65.296314,13.8053253 L65.3924502,13.7219505 L70.9790033,8.23650857 L71.0643833,8.14158107 C71.3778778,7.7459071 71.3549712,7.16943602 70.9921533,6.79986865 Z" id="Shape"></path>
            </g>
        </g>
    </g>
</svg>