<?xml version="1.0" encoding="UTF-8"?>
<svg width="20px" height="19px" viewBox="0 0 20 19" version="1.1" xmlns="http://www.w3.org/2000/svg" xmlns:xlink="http://www.w3.org/1999/xlink">
    <!-- Generator: Sketch 61 (89581) - https://sketch.com -->
    <title>icon_za</title>
    <desc>Created with Sketch.</desc>
    <defs>
        <path d="M6.39442719,10.5527864 L9.89442719,17.5527864 C10.1414164,18.0467649 9.94119209,18.6474379 9.4472136,18.8944272 C8.9532351,19.1414164 8.35256206,18.9411921 8.10557281,18.4472136 L7.62777463,17.4919134 C7.5859357,17.4972494 7.54328907,17.5 7.5,17.5 L3.5,17.5 C3.45671093,17.5 3.4140643,17.4972494 3.37222537,17.4919134 L2.89442719,18.4472136 C2.64743794,18.9411921 2.0467649,19.1414164 1.5527864,18.8944272 C1.05880791,18.6474379 0.85858356,18.0467649 1.10557281,17.5527864 L4.60557281,10.5527864 C4.97409708,9.81573787 6.02590292,9.81573787 6.39442719,10.5527864 Z M16,1 C16.5522847,1 17,1.44771525 17,2 L16.9999978,14.585 L19.2928932,12.2928932 C19.6834175,11.9023689 20.3165825,11.9023689 20.7071068,12.2928932 C21.0976311,12.6834175 21.0976311,13.3165825 20.7071068,13.7071068 L16.7071068,17.7071068 C16.6786405,17.7355731 16.6484659,17.7623312 16.6167501,17.787214 L16.7071068,17.7071068 C16.6717127,17.7425008 16.6343256,17.774687 16.5953066,17.8036654 C16.5711307,17.8215099 16.546275,17.8382813 16.5206602,17.8539326 C16.5086131,17.8613931 16.4963944,17.8685012 16.4840621,17.8753288 C16.4642939,17.8862061 16.4438914,17.8966234 16.4230991,17.9063462 C16.4060985,17.914321 16.3887956,17.9218036 16.371336,17.9287745 C16.3515792,17.9366843 16.3317977,17.9438775 16.3117364,17.9504533 C16.2968513,17.9552713 16.2814633,17.9599023 16.265993,17.9641549 C16.2444365,17.9701664 16.2227461,17.9753602 16.2007941,17.9798348 C16.1833753,17.9832978 16.165949,17.9863719 16.1484669,17.9889822 C16.1281144,17.9920941 16.1070574,17.994564 16.085811,17.9963697 C16.0679231,17.997855 16.050591,17.9988772 16.0332468,17.9994506 C16.0224019,17.9998151 16.0112225,18 16,18 L15.9677454,17.9994829 C15.9497336,17.9989053 15.9317345,17.9978436 15.9137692,17.9962979 L16,18 C15.9493797,18 15.8996379,17.9962388 15.8510388,17.9889807 C15.834051,17.9863719 15.8166247,17.9832978 15.7992742,17.9797599 C15.7772539,17.9753602 15.7555635,17.9701664 15.7341604,17.964279 C15.7185367,17.9599023 15.7031487,17.9552713 15.6878575,17.9502619 C15.6682023,17.9438775 15.6484208,17.9366843 15.6289415,17.928896 C15.6112044,17.9218036 15.5939015,17.914321 15.5767785,17.9063266 C15.5561086,17.8966234 15.5357061,17.8862061 15.515723,17.8751242 C15.5036056,17.8685012 15.4913869,17.8613931 15.4792912,17.8540045 C15.453725,17.8382813 15.4288693,17.8215099 15.4048407,17.8036865 C15.397397,17.7982466 15.3901576,17.7927155 15.3829777,17.7870723 C15.3515341,17.7623312 15.3213595,17.7355731 15.2928932,17.7071068 L11.2928932,13.7071068 C10.9023689,13.3165825 10.9023689,12.6834175 11.2928932,12.2928932 C11.6834175,11.9023689 12.3165825,11.9023689 12.7071068,12.2928932 L14.9999978,14.585 L15,2 C15,1.44771525 15.4477153,1 16,1 Z M5.5,13.236068 L4.3679978,15.5 L6.6319978,15.5 L5.5,13.236068 Z M9,0 C9.92840628,0 10.35569,1.15505781 9.65079137,1.7592566 L4.70325741,6 L9,6 C9.55228475,6 10,6.44771525 10,7 C10,7.55228475 9.55228475,8 9,8 L2,8 C1.07159372,8 0.64431003,6.84494219 1.34920863,6.2407434 L6.29674259,2 L2,2 C1.44771525,2 1,1.55228475 1,1 C1,0.44771525 1.44771525,0 2,0 L9,0 Z" id="path-1"></path>
    </defs>
    <g id="User" stroke="none" stroke-width="1" fill="none" fill-rule="evenodd">
        <g id="Action-/-A---Z-Reverse" transform="translate(-2.000000, -2.000000)">
            <g id="Primary-/-Shark" transform="translate(1.000000, 2.000000)">
                <mask id="mask-2" fill="white">
                    <use xlink:href="#path-1"></use>
                </mask>
                <use id="Mask" fill="#000000" fill-rule="nonzero" xlink:href="#path-1"></use>
                <g id="Primary-/-Manatee" mask="url(#mask-2)" fill="#707689">
                    <g transform="translate(-1.000000, -2.000000)">
                        <rect x="0" y="0" width="24" height="24"></rect>
                    </g>
                </g>
            </g>
        </g>
    </g>
</svg>