<?xml version="1.0" encoding="UTF-8"?><svg version="1.1" viewBox="0 0 19 22" xmlns="http://www.w3.org/2000/svg" xmlns:xlink="http://www.w3.org/1999/xlink"><!--Generated by IJSVG (https://github.com/iconjar/IJSVG)--><g transform="matrix(1,0,0,1,-3,-1)"><path fill="#000" fill-rule="evenodd" stroke="none" d="M9.3587,0.167917l8.57224,5.90437c0.426826,0.293988 0.530558,0.872676 0.231691,1.29254c-0.298867,0.419859 -0.887157,0.521897 -1.31398,0.227909l-1.06365,-0.733312l-4.93385,8.92412l-0.0454834,0.0711331l0.965705,0.665495c0.426826,0.293989 0.530558,0.872676 0.231691,1.29254c-0.298867,0.419859 -0.887157,0.521897 -1.31398,0.227909l-4.2713,-2.94209c-0.02008,0.0389912 -0.0432067,0.0770592 -0.0694338,0.113904l-4.54982,6.39176c-0.298867,0.419859 -0.887157,0.521897 -1.31398,0.227909c-0.426826,-0.293988 -0.530558,-0.872676 -0.231691,-1.29254l4.54982,-6.39176c0.0262344,-0.0368551 0.054699,-0.0712613 0.0850886,-0.103166l-4.48537,-3.08926c-0.426826,-0.293989 -0.530558,-0.872676 -0.231691,-1.29254c0.298867,-0.419859 0.887157,-0.521897 1.31398,-0.227909l1.00101,0.689658c0.0298251,-0.0517049 0.065162,-0.101332 0.10607,-0.148099l6.66107,-7.61606l-0.976424,-0.672056c-0.426826,-0.293988 -0.530558,-0.872676 -0.231691,-1.29254c0.298867,-0.419859 0.887157,-0.521897 1.31398,-0.227909Zm1.44696,3.26225l-6.7815,7.75408l5.22958,3.60158l4.97227,-8.9896l0.0043171,-0.00747899l-3.42467,-2.35858Z" transform="matrix(1,0,0,1,3,1)"></path></g></svg>