<?xml version="1.0" encoding="UTF-8"?><svg version="1.1" viewBox="0 0 22 18" xmlns="http://www.w3.org/2000/svg" xmlns:xlink="http://www.w3.org/1999/xlink"><!--Generated by IJSVG (https://github.com/iconjar/IJSVG)--><g transform="matrix(1,0,0,1,-1,-3)"><g transform="matrix(1,0,0,1,1,3)"><g transform="matrix(1,0,0,1,11,9)"><g transform="matrix(6.12323e-17,1,-1,6.12323e-17,0,0)"><g transform="matrix(1,0,0,1,-11,-9)"><path fill="#000" stroke="none" d="M15.8889,7.33333c0.675015,0 1.22222,0.547208 1.22222,1.22222v12.2222c0,0.675015 -0.547208,1.22222 -1.22222,1.22222c-0.675015,0 -1.22222,-0.547208 -1.22222,-1.22222v-12.2222c0,-0.675015 0.547208,-1.22222 1.22222,-1.22222Zm-7.33333,-7.33333c0.675015,1.11022e-16 1.22222,0.547208 1.22222,1.22222v19.5556c0,0.675015 -0.547208,1.22222 -1.22222,1.22222c-0.675015,0 -1.22222,-0.547208 -1.22222,-1.22222v-19.5556c0,-0.675015 0.547208,-1.22222 1.22222,-1.22222Zm-7.33333,12.2222c0.675015,-1.77636e-15 1.22222,0.547208 1.22222,1.22222v7.33333c0,0.675015 -0.547208,1.22222 -1.22222,1.22222c-0.675015,0 -1.22222,-0.547208 -1.22222,-1.22222v-7.33333c0,-0.675015 0.547208,-1.22222 1.22222,-1.22222Z" transform="matrix(1,0,0,1,2,-2)"></path></g></g></g></g></g></svg>