<?xml version="1.0" encoding="UTF-8"?><svg version="1.1" viewBox="0 0 22 22" xmlns="http://www.w3.org/2000/svg" xmlns:xlink="http://www.w3.org/1999/xlink"><!--Generated by IJSVG (https://github.com/iconjar/IJSVG)--><g transform="matrix(1,0,0,1,-1,-1)"><path fill="#000" stroke="none" d="M8.34,2c0.552285,0 1,0.447715 1,1c0,0.552285 -0.447715,1 -1,1h-5.34c-0.552285,0 -1,0.447715 -1,1v14c0,0.552285 0.447715,1 1,1h14c0.552285,0 1,-0.447715 1,-1v-5.34c0,-0.552285 0.447715,-1 1,-1c0.552285,0 1,0.447715 1,1v5.34c0,1.65685 -1.34315,3 -3,3h-14c-1.65685,0 -3,-1.34315 -3,-3v-14c0,-1.65685 1.34315,-3 3,-3h5.34Zm9.36711,-1.70711l4,4c0.390524,0.390524 0.390524,1.02369 0,1.41421l-10,10c-0.187536,0.187536 -0.44189,0.292893 -0.707107,0.292893h-4c-0.552285,0 -1,-0.447715 -1,-1v-4c0,-0.265216 0.105357,-0.51957 0.292893,-0.707107l10,-10c0.390524,-0.390524 1.02369,-0.390524 1.41421,2.22045e-16Zm-0.707107,2.12132l-9,9v2.58579h2.58579l9,-9l-2.58579,-2.58579Z" transform="matrix(1,0,0,1,1,1)"></path></g></svg>