<?xml version="1.0" encoding="UTF-8"?><svg version="1.1" viewBox="0 0 20 22" xmlns="http://www.w3.org/2000/svg" xmlns:xlink="http://www.w3.org/1999/xlink"><!--Generated by IJSVG (https://github.com/iconjar/IJSVG)--><g transform="matrix(1,0,0,1,-2,-1)"><g transform="matrix(1,0,0,1,2,1)"><path fill="#000" stroke="none" d="M3,4c-0.552285,0 -1,0.447715 -1,1v14c0,0.6 0.4,1 1,1h14c0.6,0 1,-0.4 1,-1v-14c0,-0.6 -0.4,-1 -1,-1h-14Zm0,-2h14c1.65685,0 3,1.34315 3,3v14c0,1.65685 -1.34315,3 -3,3h-14c-1.65685,0 -3,-1.34315 -3,-3v-14c0,-1.65685 1.34315,-3 3,-3Zm10,-1c0,-0.552285 0.447715,-1 1,-1c0.552285,0 1,0.447715 1,1v4c0,0.552285 -0.447715,1 -1,1c-0.552285,0 -1,-0.447715 -1,-1v-4Zm-8,0c0,-0.552285 0.447715,-1 1,-1c0.552285,0 1,0.447715 1,1v4c0,0.552285 -0.447715,1 -1,1c-0.552285,0 -1,-0.447715 -1,-1v-4Zm-4,9c-0.552285,0 -1,-0.447715 -1,-1c0,-0.552285 0.447715,-1 1,-1h18c0.552285,0 1,0.447715 1,1c0,0.552285 -0.447715,1 -1,1h-18Z"></path><path fill="#000" stroke="none" d="M14.4142,13.5858c0.781049,0.781049 0.781049,2.04738 0,2.82843c-0.781049,0.781049 -2.04738,0.781049 -2.82843,0c-0.781049,-0.781049 -0.781049,-2.04738 0,-2.82843c0.781049,-0.781049 2.04738,-0.781049 2.82843,0"></path></g></g></svg>